<svg width="1526" height="665" viewBox="0 0 1526 665" fill="none" xmlns="http://www.w3.org/2000/svg">
<rect width="1526" height="665" fill="#F2EDE4"/>
<path d="M409.549 204.202C409.582 204.321 409.898 205.444 410.258 206.708C411.589 211.35 412.222 213.801 413.291 218.421C414.251 222.562 414.545 224.011 414.447 224.098C414.404 224.142 413.607 224.011 412.68 223.804C410.411 223.303 409.702 223.15 408.099 222.845C407.346 222.693 405.808 222.344 404.662 222.072C403.528 221.799 402.055 221.451 401.39 221.309C400.735 221.156 398.75 220.688 396.994 220.241C395.237 219.805 393.776 219.467 393.743 219.5C393.721 219.522 393.699 224.327 393.699 230.157C393.699 240.214 393.71 240.77 393.896 240.715C394.779 240.465 401.662 238.819 403.462 238.427C404.935 238.1 404.837 238.122 406.255 237.763C407.749 237.37 411.6 236.575 413.88 236.183C414.153 236.139 414.404 236.117 414.436 236.139C414.469 236.161 414.393 236.706 414.251 237.348C414 238.493 412.549 244.573 412.353 245.336C411.949 246.85 411.175 249.803 410.662 251.819C410.324 253.137 409.931 254.63 409.778 255.142C409.637 255.644 409.517 256.112 409.517 256.177C409.517 256.243 410.335 256.286 411.938 256.286H414.371L414.404 256.581C414.425 256.777 414.393 256.886 414.305 256.886C414.229 256.886 414.066 256.984 413.946 257.093C413.815 257.213 413.116 257.605 412.386 257.965C410.073 259.109 408.437 260.253 406.844 261.844C405.895 262.792 404.531 264.535 403.899 265.614C402.612 267.815 401.586 270.681 401.172 273.198C401.084 273.753 401.03 273.743 402.47 273.503C406.811 272.805 413.291 272.173 416.52 272.13L417.469 272.119L417.491 265.995C417.502 262.639 417.513 259.076 417.524 258.084L417.534 256.286L420.36 256.254C421.92 256.243 423.229 256.265 423.272 256.308C423.327 256.363 423.371 259.915 423.371 264.219C423.381 268.512 423.425 272.054 423.458 272.075C423.501 272.097 424.341 272.152 425.334 272.184C426.327 272.228 427.254 272.282 427.407 272.304C427.559 272.326 428.192 272.38 428.825 272.413C431.039 272.544 436.319 273.165 438.61 273.546C439.221 273.655 439.744 273.721 439.766 273.699C439.842 273.634 439.417 271.585 439.133 270.637C438.555 268.741 438.413 268.381 437.704 267.041C436.472 264.709 435.588 263.489 433.875 261.756C432.119 259.98 430.657 258.945 427.985 257.605C426.927 257.082 426.545 256.831 426.501 256.657C426.469 256.526 426.458 256.374 426.49 256.319C426.523 256.265 427.647 256.232 428.967 256.243C431.279 256.254 431.388 256.254 431.356 256.058C431.334 255.938 431.137 255.262 430.93 254.543C430.712 253.824 430.308 252.331 430.025 251.22C429.741 250.108 429.436 248.953 429.348 248.659C429.25 248.354 429.13 247.864 429.065 247.569C428.988 247.264 428.77 246.338 428.574 245.499C428.367 244.66 428.116 243.581 428.007 243.102C427.898 242.622 427.625 241.467 427.396 240.541C426.447 236.716 426.316 236.074 426.523 236.074C426.654 236.074 433.035 237.37 433.515 237.49C434.694 237.795 435.763 238.057 436.679 238.253C437.246 238.384 438.13 238.58 438.642 238.689C439.155 238.809 440.082 239.027 440.715 239.168C441.348 239.31 442.351 239.55 442.951 239.702C443.551 239.866 444.686 240.138 445.46 240.323C446.246 240.508 446.966 240.683 447.064 240.715C447.238 240.77 447.249 240.051 447.228 230.081C447.217 224.207 447.173 219.402 447.14 219.402C447.108 219.402 445.439 219.816 443.431 220.328C441.424 220.829 438.566 221.516 437.061 221.854C435.566 222.192 434.061 222.529 433.734 222.616C433.406 222.704 431.737 223.074 430.025 223.434C428.312 223.793 426.807 224.12 426.676 224.153C426.272 224.262 426.294 224.109 427.308 219.947C427.658 218.476 428.148 216.438 428.399 215.425C428.639 214.401 429.032 212.864 429.261 211.992C429.49 211.121 430.025 209.061 430.45 207.416C430.887 205.771 431.257 204.332 431.29 204.234C431.345 204.049 430.745 204.038 420.425 204.016C409.549 203.984 409.506 203.984 409.549 204.202ZM423.589 230.091C423.589 230.157 423.545 230.168 423.48 230.135C423.425 230.102 423.371 230.015 423.371 229.961C423.371 229.895 423.425 229.884 423.48 229.917C423.545 229.95 423.589 230.037 423.589 230.091ZM442.024 230.636C442.024 230.702 441.981 230.713 441.915 230.68C441.861 230.647 441.806 230.56 441.806 230.505C441.806 230.44 441.861 230.429 441.915 230.462C441.981 230.495 442.024 230.582 442.024 230.636ZM427.407 231.17C427.407 231.225 427.385 231.279 427.363 231.279C427.33 231.279 427.276 231.225 427.243 231.17C427.21 231.105 427.232 231.061 427.287 231.061C427.352 231.061 427.407 231.105 427.407 231.17ZM411.557 235.485C411.524 235.518 411.426 235.529 411.349 235.496C411.262 235.463 411.295 235.431 411.415 235.431C411.535 235.42 411.6 235.452 411.557 235.485ZM445.449 238.591C445.417 238.645 445.34 238.667 445.286 238.623C445.231 238.591 445.209 238.514 445.253 238.46C445.286 238.405 445.362 238.384 445.417 238.427C445.471 238.46 445.493 238.536 445.449 238.591ZM419.105 242.241C419.127 242.263 419.127 242.317 419.083 242.35C418.996 242.448 418.571 242.285 418.571 242.165C418.571 242.067 418.974 242.132 419.105 242.241ZM418.298 242.611C418.331 242.666 418.287 242.72 418.2 242.72C418.102 242.72 418.025 242.666 418.025 242.611C418.025 242.546 418.069 242.502 418.123 242.502C418.189 242.502 418.265 242.546 418.298 242.611ZM418.734 255.012C418.702 255.044 418.614 255.012 418.538 254.935C418.44 254.826 418.451 254.815 418.603 254.881C418.713 254.914 418.767 254.979 418.734 255.012ZM421.156 255.055C421.123 255.142 421.091 255.11 421.091 254.99C421.08 254.87 421.112 254.805 421.145 254.848C421.178 254.881 421.189 254.979 421.156 255.055ZM415.604 257.485C415.571 257.518 415.505 257.463 415.473 257.354C415.407 257.202 415.418 257.191 415.527 257.289C415.604 257.365 415.636 257.452 415.604 257.485ZM426.021 267.096C425.945 267.118 425.814 267.118 425.749 267.096C425.672 267.063 425.727 267.041 425.879 267.041C426.032 267.041 426.087 267.063 426.021 267.096ZM433.188 271.934C433.188 271.999 433.145 272.01 433.079 271.977C433.025 271.945 432.97 271.966 432.97 272.043C432.97 272.119 432.948 272.152 432.915 272.119C432.817 272.032 432.981 271.705 433.09 271.77C433.145 271.803 433.188 271.879 433.188 271.934Z" fill="#080808"/>
<path d="M366.463 242.032C366.572 242.195 367.041 244.298 367.412 246.205C367.521 246.772 367.783 248.047 367.99 249.038C368.557 251.752 368.874 253.495 368.797 253.571C368.721 253.648 367.499 253.43 363.43 252.612C361.936 252.307 360.485 252.024 360.212 251.98C359.939 251.926 359.307 251.795 358.794 251.675C358.281 251.545 357.703 251.414 357.496 251.37L357.125 251.305L357.19 251.719C357.736 255.14 357.736 259.51 357.201 262.92L357.136 263.334L357.496 263.258C357.703 263.225 358.281 263.095 358.794 262.975C364.336 261.711 368.688 260.839 368.808 260.97C368.841 261.003 368.546 262.626 368.143 264.598C367.75 266.56 367.368 268.478 367.303 268.87C367.183 269.567 366.725 271.648 366.55 272.324C366.495 272.52 366.485 272.684 366.539 272.684C366.583 272.684 367.03 272.607 367.543 272.52C368.044 272.433 368.721 272.335 369.048 272.302C369.375 272.259 369.713 272.215 369.801 272.182C369.888 272.15 370.826 272.106 371.873 272.084C373.782 272.041 375.473 272.171 377.415 272.509C377.884 272.586 378.277 272.651 378.288 272.64C378.299 272.64 378.211 272.161 378.091 271.594C377.971 271.027 377.797 270.188 377.72 269.742C377.633 269.295 377.437 268.314 377.273 267.562C377.12 266.81 376.924 265.884 376.848 265.492C376.771 265.1 376.531 263.934 376.324 262.888C376.106 261.842 375.953 260.948 375.975 260.905C376.008 260.861 376.215 260.872 376.433 260.926C376.662 260.97 377.633 261.166 378.593 261.351C380.153 261.656 381.298 261.896 382.629 262.223C383.393 262.408 387.604 263.313 387.702 263.313C387.756 263.313 387.778 263.247 387.756 263.171C387.734 263.106 387.604 261.983 387.473 260.698C387.222 258.224 387.233 255.456 387.484 253.615C387.713 252.002 387.8 251.272 387.767 251.25C387.745 251.229 386.96 251.392 386 251.599C383.349 252.187 380.862 252.71 380.011 252.852C379.597 252.928 378.539 253.125 377.677 253.299C376.804 253.473 376.073 253.593 376.051 253.571C376.03 253.549 376.27 252.285 376.586 250.76C376.891 249.245 377.208 247.687 377.284 247.295C377.36 246.903 377.48 246.292 377.557 245.933C377.622 245.573 377.829 244.549 378.015 243.666C378.189 242.773 378.309 242.021 378.277 241.988C378.244 241.945 377.829 241.977 377.36 242.043C374.033 242.544 370.15 242.522 366.845 241.999C366.561 241.945 366.419 241.967 366.463 242.032ZM368.939 270.395C368.939 270.45 368.895 270.504 368.83 270.504C368.775 270.504 368.721 270.45 368.721 270.395C368.721 270.33 368.775 270.286 368.83 270.286C368.895 270.286 368.939 270.33 368.939 270.395Z" fill="#080808"/>
<path d="M472.956 242.119C470.131 242.478 466.739 242.522 464.448 242.239C464.208 242.206 463.695 242.152 463.313 242.108L462.615 242.032L462.681 242.402C462.713 242.609 462.942 243.732 463.182 244.897C463.717 247.524 464.688 252.525 464.786 253.168C464.851 253.626 464.84 253.647 464.6 253.582C464.459 253.549 463.902 253.44 463.357 253.342C460.553 252.819 454.51 251.577 453.626 251.337L453.277 251.239L453.332 251.915C453.365 252.274 453.419 252.645 453.441 252.721C453.714 253.593 453.714 259.27 453.441 261.547C453.332 262.463 453.266 263.236 453.288 263.258C453.332 263.302 456.07 262.702 458.012 262.223C458.492 262.103 459.921 261.809 461.175 261.569C462.441 261.318 463.782 261.057 464.175 260.97C464.557 260.883 464.895 260.839 464.928 260.872C464.971 260.915 464.251 264.675 463.673 267.344C463.531 268.031 463.346 268.968 463.259 269.414C463.182 269.861 462.997 270.766 462.866 271.408C462.735 272.062 462.648 272.607 462.67 272.629C462.681 272.651 462.953 272.618 463.248 272.564C466.4 271.997 469.706 271.921 472.542 272.346C473.404 272.476 474.178 272.607 474.276 272.651C474.429 272.705 474.451 272.672 474.396 272.455C474.287 272.019 472.346 262.19 472.204 261.318C472.138 260.97 472.16 260.915 472.335 260.915C472.564 260.915 477.156 261.841 478.847 262.223C479.731 262.419 482.96 263.149 483.57 263.28C483.854 263.345 483.843 263.432 483.658 262.059C483.341 259.771 483.243 257.374 483.396 254.988C483.44 254.159 483.505 253.342 483.538 253.19C483.57 253.037 483.625 252.634 483.658 252.307C483.69 251.98 483.734 251.588 483.767 251.446C483.81 251.239 483.789 251.207 483.625 251.261C483.516 251.305 482.763 251.49 481.956 251.664C481.149 251.839 480.069 252.078 479.556 252.198C479.043 252.307 478.312 252.46 477.92 252.525C477.527 252.59 476.873 252.71 476.447 252.797C476.033 252.874 474.996 253.07 474.156 253.233C473.316 253.386 472.52 253.538 472.389 253.571C472.095 253.626 472.073 253.462 472.247 252.721C472.378 252.187 473.153 248.319 473.447 246.75C473.556 246.183 473.818 244.963 474.036 244.048C474.255 243.132 474.429 242.282 474.429 242.162C474.429 241.934 474.494 241.934 472.956 242.119ZM457.412 253.658C457.412 253.691 457.368 253.745 457.303 253.778C457.248 253.811 457.194 253.789 457.194 253.734C457.194 253.669 457.248 253.615 457.303 253.615C457.368 253.615 457.412 253.636 457.412 253.658ZM481.52 254.922C481.432 254.977 481.334 254.998 481.312 254.966C481.28 254.933 481.323 254.868 481.411 254.813C481.498 254.759 481.596 254.737 481.618 254.77C481.651 254.802 481.607 254.868 481.52 254.922ZM467.557 258.464C467.48 258.562 467.393 258.605 467.349 258.573C467.317 258.54 467.36 258.464 467.448 258.409C467.677 258.257 467.709 258.278 467.557 258.464ZM471.593 269.959C471.593 270.014 471.571 270.068 471.549 270.068C471.516 270.068 471.462 270.014 471.429 269.959C471.396 269.894 471.418 269.85 471.473 269.85C471.538 269.85 471.593 269.894 471.593 269.959Z" fill="#080808"/>
<path d="M467.39 278.154C462.962 278.415 459.274 279.134 454.682 280.638C450.984 281.858 445.268 284.572 442.726 286.315C442.333 286.587 442.203 286.784 441.755 287.851C440.152 291.654 437.436 301.036 437.348 303.063C437.326 303.51 437.348 303.531 437.796 303.727C438.057 303.836 438.483 304.022 438.755 304.142C439.028 304.261 439.694 304.523 440.228 304.719C440.774 304.915 441.504 305.188 441.864 305.318C443.501 305.939 447.624 307.236 448.606 307.443C448.857 307.487 449.653 307.683 450.373 307.879C452.173 308.348 454.649 308.827 456.536 309.078C457.409 309.197 458.435 309.339 458.827 309.394C463.998 310.135 471.678 310.222 477.154 309.612C481.441 309.132 486.208 308.304 489.131 307.541C489.993 307.312 490.026 307.291 489.884 307.073C489.797 306.942 489.535 306.495 489.284 306.07C488.149 304.131 485.531 301.145 483.557 299.576L482.586 298.802L482.03 298.933C480.164 299.38 478.659 299.685 477.481 299.87C476.968 299.946 475.845 300.132 474.972 300.284C469.398 301.265 461.893 301.189 455.391 300.088C454.857 299.99 454.093 299.859 453.7 299.805C451.813 299.5 447.515 298.323 444.941 297.408C444.155 297.124 444.002 297.037 444.122 296.917C444.275 296.765 448.311 294.705 449.391 294.226C453.798 292.286 456.864 291.186 460.245 290.347C463.867 289.453 466.049 289.192 469.299 289.29C471.645 289.344 472.605 289.475 474.808 290.009C476.335 290.379 479.27 291.491 480.884 292.297C483.099 293.409 486.066 295.512 487.975 297.331C490.015 299.271 492.284 302.126 493.396 304.174C494.433 306.048 495.873 309.317 496.091 310.244C496.124 310.407 496.222 310.756 496.309 311.017C496.669 312.129 497.258 315.299 497.454 317.195C497.607 318.721 497.574 322.077 497.389 323.744C497.105 326.348 496.582 329.28 496.015 331.579C495.644 333.028 494.433 337.278 494.28 337.659C494.226 337.79 493.855 338.759 493.462 339.806C493.069 340.852 492.338 342.704 491.858 343.924L490.964 346.136L490.2 345.341C488.924 344.022 486.731 342.116 485.553 341.298C484.593 340.645 483.426 339.871 482.717 339.446C481.953 338.988 481.888 338.967 481.822 339.163C481.702 339.468 481.517 343.75 481.572 344.654C481.604 345.069 481.648 345.82 481.681 346.322C481.812 348.294 482.433 351.628 483.088 353.916C483.295 354.636 483.448 355.235 483.426 355.257C483.404 355.278 482.75 355.213 481.953 355.115C478.594 354.712 473.03 355.071 469.365 355.943C467.958 356.27 465.809 356.946 465.809 357.055C465.809 357.185 466.736 358.46 467.598 359.528C470.51 363.135 473.761 366.218 476.685 368.169C477.415 368.659 478.026 369.117 478.026 369.182C478.026 369.259 477.906 369.389 477.754 369.487C477.317 369.782 474.536 372.299 473.936 372.952C472.779 374.206 471.012 376.396 470.794 376.853C470.75 376.941 470.368 377.551 469.965 378.215C469.354 379.207 469.256 379.425 469.398 379.479C469.899 379.676 472.223 379.839 474.481 379.839C477.459 379.828 478.506 379.73 481.059 379.196C481.43 379.12 481.735 379.087 481.735 379.131C481.735 379.174 481.615 379.556 481.473 379.97C480.208 383.566 479.477 387.554 479.281 391.88C479.237 392.937 479.248 393.209 479.357 393.165C483.099 391.694 486.022 390.191 488.651 388.404C489.088 388.109 489.513 387.859 489.578 387.859C489.753 387.859 488.771 389.286 487.997 390.158C485.455 393.002 482.51 394.625 478.724 395.268C476.194 395.704 473.347 395.432 470.936 394.538C467.51 393.263 464.936 391.226 462.896 388.186C461.216 385.68 459.962 381.953 459.471 378.063C459.384 377.3 459.307 376.995 459.253 377.137C459.198 377.246 458.98 377.834 458.762 378.433C458.173 380.046 456.973 382.487 456.155 383.74C451.846 390.3 444.668 393.699 437.577 392.544C434.621 392.065 431.523 390.485 429.047 388.197L428.447 387.652L429.865 387.641C430.65 387.641 432.374 387.63 433.716 387.63C435.047 387.619 436.137 387.576 436.137 387.521C436.137 387.477 435.963 386.998 435.756 386.475C434.632 383.653 430.694 373.541 430.607 373.236C430.552 373.051 431.643 373.53 435.81 375.524C437.926 376.527 439.345 377.191 440.446 377.692C441.046 377.965 441.908 378.357 442.355 378.564C442.803 378.782 443.588 379.142 444.101 379.37C444.613 379.61 445.115 379.85 445.224 379.915C445.344 379.981 445.453 380.013 445.475 379.981C445.497 379.959 445.508 372.68 445.497 363.799L445.464 347.662L444.646 348.054C444.199 348.261 443.457 348.599 443.01 348.795C441.428 349.482 438.908 350.615 437.796 351.149C437.174 351.443 436.65 351.683 436.628 351.683C436.606 351.683 435.81 352.042 434.861 352.489C433.912 352.925 432.898 353.404 432.592 353.535C432.298 353.666 431.916 353.851 431.752 353.927C431.37 354.123 431.316 354.004 431.545 353.535C431.654 353.328 432.494 351.628 433.432 349.776C436.279 344.11 438.646 339.228 438.581 339.163C438.548 339.13 436.323 339.097 433.65 339.097H428.774V337.844C428.774 336.722 428.829 335.698 428.992 333.377C429.036 332.745 429.145 331.437 429.483 327.166C430.029 320.475 430.64 314.755 431.163 311.584C431.261 311.017 431.458 309.764 431.61 308.805C431.763 307.846 431.938 306.844 431.992 306.571C432.047 306.299 432.276 305.144 432.483 304.011C432.701 302.867 432.974 301.526 433.083 301.014C433.192 300.502 433.367 299.696 433.465 299.216C433.563 298.737 433.738 298.029 433.858 297.636C433.967 297.244 434.239 296.34 434.458 295.621C434.828 294.367 435.079 293.496 435.265 292.787C435.428 292.155 436.017 290.379 436.563 288.843C437.076 287.394 437.501 286.315 438.33 284.343C439.126 282.425 439.497 281.346 439.585 280.583C439.617 280.278 439.661 279.995 439.672 279.941C439.672 279.875 439.585 279.821 439.465 279.799C439.345 279.777 439.006 279.712 438.701 279.657C437.054 279.341 436.203 279.211 435.319 279.112C434.785 279.058 433.945 278.96 433.465 278.905C429.287 278.382 424.694 278.154 419.665 278.186C416.306 278.219 415.433 278.252 411.92 278.513C410.753 278.6 409.401 278.698 408.921 278.731C407.982 278.807 407.764 278.818 406.084 279.003C404.993 279.112 401.481 279.734 401.317 279.832C401.274 279.864 401.23 280.006 401.23 280.148C401.23 280.605 402.234 283.406 403.084 285.323C404.066 287.546 405.223 290.848 406.139 294.095C406.935 296.895 407.055 297.429 408.539 304.392C408.702 305.144 409.575 310.222 409.891 312.238C410.371 315.278 410.753 318.732 411.102 323.188C411.2 324.387 411.299 325.509 411.32 325.695C411.342 325.869 411.44 327.1 411.539 328.419C411.626 329.737 411.724 331.132 411.757 331.524C411.942 333.932 412.139 337.071 412.16 338.008L412.193 339.097L407.208 339.086C404.459 339.086 402.212 339.097 402.212 339.13C402.212 339.152 403.859 342.464 405.866 346.485C407.873 350.506 409.521 353.84 409.521 353.884C409.521 353.927 409.477 353.971 409.422 353.971C409.368 353.971 407.59 353.175 405.473 352.217C402.495 350.865 395.339 347.651 395.296 347.651C395.263 347.651 395.361 379.97 395.394 380.002C395.416 380.013 396.114 379.719 396.943 379.327C397.772 378.935 399.583 378.085 400.957 377.442C405.953 375.121 410.011 373.236 410.164 373.181C410.371 373.094 410.448 372.887 408.484 377.943C406.073 384.165 404.83 387.423 404.83 387.543C404.83 387.597 406.401 387.641 408.681 387.641L412.52 387.652L411.724 388.393C409.575 390.409 406.837 391.803 403.739 392.49C402.517 392.751 399.485 392.828 398.121 392.61C396.07 392.305 394.107 391.618 392.198 390.55C390.365 389.537 389.416 388.796 387.583 386.987C385.205 384.623 384.071 382.879 382.653 379.414C382.009 377.845 381.606 376.984 381.606 377.148C381.595 377.224 381.518 377.834 381.42 378.51C381.049 381.256 380.329 383.729 379.238 386.006C378.333 387.892 377.384 389.243 375.868 390.757C373.5 393.133 371.046 394.462 367.697 395.181C366.224 395.497 363.159 395.53 361.708 395.236C358.687 394.625 356.003 393.22 353.876 391.128C352.927 390.191 351.083 387.902 351.192 387.783C351.225 387.761 352.032 388.229 352.992 388.818C355.065 390.093 358.076 391.64 360.017 392.424C360.781 392.73 361.457 392.98 361.512 392.98C361.665 392.98 361.665 391.182 361.523 389.439C361.294 386.824 360.388 382.629 359.516 380.188C359.298 379.588 359.145 379.076 359.167 379.054C359.199 379.033 359.723 379.12 360.345 379.24C362.876 379.73 365.45 379.959 367.632 379.861C369.202 379.795 371.69 379.588 371.766 379.512C371.821 379.458 370.773 377.736 369.901 376.461C368.45 374.315 366.181 371.906 363.857 370.043C363.29 369.585 362.832 369.182 362.832 369.139C362.843 369.095 363.355 368.725 363.988 368.322C367.468 366.044 371.199 362.47 374.111 358.591C374.744 357.752 375.213 357.033 375.169 356.989C374.864 356.673 370.959 355.736 368.341 355.344C364.785 354.821 361.37 354.755 358.436 355.17C358.01 355.235 357.65 355.257 357.618 355.224C357.585 355.202 357.748 354.57 357.967 353.84C358.916 350.669 359.374 347.564 359.385 344.328C359.385 342.344 359.178 338.934 359.047 338.934C358.959 338.934 356.843 340.307 355.807 341.037C354.421 342.018 352.96 343.238 351.323 344.785C350.603 345.461 349.992 345.973 349.949 345.929C349.742 345.701 347.004 338.629 346.349 336.624C345.127 332.897 344.178 328.669 343.676 324.768C343.415 322.687 343.36 318.993 343.567 317.086C344.036 312.891 345.04 309.415 346.796 305.863C348.433 302.583 349.829 300.611 352.305 298.116C355.97 294.422 359.679 292.112 364.305 290.63C368.766 289.203 372.54 288.93 377.537 289.671C379.369 289.943 383.416 291.033 385.631 291.861C386.143 292.047 386.711 292.243 386.885 292.286C387.191 292.373 388.489 292.853 388.958 293.06C389.078 293.114 389.863 293.463 390.703 293.834C393.289 294.956 396.976 296.874 396.976 297.081C396.976 297.201 393.223 298.377 390.812 298.998C387.616 299.827 382.009 300.698 378.649 300.873C373.882 301.134 369.061 300.851 364.523 300.077C362.221 299.674 359.723 299.184 359.003 298.988C358.665 298.889 358.316 298.835 358.218 298.857C357.901 298.922 355.905 300.775 354.814 302.006C354.214 302.671 353.374 303.684 352.949 304.261C352.065 305.471 350.985 307.203 351.072 307.28C351.149 307.356 354.007 308.075 354.76 308.206C355.087 308.26 355.927 308.413 356.614 308.544C357.301 308.664 358.119 308.816 358.414 308.871C359.69 309.099 364.043 309.633 366.104 309.808C369.181 310.058 375.813 310.058 378.682 309.797C382.533 309.448 385.064 309.099 388.576 308.424C390.332 308.086 390.474 308.042 392.721 307.389C393.474 307.171 394.401 306.909 394.794 306.8C397.216 306.125 403.324 303.945 403.39 303.738C403.412 303.673 403.488 303.629 403.564 303.629C403.783 303.629 403.499 302.028 402.681 298.617C401.786 294.869 399.485 287.884 398.776 286.784C398.547 286.424 396.005 284.888 393.747 283.754C390.332 282.044 387.354 280.899 383.351 279.777C382.031 279.407 379.457 278.84 378.867 278.796C378.78 278.786 378.093 278.687 377.34 278.568C373.446 277.968 368.57 277.979 363.868 278.611C357.105 279.527 349.589 282.381 344.233 286.064C338.811 289.802 334.044 294.858 331.012 300.088C328.732 304.022 327.357 307.443 326.223 311.932C325.743 313.85 325.677 314.221 325.35 316.814C324.87 320.693 325.088 325.945 325.917 330.544C326.866 335.774 327.739 338.836 330.357 346.071C330.924 347.629 331.35 348.915 331.306 348.937C331.273 348.948 330.804 348.762 330.259 348.512C327.946 347.444 325.972 346.757 323.103 346.017C321.805 345.679 321.488 345.635 321.488 345.755C321.488 345.842 321.641 346.54 321.816 347.302C322.667 350.865 323.899 353.993 325.666 357C326.026 357.621 326.277 358.166 326.223 358.21C326.168 358.253 325.416 358.406 324.554 358.537C321.521 359.016 317.583 360.171 314.671 361.435C312.467 362.394 311.78 362.721 311.78 362.786C311.78 362.906 313.918 364.747 315.107 365.63C318.663 368.311 322.317 370.403 325.394 371.525C326.092 371.776 326.714 372.026 326.768 372.07C326.812 372.113 326.517 372.56 326.103 373.061C324.39 375.11 323.136 376.973 322.11 379C321.412 380.384 320.234 383.217 320.114 383.805L320.048 384.11L321.019 384.023C324.881 383.696 328.59 382.912 331.459 381.8C331.993 381.593 332.452 381.452 332.484 381.484C332.517 381.506 332.55 382.105 332.582 382.814C332.681 386.094 333.095 389.188 333.859 392.326C334.241 393.917 334.971 396.336 335.113 396.5C335.255 396.652 337.339 394.833 339.378 392.773C341.418 390.725 342.716 389.166 343.906 387.336C344.266 386.791 344.604 386.333 344.647 386.333C344.865 386.333 344.385 388.981 343.884 390.528C342.237 395.693 338.92 398.635 334.241 399.06C331.852 399.278 329.768 398.864 327.434 397.72C324.576 396.314 322.547 394.386 320.496 391.128L319.874 390.147L319.809 391.378C319.59 394.974 318.434 397.862 316.394 399.878C315.456 400.804 314.867 401.218 313.765 401.73C311.322 402.885 308.398 402.809 305.736 401.556C304.7 401.054 302.584 399.562 302.649 399.365C302.671 399.311 302.857 399.213 303.064 399.169C303.435 399.071 307.667 397.916 307.94 397.818C308.049 397.785 308.038 397.72 307.885 397.524C307.307 396.794 301.34 389.798 300.511 388.872C300.391 388.731 300.315 388.589 300.359 388.556C300.391 388.523 302.082 388.861 304.111 389.319C308.507 390.3 311.027 390.823 311.082 390.768C311.103 390.746 310.514 388.872 309.773 386.595C309.02 384.328 307.875 380.798 307.209 378.76C304.242 369.705 302.18 363.233 302.18 362.96C302.169 362.427 301.842 362.71 297.926 366.654C295.69 368.91 293.802 370.751 293.748 370.751C293.628 370.751 293.65 370.523 294.217 365.903C294.457 363.985 294.817 360.988 295.035 359.256C295.242 357.512 295.45 355.889 295.482 355.627C295.515 355.377 295.504 355.17 295.45 355.17C295.406 355.17 294.981 355.289 294.522 355.431C293.901 355.627 293.661 355.66 293.584 355.573C293.453 355.387 292.875 353.993 292.472 352.849C291.621 350.473 290.803 347.063 290.486 344.6C290.301 343.064 290.301 337.419 290.486 335.883C290.923 332.429 291.926 328.724 293.192 325.913C293.726 324.725 295.21 321.99 295.93 320.878C298.755 316.498 303.544 311.954 307.962 309.459C310.405 308.075 313.023 306.92 315.107 306.299C315.761 306.103 316.558 305.863 316.852 305.765C318.554 305.242 321.019 304.828 323.277 304.686L323.703 304.665L324.052 303.738C325.863 298.933 329.124 294.03 333.444 289.584C334.273 288.723 334.971 287.993 334.993 287.949C335.015 287.873 332.932 287.481 331.742 287.328C328.579 286.925 324.597 286.794 321.303 286.991C318.314 287.154 313.754 287.884 311.507 288.538C311.213 288.625 310.394 288.843 309.707 289.017C305.671 290.042 299.66 292.787 294.817 295.817C289.319 299.26 283.188 305.547 279.36 311.693C278.858 312.499 278.269 313.48 278.051 313.872C277.843 314.264 277.461 314.951 277.221 315.398C276.785 316.193 275.869 318.242 275.312 319.647C273.916 323.178 272.891 326.97 272.225 331.088C271.658 334.597 271.484 339.5 271.789 343.183C272.171 347.618 272.934 351.41 274.265 355.42C274.614 356.499 274.898 357.392 274.876 357.414C274.854 357.436 274.407 357.578 273.862 357.73C272.367 358.166 270 359.267 270 359.528C270 359.572 270.48 359.877 271.069 360.182C275.149 362.361 277.712 364.944 280.025 369.226C280.93 370.904 281.345 371.83 282.588 375.056C284.137 379.054 285.425 382.204 286.177 383.827C286.385 384.274 286.788 385.178 287.072 385.843C287.836 387.63 290.366 392.697 291.414 394.56C295.384 401.632 298.526 405.827 302.06 408.78C302.671 409.281 303.162 409.728 303.162 409.761C303.162 409.793 302.835 410.098 302.442 410.425C301.166 411.482 300.664 412.507 300.577 414.283C300.457 416.549 301.286 418.216 302.998 419.164C303.424 419.404 303.446 419.437 303.664 420.439C305.071 426.607 305.955 430.137 307.373 435.204C307.755 436.577 308.333 438.669 308.66 439.835L309.238 441.96L308.594 442.657C307.373 443.997 306.751 445.773 306.969 447.364C307.384 450.47 309.456 452.3 314.398 453.935C321.543 456.299 335.342 458.751 349.36 460.146C358.698 461.083 368.395 461.758 378.104 462.172C379.577 462.227 381.758 462.336 382.958 462.39C385.216 462.499 394.063 462.826 401.503 463.066C408.517 463.295 435.657 463.24 441.374 462.99C442.006 462.968 443.523 462.913 444.755 462.881C446.959 462.815 451.017 462.663 453.264 462.554C453.897 462.532 455.151 462.478 456.046 462.445C457.78 462.379 464.903 462.031 468.372 461.846C474.852 461.497 477.765 461.29 486.48 460.538C490.386 460.2 495.371 459.699 497.782 459.394C500.749 459.023 503.269 458.696 504.098 458.577C504.49 458.511 505.374 458.391 506.061 458.304C507.185 458.152 509.443 457.781 513.043 457.16C518.464 456.212 525.217 454.512 528.424 453.27C530.431 452.496 532.569 450.906 533.3 449.642C534.009 448.421 534.14 446.558 533.616 445.011C533.278 444.008 533.06 443.638 532.329 442.755L531.806 442.123L532.362 440.031C532.667 438.876 533.147 437.089 533.442 436.076C533.725 435.051 534.784 430.9 535.787 426.846L537.62 419.469L538.252 419.077C539.365 418.391 540.063 417.345 540.38 415.884C540.652 414.577 540.5 413.28 539.911 412.082C539.616 411.471 538.612 410.338 538.023 409.946L537.751 409.772L538.46 409.14C540.565 407.287 542.845 404.868 544.361 402.874C545.256 401.708 547.514 398.254 548.659 396.304C549.739 394.473 553.35 387.216 554.517 384.535C555.303 382.737 557.222 377.998 558.913 373.693C560.528 369.596 562.088 366.807 563.899 364.791C565.546 362.95 567.018 361.849 570.465 359.909L571 359.604L570.738 359.397C570.291 359.049 568.131 358.024 567.095 357.687C566.495 357.48 566.124 357.305 566.135 357.218C566.146 357.142 566.451 356.216 566.811 355.17C568.556 350.07 569.364 344.524 569.266 338.444C569.167 332.418 568.131 326.828 565.949 320.682C564.313 316.051 561.335 310.897 557.681 306.354C554.375 302.246 550.056 298.366 545.768 295.664C538.056 290.783 530.595 288.135 521.661 287.121C518.388 286.751 513.392 286.805 510.097 287.23C508.134 287.492 506.465 287.732 506.203 287.797C505.985 287.851 506.116 288.026 507.403 289.399C509.803 291.97 510.73 293.071 512.028 294.858C512.792 295.926 513.25 296.645 514.646 298.966C515.432 300.295 516.763 303.15 517.221 304.512C517.264 304.643 517.592 304.708 518.726 304.817C524.857 305.384 531.326 307.89 536.278 311.616C538.492 313.273 540.423 315.027 541.787 316.596C545.878 321.336 548.07 325.488 549.576 331.426C551.343 338.335 550.852 346.354 548.234 353.383C547.568 355.17 547.328 355.714 547.176 355.714C547.099 355.714 546.707 355.605 546.292 355.475C545.888 355.344 545.539 355.257 545.518 355.289C545.496 355.311 545.583 356.259 545.725 357.403C545.856 358.537 546.052 360.182 546.15 361.054C546.248 361.925 546.543 364.421 546.816 366.6C547.078 368.79 547.285 370.621 547.263 370.686C547.241 370.751 545.354 368.943 543.063 366.676C540.445 364.083 538.885 362.601 538.852 362.699C538.82 362.786 538.536 363.756 538.198 364.867C537.467 367.363 534.522 376.559 531.871 384.644C530.769 388 529.886 390.757 529.886 390.768C529.918 390.812 536.093 389.559 538.427 389.047C539.583 388.785 540.554 388.611 540.598 388.643C540.631 388.687 539.954 389.537 539.092 390.55C535.133 395.17 533.104 397.578 533.049 397.698C533.016 397.785 533.878 398.08 535.733 398.592C537.293 399.017 538.449 399.398 538.427 399.464C538.351 399.692 536.409 401.065 535.569 401.479C534.085 402.209 532.962 402.482 531.195 402.536C529.886 402.591 529.537 402.558 528.74 402.362C527.54 402.068 526.046 401.316 525.129 400.553C522.882 398.679 521.311 395.061 521.126 391.302L521.061 389.995L520.308 391.302C519.304 393.046 518.693 393.841 517.493 395.007C515.792 396.63 513.959 397.742 511.723 398.472C510.25 398.951 509.159 399.115 507.479 399.104C505.865 399.104 504.523 398.799 503.018 398.091C501.262 397.273 500.193 396.38 499.113 394.811C497.76 392.86 496.647 389.82 496.353 387.27C496.298 386.802 496.222 386.322 496.189 386.213C496.069 385.832 496.342 386.006 496.571 386.442C496.942 387.161 498.72 389.591 499.865 390.943C501.12 392.403 502.669 393.917 504.512 395.465C506.039 396.75 505.832 396.805 506.378 395.029C506.901 393.34 507.654 390.082 507.861 388.622C507.905 388.349 507.959 387.979 507.981 387.804C508.156 386.736 508.254 385.603 508.319 383.685C508.363 382.247 508.428 381.539 508.505 381.539C508.57 381.539 508.887 381.637 509.203 381.757C509.759 381.975 510.643 382.247 512.552 382.803C515.072 383.533 520.788 384.328 520.788 383.958C520.788 383.784 520.264 382.356 519.752 381.103C518.519 378.085 517.046 375.622 514.897 372.931C514.548 372.484 514.286 372.081 514.33 372.048C514.374 372.015 515.006 371.754 515.748 371.471C519.872 369.88 524.922 366.687 528.751 363.255L529.242 362.819L527.824 362.143C524.017 360.324 520.439 359.201 516.534 358.591C514.254 358.231 514.395 358.275 514.614 357.97C515.105 357.283 516.403 354.908 516.981 353.622C518.115 351.16 519.075 348.12 519.326 346.245L519.402 345.668L519.032 345.744C516.501 346.267 513.872 347.106 511.428 348.196C510.457 348.632 509.628 348.959 509.585 348.926C509.508 348.85 509.857 347.814 510.807 345.308C512.923 339.718 514.635 333.529 515.268 329.236C515.934 324.725 515.977 319.309 515.377 315.289C514.734 310.952 512.574 304.73 510.468 301.156C510.141 300.6 509.879 300.132 509.879 300.099C509.879 299.925 508.079 297.277 506.869 295.675C505.396 293.725 504.098 292.232 502.832 291.022C499.123 287.47 495.404 284.844 491.389 282.926C486.513 280.605 481.615 279.112 476.881 278.524C473.794 278.132 470.085 277.99 467.39 278.154ZM467.609 278.677C467.565 278.829 467.587 278.895 467.696 278.895C467.783 278.895 467.881 278.993 467.914 279.112C467.98 279.352 467.783 279.407 467.576 279.2C467.434 279.058 467.401 278.655 467.521 278.535C467.652 278.404 467.674 278.459 467.609 278.677ZM368.068 278.786C368.068 278.84 368.013 278.895 367.948 278.895C367.893 278.895 367.872 278.84 367.904 278.786C367.937 278.72 367.992 278.677 368.024 278.677C368.046 278.677 368.068 278.72 368.068 278.786ZM470.499 279.003C470.499 279.058 470.456 279.112 470.39 279.112C470.336 279.112 470.281 279.058 470.281 279.003C470.281 278.938 470.336 278.895 470.39 278.895C470.456 278.895 470.499 278.938 470.499 279.003ZM433.41 279.81C433.41 279.843 433.367 279.897 433.301 279.93C433.247 279.962 433.192 279.941 433.192 279.886C433.192 279.821 433.247 279.766 433.301 279.766C433.367 279.766 433.41 279.788 433.41 279.81ZM436.683 280.573C436.683 280.692 436.476 280.736 436.41 280.638C436.377 280.583 436.421 280.529 436.508 280.529C436.606 280.529 436.683 280.551 436.683 280.573ZM432.647 282.054C432.647 282.109 432.592 282.163 432.527 282.163C432.472 282.163 432.45 282.109 432.483 282.054C432.516 281.989 432.57 281.946 432.603 281.946C432.625 281.946 432.647 281.989 432.647 282.054ZM373.522 283.329C373.522 283.46 373.5 283.46 373.359 283.318C373.271 283.231 373.195 283.133 373.195 283.101C373.195 283.068 373.271 283.068 373.359 283.101C373.446 283.144 373.522 283.242 373.522 283.329ZM467.99 283.253C467.99 283.308 467.936 283.362 467.87 283.362C467.816 283.362 467.794 283.308 467.827 283.253C467.86 283.188 467.914 283.144 467.947 283.144C467.969 283.144 467.99 283.188 467.99 283.253ZM366.104 283.711C366.104 283.776 366.039 283.765 365.941 283.689C365.854 283.613 365.777 283.536 365.777 283.515C365.777 283.493 365.854 283.504 365.941 283.536C366.028 283.58 366.104 283.656 366.104 283.711ZM433.465 283.907C433.498 283.961 433.487 284.016 433.421 284.016C433.367 284.016 433.279 283.961 433.247 283.907C433.214 283.841 433.225 283.798 433.29 283.798C433.345 283.798 433.432 283.841 433.465 283.907ZM447.81 285.432C447.81 285.487 447.755 285.541 447.69 285.541C447.635 285.541 447.613 285.487 447.646 285.432C447.679 285.367 447.733 285.323 447.766 285.323C447.788 285.323 447.81 285.367 447.81 285.432ZM454.9 287.067C454.9 287.121 454.857 287.176 454.791 287.176C454.737 287.176 454.682 287.121 454.682 287.067C454.682 287.001 454.737 286.958 454.791 286.958C454.857 286.958 454.9 287.001 454.9 287.067ZM392.394 287.176C392.394 287.23 392.34 287.285 392.274 287.285C392.22 287.285 392.198 287.23 392.23 287.176C392.263 287.11 392.318 287.067 392.35 287.067C392.372 287.067 392.394 287.11 392.394 287.176ZM432.21 291.207C432.21 291.262 432.189 291.316 432.167 291.316C432.134 291.316 432.079 291.262 432.047 291.207C432.014 291.142 432.036 291.099 432.09 291.099C432.156 291.099 432.21 291.142 432.21 291.207ZM502.407 292.079C502.44 292.134 502.418 292.188 502.363 292.188C502.298 292.188 502.243 292.134 502.243 292.079C502.243 292.014 502.265 291.97 502.287 291.97C502.32 291.97 502.374 292.014 502.407 292.079ZM325.786 294.869C325.819 294.956 325.808 294.999 325.743 294.967C325.677 294.934 325.634 294.858 325.634 294.792C325.634 294.64 325.71 294.673 325.786 294.869ZM442.246 295.893C442.246 295.947 442.224 296.002 442.203 296.002C442.17 296.002 442.115 295.947 442.083 295.893C442.05 295.828 442.072 295.784 442.126 295.784C442.192 295.784 442.246 295.828 442.246 295.893ZM416.502 297.418C416.502 297.473 416.48 297.527 416.458 297.527C416.426 297.527 416.371 297.473 416.338 297.418C416.306 297.353 416.327 297.309 416.382 297.309C416.447 297.309 416.502 297.353 416.502 297.418ZM500.443 297.429C500.563 297.615 500.432 297.658 500.28 297.473C500.193 297.375 500.193 297.309 500.258 297.309C500.323 297.309 500.411 297.364 500.443 297.429ZM308.965 299.946C308.878 300.034 308.867 299.99 308.911 299.805C308.954 299.663 308.998 299.609 309.031 299.696C309.053 299.772 309.02 299.892 308.965 299.946ZM309.925 299.816C309.925 299.87 309.871 299.925 309.805 299.925C309.751 299.925 309.729 299.87 309.762 299.816C309.794 299.75 309.849 299.707 309.882 299.707C309.904 299.707 309.925 299.75 309.925 299.816ZM416.502 300.034C416.502 300.088 416.48 300.143 416.458 300.143C416.426 300.143 416.371 300.088 416.338 300.034C416.306 299.968 416.327 299.925 416.382 299.925C416.447 299.925 416.502 299.968 416.502 300.034ZM373.631 303.455C373.631 303.488 373.588 303.542 373.522 303.575C373.468 303.608 373.413 303.586 373.413 303.531C373.413 303.466 373.468 303.411 373.522 303.411C373.588 303.411 373.631 303.433 373.631 303.455ZM441.668 303.869C441.635 303.956 441.603 303.924 441.603 303.804C441.592 303.684 441.624 303.619 441.657 303.662C441.69 303.695 441.701 303.793 441.668 303.869ZM319.852 303.847C319.852 303.902 319.798 303.956 319.732 303.956C319.678 303.956 319.656 303.902 319.689 303.847C319.721 303.782 319.776 303.738 319.809 303.738C319.83 303.738 319.852 303.782 319.852 303.847ZM442.301 304.065C442.333 304.12 442.312 304.174 442.257 304.174C442.192 304.174 442.137 304.12 442.137 304.065C442.137 304 442.159 303.956 442.181 303.956C442.213 303.956 442.268 304 442.301 304.065ZM374.177 304.447C374.177 304.534 374.155 304.61 374.133 304.61C374.111 304.61 374.068 304.534 374.024 304.447C373.991 304.359 374.013 304.283 374.068 304.283C374.133 304.283 374.177 304.359 374.177 304.447ZM442.792 304.588C442.792 304.643 442.715 304.686 442.628 304.686C442.541 304.686 442.497 304.643 442.53 304.588C442.563 304.545 442.628 304.501 442.693 304.501C442.748 304.501 442.792 304.545 442.792 304.588ZM479.772 305.929C479.772 305.983 479.728 306.027 479.663 306.027C479.608 306.027 479.554 305.95 479.554 305.852C479.554 305.765 479.608 305.722 479.663 305.754C479.728 305.787 479.772 305.863 479.772 305.929ZM332.648 305.972C332.615 306.07 332.561 306.125 332.539 306.092C332.506 306.059 332.517 305.994 332.561 305.929C332.659 305.754 332.724 305.787 332.648 305.972ZM427.138 307.116C427.171 307.182 427.127 307.193 427.04 307.16C426.843 307.084 426.811 307.007 426.963 307.007C427.029 307.007 427.105 307.051 427.138 307.116ZM451.955 307.225C451.955 307.28 451.878 307.334 451.78 307.334C451.693 307.334 451.649 307.28 451.682 307.225C451.715 307.16 451.791 307.116 451.857 307.116C451.911 307.116 451.955 307.16 451.955 307.225ZM463.845 308.969C463.845 309.023 463.823 309.078 463.802 309.078C463.769 309.078 463.714 309.023 463.682 308.969C463.649 308.903 463.671 308.86 463.725 308.86C463.791 308.86 463.845 308.903 463.845 308.969ZM415.302 316.705C415.302 316.76 415.248 316.814 415.182 316.814C415.128 316.814 415.106 316.76 415.138 316.705C415.171 316.64 415.226 316.596 415.258 316.596C415.28 316.596 415.302 316.64 415.302 316.705ZM337.579 317.032C337.611 317.086 337.589 317.141 337.535 317.141C337.469 317.141 337.415 317.086 337.415 317.032C337.415 316.967 337.437 316.923 337.459 316.923C337.491 316.923 337.546 316.967 337.579 317.032ZM424.52 318.449C424.662 318.514 424.683 318.547 424.574 318.547C424.487 318.547 424.334 318.503 424.247 318.449C424.051 318.318 424.225 318.318 424.52 318.449ZM340.906 318.666C340.906 318.721 340.851 318.775 340.786 318.775C340.731 318.775 340.709 318.721 340.742 318.666C340.775 318.601 340.829 318.558 340.862 318.558C340.884 318.558 340.906 318.601 340.906 318.666ZM340.142 320.083C340.142 320.137 340.098 320.192 340.044 320.192C339.978 320.192 339.902 320.137 339.869 320.083C339.837 320.018 339.88 319.974 339.968 319.974C340.066 319.974 340.142 320.018 340.142 320.083ZM505.461 320.083C505.494 320.148 505.45 320.159 505.363 320.127C505.167 320.05 505.134 319.974 505.287 319.974C505.352 319.974 505.429 320.018 505.461 320.083ZM339.215 340.296C341.484 343.107 343.622 346.343 344.92 348.959C345.662 350.43 345.76 350.702 345.749 351.192C345.727 351.879 344.407 359.114 344.276 359.245C344.222 359.299 344.167 359.332 344.146 359.299C344.124 359.277 343.676 358.112 343.153 356.706C342.291 354.385 340.731 350.713 340.306 349.961C340.142 349.689 340.131 349.896 340.186 352.663C340.229 355.268 340.469 358.853 340.633 359.604C340.677 359.768 340.644 359.855 340.546 359.855C340.382 359.855 337.655 355.791 336.335 353.6L335.56 352.304V351.149C335.56 349.166 335.8 346.899 336.28 344.437C336.564 342.987 337.579 338.901 337.709 338.683C337.786 338.563 337.928 338.716 339.215 340.296ZM503.531 339.773C504.174 341.985 504.763 344.763 505.069 346.997C505.145 347.509 505.243 348.218 505.298 348.577C505.352 348.937 505.44 349.928 505.472 350.767L505.549 352.304L505.189 352.947C504.829 353.579 502.003 357.861 501.076 359.169C500.803 359.55 500.542 359.855 500.476 359.855C500.378 359.855 500.422 358.515 500.563 357.24C500.738 355.584 500.825 354.178 500.88 352.042L500.945 349.558L500.651 350.103C500.16 351.018 497.116 358.319 497.116 358.591C497.116 358.711 496.767 359.441 496.734 359.397C496.68 359.343 496.375 357.861 496.091 356.259C495.753 354.352 495.349 351.497 495.36 350.996C495.382 349.776 497.651 345.722 500.378 342.039C501.436 340.612 503.04 338.607 503.127 338.607C503.171 338.607 503.345 339.13 503.531 339.773ZM356.723 344.753C356.723 347.477 356.09 350.963 355.021 354.167C354.345 356.161 354.116 356.532 353.036 357.414C352.109 358.166 348.52 360.923 348.236 361.097C348.16 361.141 347.909 361.032 347.614 360.825C347.2 360.52 347.124 360.422 347.167 360.193C347.2 360.029 347.473 358.188 347.778 356.096C348.4 351.857 348.269 352.238 349.534 350.582C350.472 349.34 352.218 347.466 353.56 346.245C354.847 345.079 356.494 343.728 356.636 343.728C356.679 343.728 356.723 344.186 356.723 344.753ZM485.695 344.785C488.029 346.649 490.68 349.362 492.131 351.388C492.644 352.097 492.753 352.326 492.807 352.859C493.026 354.745 493.713 360.018 493.789 360.367C493.833 360.563 493.756 360.672 493.396 360.912L492.96 361.206L492.611 360.999C491.749 360.487 487.942 357.567 487.299 356.924C486.6 356.226 486.568 356.161 486.12 354.843C485.324 352.456 484.604 349.198 484.364 346.834C484.135 344.644 484.102 343.728 484.233 343.728C484.31 343.728 484.964 344.208 485.695 344.785ZM425.153 352.74L425.131 358.874L431.261 358.896L437.381 358.929L437.348 363.505C437.337 366.022 437.305 368.093 437.294 368.104C437.283 368.125 434.556 368.147 431.239 368.158L425.207 368.191L425.174 373.639C425.153 376.635 425.131 379.272 425.131 379.501L425.12 379.904L420.407 379.883L415.684 379.85L415.629 374.02L415.575 368.191H409.575H403.575L403.543 363.527L403.521 358.874H409.575H415.629V352.794C415.629 349.449 415.662 346.67 415.706 346.638C415.738 346.594 417.887 346.572 420.473 346.583L425.174 346.616L425.153 352.74ZM515.388 350.539C514.603 352.631 513.632 354.494 512.323 356.477C511.145 358.242 511.276 358.155 507.698 359.888C504.043 361.664 502.811 362.252 502.734 362.252C502.571 362.252 502.767 361.86 503.574 360.629C504.501 359.201 505.603 357.36 507.098 354.734C507.578 353.895 508.09 353.088 508.243 352.936C508.538 352.652 510.294 351.65 511.69 350.963C513.021 350.31 515.595 349.307 515.694 349.394C515.748 349.438 515.606 349.95 515.388 350.539ZM326.757 349.896C328.939 350.724 332.157 352.435 332.757 353.088C332.899 353.241 333.619 354.374 334.361 355.605C335.102 356.837 336.291 358.776 337 359.92C338.124 361.74 338.397 362.252 338.255 362.252C338.233 362.252 336.913 361.631 335.331 360.879C329.583 358.144 330.095 358.428 329.386 357.599C328.59 356.651 327.957 355.671 327.095 354.025C326.485 352.87 325.197 349.787 325.197 349.503C325.197 349.329 325.35 349.373 326.757 349.896ZM365.504 357.621C366.923 357.774 368.69 358.057 370.021 358.34C370.326 358.406 370.577 358.515 370.577 358.591C370.577 358.798 368.81 360.738 367.293 362.198C364.948 364.442 363.323 365.728 361.305 366.916L360.279 367.526L358.218 367.384C355.949 367.243 351.574 366.85 351.52 366.785C351.498 366.763 352.501 366.229 353.767 365.597C356.156 364.399 360.508 362.067 360.585 361.936C360.65 361.827 353.32 362.634 351.814 362.895C351.127 363.015 350.527 363.08 350.483 363.037C350.418 362.96 354.345 359.735 355.392 359.005C356.352 358.34 356.898 358.122 358.207 357.883C360.716 357.436 362.996 357.36 365.504 357.621ZM481.015 357.643C484.528 358.09 484.626 358.144 488.368 361.25C489.426 362.132 490.418 362.939 490.56 363.037C490.713 363.146 490.8 363.255 490.768 363.287C490.735 363.331 490.091 363.233 489.349 363.08C486.906 362.579 485.281 362.339 481.844 361.98C480.535 361.838 480.175 361.838 480.328 361.969C480.743 362.318 488.313 366.24 489.033 366.491C489.262 366.567 489.371 366.654 489.306 366.709C489.218 366.796 487.648 366.97 484.681 367.221C484.288 367.243 483.557 367.319 483.044 367.374C481.364 367.57 480.59 367.515 480.012 367.199C477.928 366.033 475.637 364.235 473.336 361.925C472.648 361.239 471.83 360.378 471.536 360.029C471.23 359.67 470.859 359.234 470.696 359.049C470.183 358.482 470.107 358.526 472.517 358.046C473.161 357.915 474.59 357.719 476.281 357.523C477.077 357.436 479.946 357.501 481.015 357.643ZM332.626 362.612C334.524 363.549 336.139 364.388 336.204 364.464C336.302 364.595 335.571 364.628 331.819 364.693C329.353 364.737 327.085 364.802 326.779 364.846L326.234 364.922L327.215 365.292C329.004 365.957 331.993 366.916 333.706 367.384C334.633 367.635 335.44 367.864 335.495 367.897C335.55 367.929 335.484 367.995 335.342 368.049C334.884 368.213 329.408 369.651 328.961 369.716C328.612 369.771 328.252 369.694 327.215 369.335C325.863 368.866 322.972 367.526 321.434 366.643C319.721 365.663 316.907 363.68 316.907 363.451C316.907 363.2 321.412 361.86 324.019 361.337C325.994 360.934 326.725 360.847 328.034 360.868L329.179 360.89L332.626 362.612ZM515.934 361.152C519.01 361.696 524.3 363.255 524.104 363.571C524.071 363.625 523.548 364.017 522.937 364.453C519.359 366.981 513.632 369.771 512.006 369.771C511.821 369.771 510.927 369.575 510.032 369.335C509.138 369.095 507.73 368.714 506.912 368.485C506.083 368.267 505.407 368.049 505.407 368.006C505.407 367.962 505.69 367.853 506.039 367.755C507.643 367.308 509.781 366.643 511.679 365.99C512.825 365.608 513.937 365.238 514.166 365.172C514.385 365.107 514.57 365.02 514.57 364.976C514.57 364.824 512.214 364.715 508.494 364.715C506.443 364.704 504.741 364.671 504.709 364.639C504.6 364.53 510.327 361.5 511.734 360.901C512.05 360.77 514.635 360.934 515.934 361.152ZM345.411 362.579C347.331 363.298 348.542 365.053 348.542 367.112C348.542 369.662 346.884 371.634 344.429 371.983C342.313 372.288 340.349 371.264 339.411 369.357C338.997 368.529 338.997 368.518 338.997 367.166C338.997 365.848 339.008 365.761 339.346 365.053C339.968 363.745 341.32 362.644 342.651 362.361C343.371 362.209 344.713 362.318 345.411 362.579ZM498.883 362.579C499.723 362.895 500.705 363.636 501.131 364.268C503.378 367.657 501.109 372.048 497.105 372.059C494.411 372.059 492.317 369.912 492.317 367.145C492.317 365.227 493.309 363.625 495.044 362.732C496.08 362.209 497.727 362.132 498.883 362.579ZM354.018 369.716C357.203 369.978 359.134 370.207 359.516 370.37C360.519 370.784 363.355 372.931 364.795 374.358C365.635 375.186 367.086 376.919 367.086 377.093C367.086 377.289 364.206 377.115 361.905 376.788C361.25 376.701 360.094 376.483 359.352 376.298C357.792 375.927 358.032 376.08 354.727 373.334C352.131 371.165 350.887 370.076 350.898 369.967C350.909 369.923 350.92 369.803 350.931 369.716C350.942 369.509 351.432 369.509 354.018 369.716ZM489.993 369.738C490.048 369.869 489.786 370.185 489 370.937C487.2 372.647 483.382 375.786 482.87 375.982C482.15 376.265 479.444 376.777 477.808 376.951C476.314 377.115 473.881 377.224 473.881 377.137C473.881 376.886 474.95 375.666 476.554 374.075C477.917 372.713 479.357 371.558 480.753 370.719C481.517 370.25 481.648 370.207 482.662 370.109C483.819 369.989 485.804 369.825 487.517 369.705C488.084 369.673 488.575 369.618 488.597 369.596C488.619 369.575 488.935 369.553 489.284 369.553C489.786 369.553 489.938 369.596 489.993 369.738ZM337.208 370.882C337.339 371.144 337.513 371.438 337.6 371.536C337.753 371.71 337.6 371.961 335.942 374.358C333.139 378.412 333.521 378.008 331.95 378.695C330.215 379.458 328.154 380.122 326.212 380.547C323.986 381.038 324.096 381.103 324.805 379.708C326.255 376.875 329.43 372.898 330.728 372.266C331.208 372.037 336.52 370.435 336.837 370.425C336.913 370.425 337.077 370.632 337.208 370.882ZM506.541 371.187C507.839 371.547 509.301 371.994 509.792 372.179C510.621 372.495 510.785 372.604 511.734 373.574C513.348 375.197 515.137 377.671 516.152 379.697C516.479 380.34 516.719 380.885 516.686 380.918C516.577 381.027 512.574 380.057 511.407 379.632C510.501 379.305 508.647 378.531 508.09 378.248C507.861 378.128 507.523 377.878 507.349 377.692C506.956 377.257 503.334 371.896 503.334 371.732C503.334 371.514 503.923 370.533 504.054 370.533C504.131 370.533 505.254 370.828 506.541 371.187ZM491.727 372.8C490.44 375.339 489.066 378.303 488.379 380.035C488.259 380.329 488.073 380.809 487.953 381.114L487.724 381.67L488.28 381.212C488.968 380.634 491.084 378.39 492.971 376.232C493.767 375.317 494.455 374.587 494.498 374.62C494.531 374.641 494.531 375.001 494.487 375.404C494.444 375.807 494.302 377.126 494.171 378.324C494.051 379.523 493.887 380.634 493.822 380.798C493.702 381.125 491.477 383.173 490.309 384.045C487.833 385.887 482.902 388.839 482.302 388.839C482.193 388.839 482.172 388.731 482.215 388.425C482.248 388.207 482.324 387.652 482.379 387.205C482.499 386.344 482.51 386.29 483.044 384.154C483.459 382.52 484.724 378.63 485.073 377.943C485.324 377.442 485.433 377.344 488.771 374.707C491.869 372.255 492.066 372.135 491.727 372.8ZM350.102 373.116C350.745 373.606 353.331 375.655 354.912 376.93C355.763 377.616 355.959 377.976 356.778 380.362C357.574 382.672 358.108 384.666 358.403 386.464C358.785 388.796 358.785 388.796 358.523 388.752C358.087 388.676 355.196 387.042 353.363 385.821C350.331 383.805 347.189 381.245 347.08 380.678C346.884 379.752 346.414 374.914 346.502 374.827C346.534 374.783 346.971 375.197 347.473 375.72C348.847 377.213 353.047 381.43 353.101 381.386C353.189 381.288 351.607 377.638 350.44 375.23C349.753 373.824 349.196 372.669 349.196 372.647C349.196 372.506 349.523 372.669 350.102 373.116ZM340 374.369C339.957 374.75 339.804 376.134 339.662 377.453C339.324 380.395 339.128 382.683 339.182 382.846C339.237 383.032 341.244 379.392 342.444 376.93C342.989 375.796 343.48 374.914 343.524 374.968C343.611 375.056 344.124 379 344.244 380.504C344.309 381.365 344.309 381.386 343.873 382.258C343 384.034 341.713 385.996 340.186 387.892C339.084 389.275 336.793 391.673 336.597 391.673C336.499 391.673 336.368 391.302 336.226 390.659C335.659 388.12 335.342 385.167 335.342 382.182V380.057L336.411 378.477C338.266 375.742 339.782 373.693 339.957 373.693C340.022 373.693 340.044 373.944 340 374.369ZM501.272 374.042C501.414 374.238 502.003 375.034 502.581 375.818C503.16 376.592 504.065 377.867 504.6 378.651L505.57 380.068L505.603 381.757C505.625 382.683 505.592 384.209 505.527 385.135C505.374 387.151 505.363 387.227 505.003 389.384C504.85 390.311 504.698 391.237 504.676 391.422C504.643 391.618 504.556 391.782 504.49 391.782C504.25 391.782 501.916 389.264 500.585 387.586C499.287 385.93 497.694 383.424 496.887 381.735C496.647 381.223 496.636 381.19 496.778 379.937C496.854 379.229 497.007 378.008 497.127 377.235C497.236 376.45 497.334 375.579 497.334 375.295C497.334 375.001 497.378 374.783 497.433 374.805C497.487 374.816 498.164 376.091 498.938 377.616C500.476 380.678 501.84 383.119 501.905 382.934C501.982 382.716 501.229 376.33 501 375.241C500.967 375.099 500.912 374.685 500.869 374.336C500.782 373.595 500.902 373.508 501.272 374.042ZM433.356 400.978C435.581 401.022 438.036 401.065 438.81 401.098C439.595 401.131 441.068 401.174 442.083 401.207C446.915 401.359 454.977 401.719 456.646 401.861C456.973 401.883 457.736 401.937 458.336 401.97C458.936 402.002 459.722 402.057 460.082 402.079C460.442 402.111 461.576 402.188 462.591 402.242C470.674 402.722 472.07 402.841 484.135 404.04C490.538 404.672 491.946 404.825 494.062 405.13C494.629 405.206 495.415 405.304 495.807 405.348C496.745 405.457 496.865 405.467 498.262 405.664C498.927 405.751 500.443 405.958 501.643 406.11C502.843 406.263 504.436 406.492 505.189 406.601C505.941 406.721 507.392 406.938 508.407 407.091C512.061 407.647 515.083 408.137 516.697 408.453C517.603 408.627 519.141 408.922 520.133 409.107C526.253 410.273 534.238 412.06 535.7 412.616C536.365 412.855 536.987 413.509 537.063 414.032C537.129 414.479 536.976 415.274 536.736 415.754C536.278 416.636 535.351 416.843 533.769 416.397C531.664 415.819 524.66 414.272 520.297 413.422C516.752 412.735 509.29 411.537 505.68 411.068C504.72 410.948 503.105 410.73 502.08 410.578C498.6 410.077 495.687 409.728 492.153 409.379C490.004 409.161 487.44 408.9 487.004 408.834C486.535 408.769 484.026 408.486 483.153 408.399C482.761 408.366 482.008 408.29 481.463 408.235C480.601 408.137 474.786 407.679 472.463 407.527C471.481 407.461 469.987 407.342 465.645 406.982C462.045 406.688 458.26 406.426 456.318 406.328C455.631 406.296 454.649 406.241 454.137 406.219C453.624 406.187 451.737 406.121 449.937 406.056C448.137 406.001 446.173 405.925 445.573 405.892C444.973 405.871 443.697 405.816 442.737 405.783C441.777 405.751 440.359 405.707 439.574 405.674C425.6 405.173 409.87 405.25 395.558 405.892C393.605 405.98 390.911 406.11 389.558 406.165C386.591 406.296 380.067 406.666 377.886 406.819C370.25 407.363 357.803 408.399 355.469 408.671C354.989 408.725 353.592 408.878 352.36 408.998C342.051 410.022 327.008 412.158 319.798 413.618C315.86 414.413 313.012 415.035 309.707 415.819C305.813 416.734 305.235 416.789 304.689 416.342C303.751 415.547 303.598 413.988 304.373 413.182C304.842 412.703 305.42 412.496 308.104 411.842C316.514 409.782 329.103 407.483 340.36 405.958C347.942 404.923 348.356 404.879 365.723 403.168C368.057 402.939 372.573 402.591 374.995 402.46C376.14 402.395 378.202 402.275 379.577 402.188C383.089 401.97 389.951 401.61 393.321 401.479C394.881 401.425 396.572 401.349 397.085 401.316C403.008 400.967 421.64 400.793 433.356 400.978ZM423.593 413.03V416.734L427.498 416.756L431.392 416.789L431.425 419.883L431.447 422.978L427.52 422.924L423.593 422.858V426.661V430.464H420.429H417.266V426.65V422.836L413.371 422.869L409.466 422.891V419.84V416.789L413.371 416.756L417.266 416.734L417.277 414.141C417.287 411.787 417.309 410.425 417.353 409.63L417.375 409.336L418.607 409.303C419.273 409.281 420.68 409.281 421.716 409.303L423.593 409.336V413.03ZM388.303 413.247C388.991 415.013 389.58 416.516 389.634 416.593C389.7 416.68 390.627 416.506 393.158 415.917C395.045 415.47 396.627 415.143 396.67 415.187C396.714 415.231 395.721 416.484 394.467 417.977L392.187 420.679L394.161 422.825C395.252 424.002 396.343 425.168 396.583 425.419C396.823 425.68 396.987 425.909 396.954 425.942C396.921 425.985 395.918 425.866 394.729 425.68C391.576 425.201 389.983 424.994 389.929 425.048C389.874 425.103 387.791 431.216 387.671 431.662C387.627 431.837 387.562 431.891 387.496 431.826C387.431 431.761 386.842 430.246 386.176 428.459C385.522 426.661 384.965 425.19 384.954 425.168C384.933 425.157 383.449 425.462 381.649 425.844C377.962 426.617 378.213 426.574 378.213 426.432C378.213 426.345 380.024 424.024 381.867 421.747L382.445 421.049L380.951 419.426C377.668 415.819 377.428 415.525 377.973 415.688C378.082 415.721 379.555 415.972 381.267 416.244C382.98 416.516 384.464 416.767 384.562 416.8C384.714 416.843 384.856 416.484 385.456 414.642C385.838 413.422 386.329 411.875 386.525 411.21C386.722 410.534 386.929 409.989 386.983 410.011C387.038 410.033 387.627 411.482 388.303 413.247ZM454.137 410.218C454.137 410.327 456.198 416.756 456.253 416.8C456.253 416.811 457.616 416.604 459.264 416.342C462.852 415.765 463.409 415.699 463.409 415.808C463.409 415.863 463.082 416.244 462.667 416.669C461.631 417.77 459.362 420.199 458.958 420.657L458.631 421.049L460.747 423.73C461.914 425.212 462.863 426.476 462.863 426.541C462.863 426.607 462.776 426.639 462.678 426.607C461.947 426.399 460.529 426.083 457.267 425.408L456.078 425.168L455.991 425.386C455.947 425.517 455.696 426.127 455.456 426.748C455.206 427.369 454.682 428.742 454.278 429.799C453.493 431.913 453.427 432.066 453.34 431.924C453.286 431.826 451.977 427.794 451.442 426.051C451.289 425.571 451.137 425.146 451.093 425.114C451.039 425.048 450.024 425.168 445.901 425.724C445.181 425.822 444.482 425.92 444.352 425.964C444.21 425.996 444.101 425.985 444.101 425.942C444.101 425.833 444.886 424.939 447.035 422.629C447.995 421.583 448.791 420.701 448.791 420.668C448.791 420.635 447.788 419.404 446.555 417.944C445.333 416.473 444.352 415.242 444.373 415.209C444.395 415.165 445.148 415.307 446.031 415.503C447.94 415.928 450.319 416.473 450.897 416.614C451.115 416.669 451.322 416.68 451.344 416.636C451.409 416.538 452.435 413.89 453.22 411.809C453.58 410.85 453.929 410.088 454.006 410.088C454.071 410.088 454.137 410.142 454.137 410.218ZM357.312 412.801C357.345 412.855 357.53 414.424 357.727 416.288C357.934 418.325 358.119 419.676 358.196 419.676C358.25 419.676 359.756 419.502 361.523 419.295C363.29 419.099 364.785 418.968 364.828 419.012C364.926 419.11 365.515 424.656 365.439 424.732C365.417 424.754 363.901 424.907 362.068 425.07C360.247 425.223 358.741 425.364 358.73 425.375C358.719 425.386 358.883 426.846 359.079 428.611C359.287 430.377 359.439 431.968 359.417 432.153L359.396 432.48L356.832 432.719C355.425 432.85 354.16 432.959 354.04 432.959C353.745 432.97 353.778 433.112 353.385 429.342C353.211 427.74 353.036 426.367 353.003 426.301C352.938 426.203 352.065 426.269 349.643 426.541C347.833 426.737 346.338 426.879 346.316 426.857C346.294 426.835 346.164 425.757 346.044 424.471C345.913 423.185 345.793 421.899 345.76 421.616L345.705 421.115L346.109 421.049C346.338 421.017 347.211 420.919 348.051 420.821C348.891 420.733 350.211 420.592 350.974 420.505C351.749 420.417 352.403 420.33 352.425 420.297C352.458 420.265 352.327 418.707 352.131 416.843C351.923 414.762 351.825 413.411 351.88 413.356C351.934 413.302 353.058 413.139 354.378 412.986C357.225 412.681 357.236 412.67 357.312 412.801ZM486.099 412.975C488.444 413.226 489.033 413.313 489.099 413.378C489.164 413.444 489.142 413.76 488.662 417.77C488.52 419.023 488.389 420.112 488.389 420.189C488.389 420.33 488.335 420.319 492.098 420.777C493.691 420.973 495.033 421.169 495.087 421.213C495.185 421.3 494.651 426.857 494.542 426.966C494.52 426.988 493.658 426.901 492.622 426.77C491.586 426.639 490.56 426.508 490.353 426.487C490.146 426.465 489.513 426.378 488.968 426.312C488.411 426.236 487.931 426.192 487.909 426.225C487.877 426.258 487.691 427.794 487.495 429.647L487.135 433.025L486.862 433.014C486.131 432.97 481.484 432.425 481.43 432.371C481.408 432.349 481.484 431.434 481.615 430.333C481.746 429.233 481.877 428.121 481.899 427.849C481.932 427.576 481.997 426.944 482.062 426.443C482.117 425.931 482.15 425.506 482.117 425.473C482.062 425.419 477.95 424.961 476.466 424.841C475.921 424.798 475.474 424.711 475.452 424.645C475.408 424.536 475.496 423.588 475.856 420.276C475.921 419.611 476.008 419.044 476.052 419.012C476.106 418.946 478.55 419.208 481.648 419.6L482.815 419.753L482.881 419.197C482.979 418.282 483.361 415.013 483.491 413.901C483.557 413.335 483.644 412.823 483.666 412.779C483.699 412.724 483.895 412.714 484.124 412.746C484.342 412.779 485.226 412.888 486.099 412.975ZM324.325 417.192C324.925 418.293 327.39 422.618 327.412 422.618C327.434 422.618 328.83 422.106 330.532 421.474C333.401 420.417 333.924 420.243 333.924 420.385C333.924 420.439 331.961 423.577 330.946 425.146L330.335 426.094L332.942 428.35C334.382 429.581 335.539 430.627 335.517 430.66C335.495 430.704 334.601 430.704 333.521 430.671C332.452 430.627 330.957 430.595 330.193 430.584C328.83 430.573 328.797 430.573 328.754 430.813C328.732 430.954 328.448 432.414 328.143 434.06C327.826 435.705 327.532 437.122 327.488 437.209C327.412 437.35 327.259 437.089 325.034 432.807C324.63 432.022 324.292 431.379 324.281 431.368C324.237 431.325 320.605 432.556 319.099 433.123C318.358 433.406 317.725 433.602 317.692 433.569C317.649 433.537 317.692 433.395 317.78 433.264C319.525 430.54 321.139 427.783 321.052 427.696C320.987 427.631 319.852 426.65 318.521 425.506C317.19 424.373 316.1 423.392 316.089 423.338C316.089 423.24 318.467 423.25 320.998 423.37C321.957 423.425 322.754 423.447 322.776 423.436C322.841 423.381 323.888 417.116 323.888 416.756C323.888 416.745 323.932 416.734 323.976 416.734C324.03 416.734 324.183 416.941 324.325 417.192ZM516.97 416.778C516.97 416.832 517.952 422.749 518.017 423.054L518.072 423.327L521.464 423.294C523.93 423.261 524.835 423.283 524.78 423.37C524.737 423.436 523.602 424.427 522.25 425.571C520.908 426.715 519.806 427.674 519.806 427.696C519.806 427.707 520.592 429.015 521.551 430.584C522.511 432.153 523.264 433.471 523.242 433.515C523.21 433.569 522.73 433.428 522.184 433.221C521.628 433.014 520.188 432.501 518.988 432.087C517.024 431.412 516.795 431.346 516.675 431.51C516.61 431.608 515.868 432.948 515.039 434.496C514.21 436.043 513.501 437.274 513.468 437.241C513.425 437.198 513.239 436.326 513.054 435.313C512.857 434.288 512.606 432.992 512.497 432.425C512.388 431.859 512.268 431.205 512.225 430.965L512.159 430.54L508.821 430.627C506.552 430.682 505.505 430.671 505.527 430.595C505.549 430.529 505.941 430.17 506.399 429.788C507.403 428.949 510.185 426.585 510.468 426.312C510.676 426.127 510.654 426.094 509.912 424.939C508.658 423.011 507.152 420.57 507.152 420.472C507.152 420.374 510.392 421.398 512.377 422.128C513.512 422.542 513.512 422.542 513.686 422.324C513.785 422.204 514.526 420.897 515.334 419.426C516.577 417.159 516.97 416.527 516.97 416.778ZM437.337 434.539C440.239 434.615 444.766 434.779 446.446 434.877C446.991 434.91 448.431 434.986 449.664 435.04C450.897 435.106 452.249 435.182 452.664 435.204C453.089 435.236 454.562 435.302 455.936 435.367C457.322 435.422 458.795 435.498 459.209 435.531C459.634 435.552 461.031 435.629 462.318 435.694C463.605 435.76 465.7 435.879 466.954 435.967C471.427 436.283 475.157 436.566 476.335 436.675C477.001 436.729 478.692 436.882 480.099 437.002C485.226 437.438 491.084 438.015 492.426 438.2C492.818 438.266 494.706 438.484 496.625 438.691C501.774 439.268 504.512 439.628 507.37 440.107C508.243 440.249 509.639 440.478 510.479 440.598C516.141 441.447 522.381 442.711 526.788 443.91C529.013 444.509 529.067 444.531 529.569 444.978C530.104 445.436 530.387 446.057 530.387 446.787C530.387 447.484 530.191 447.898 529.678 448.29C529.035 448.781 528.653 448.759 525.577 448.029C521.399 447.037 519.501 446.645 515.584 445.991C513.61 445.653 511.516 445.294 510.916 445.174C508.69 444.749 498.763 443.441 493.244 442.842C490.538 442.548 487.789 442.254 486.917 442.167C486.295 442.112 484.059 441.883 480.972 441.578C478.572 441.338 474.317 440.979 471.863 440.815C470.968 440.75 468.95 440.608 467.39 440.489C460.496 439.976 450.449 439.486 443.937 439.344C442.443 439.312 440.348 439.268 439.301 439.235C430.901 439.007 412.913 438.974 404.83 439.17C395.798 439.399 392.023 439.508 388.358 439.671C378.3 440.129 366.235 441.033 355.25 442.178C353.276 442.385 350.178 442.701 348.378 442.886C341.637 443.572 333.924 444.553 329.07 445.348C322.634 446.394 320.659 446.776 314.791 448.138C312.162 448.737 311.791 448.759 311.191 448.29C310.405 447.691 310.242 446.275 310.853 445.392C311.322 444.727 311.845 444.477 314.18 443.866C319.819 442.374 328.012 440.805 335.615 439.78C339.193 439.29 339.989 439.192 343.96 438.745C354.007 437.601 354.574 437.547 364.632 436.729C374.34 435.945 375.279 435.89 385.085 435.378C399.714 434.615 402.146 434.528 413.284 434.43C417.364 434.387 420.713 434.354 420.724 434.343C420.767 434.31 434.937 434.474 437.337 434.539ZM437.119 442.559C439.726 442.613 442.573 442.69 443.446 442.722C444.319 442.744 445.911 442.799 446.991 442.831C454.922 443.082 463.452 443.572 473.717 444.368C476.521 444.586 483.044 445.185 484.735 445.392C485.215 445.446 486.415 445.577 487.408 445.664C491.204 446.035 495.349 446.514 498.916 446.983C500.956 447.255 503.018 447.528 503.498 447.582C505.352 447.811 509.836 448.476 512.279 448.89C516.73 449.642 523.242 450.971 523.45 451.167C523.733 451.439 518.072 452.78 512.17 453.837C506.105 454.926 496.418 456.234 490.735 456.724C489.295 456.855 487.386 457.029 486.48 457.117C485.586 457.204 483.884 457.345 482.717 457.433C481.55 457.52 480.35 457.618 480.044 457.64C479.423 457.705 474.023 458.086 471.481 458.25C470.554 458.304 468.787 458.413 467.554 458.468C465.361 458.577 462.187 458.751 460.354 458.849C458.718 458.947 454.933 459.111 451.955 459.23C450.362 459.285 448.431 459.361 447.646 459.394C440.872 459.655 433.236 459.786 422.774 459.819C405.713 459.884 397.041 459.666 376.958 458.686C367.315 458.206 361.207 457.77 351.323 456.833C342.062 455.961 331.71 454.458 324.466 452.954C322.547 452.562 318.292 451.494 317.725 451.276C317.42 451.156 317.42 451.134 317.616 451.047C318.15 450.818 323.692 449.729 328.743 448.868C333.161 448.116 345.116 446.612 352.96 445.828C364.305 444.684 364.752 444.64 370.741 444.193C383.929 443.213 389.351 442.951 403.194 442.602C412.815 442.363 427.683 442.341 437.119 442.559Z" fill="#080808"/>
<path d="M644.657 220.181C638.489 220.667 631.763 222.821 627.149 225.833C624.969 227.269 621.931 230.048 620.377 232.064C618.476 234.519 617.015 237.577 616.11 241.028C615.507 243.275 615.252 249.599 615.646 252.402C616.458 258.008 618.568 262.154 622.673 266.231C626.801 270.285 631.091 272.902 641.063 277.396C651.892 282.26 657.319 284.971 659.846 286.777C662.096 288.376 664.74 290.97 665.899 292.731C667.592 295.279 668.357 297.757 668.496 301.209C668.821 309.2 665.76 314.899 659.522 318.049C656.206 319.717 652.495 320.388 647.741 320.203C644.193 320.041 641.271 319.439 638.048 318.142C635.08 316.96 633.108 315.779 630.326 313.532C624.644 308.969 620.864 302.876 618.777 294.885L618.151 292.453H616.087H614L614.139 295.394C614.209 297.039 614.394 303.872 614.533 310.636C614.673 317.377 614.812 322.936 614.858 322.983C614.904 323.029 615.368 322.751 615.902 322.357C617.502 321.199 618.939 320.829 621.699 320.829C624.111 320.852 624.18 320.852 628.981 322.52C637.584 325.485 641.944 326.457 647.672 326.666C653.307 326.874 659.012 326.04 664.345 324.257C673.668 321.153 680.509 314.644 683.361 306.143C684.845 301.811 685.355 295.927 684.683 291.341C683.639 284.345 681.483 280.083 676.613 275.404C671.928 270.956 665.598 267.296 654.745 262.826C651.568 261.505 647.44 259.652 645.585 258.726C638.21 254.95 633.711 250.641 632.088 245.777C631.369 243.599 631.3 238.388 631.995 236.395C632.946 233.546 634.477 231.415 636.842 229.539C640.089 227.014 643.196 225.972 648.136 225.809C650.965 225.717 651.869 225.763 653.887 226.18C661.493 227.755 667.754 232.319 670.908 238.573C672.044 240.82 673.668 244.92 674.363 247.329L674.897 249.136H676.682H678.445L678.375 248.024C678.329 247.422 678.12 242.858 677.935 237.901C677.749 232.921 677.517 227.269 677.448 225.323L677.308 221.779L676.52 222.381C676.079 222.729 675.129 223.261 674.387 223.609C673.227 224.165 672.786 224.234 670.746 224.211C668.543 224.211 668.218 224.142 664.554 222.891C657.388 220.459 651.498 219.648 644.657 220.181Z" fill="#080808"/>
<path d="M892.93 220.203C880.755 221.477 871.41 227.315 866.749 236.534C864.082 241.769 863.386 249.321 864.963 255.505C865.914 259.258 868.372 263.404 871.456 266.508C875.375 270.446 880.732 273.666 890.82 278.206C906.427 285.202 911.157 288.051 914.265 292.359C916.352 295.278 917.21 298.197 917.187 302.529C917.164 309.57 913.801 315.107 907.748 318.048C904.247 319.763 902.647 320.11 897.777 320.11C893.092 320.133 891.353 319.855 887.364 318.465C884.582 317.493 883.26 316.844 880.964 315.315C878.738 313.833 873.961 309.061 872.523 306.86C870.181 303.293 868.024 298.151 867.212 294.143L866.888 292.568L864.731 292.498L862.598 292.429L862.737 295.278C863.108 302.112 863.363 308.829 863.502 315.57C863.572 319.554 863.711 322.774 863.78 322.751C863.85 322.704 864.453 322.403 865.079 322.056C867.073 321.013 868.766 320.643 870.853 320.759C872.407 320.874 873.729 321.222 878.297 322.751C887.063 325.716 890.356 326.457 895.829 326.666C904.919 327.036 914.265 324.65 920.828 320.319C923.123 318.79 926.3 315.732 927.877 313.508C934.857 303.664 934.51 287.31 927.089 277.951C923.054 272.855 916.793 268.848 904.966 263.729C896.038 259.86 894.229 259.05 891.562 257.544C884.744 253.675 881.103 249.853 879.921 245.221C879.434 243.298 879.434 239.545 879.921 237.669C881.08 233.291 884.234 229.677 888.733 227.593C891.863 226.133 893.278 225.855 897.777 225.879C901.302 225.879 901.974 225.948 904.038 226.504C911.296 228.45 916.908 233.152 920.48 240.24C921.454 242.186 922.845 245.939 923.402 248.139L923.657 249.135H925.28H926.926L926.787 247.328C926.718 246.356 926.555 243.136 926.416 240.217C926.277 237.275 926.068 232.573 925.953 229.747C925.813 226.921 925.721 224.025 925.721 223.331V222.033L924.7 222.821C923.077 224.049 921.732 224.466 919.459 224.442C917.697 224.419 917.071 224.28 913.244 223.006C905.638 220.435 899.168 219.555 892.93 220.203Z" fill="#080808"/>
<path d="M976.275 220.203C968.205 220.782 960.274 223.747 955.335 228.033C950.256 232.457 947.009 238.387 946.128 244.919C945.734 247.815 945.943 252.795 946.592 255.389C947.612 259.559 950.349 264.053 953.92 267.435C957.909 271.234 961.155 273.087 973.028 278.322C978.71 280.824 987.522 285.039 989.424 286.151C995.036 289.441 997.958 292.915 999.14 297.78C999.72 300.119 999.72 304.914 999.14 307.022C996.868 315.384 989.563 320.249 979.29 320.249C971.753 320.249 964.634 317.353 958.813 311.91C953.734 307.161 950.441 301.278 948.725 293.958L948.285 292.105L946.244 292.035L944.227 291.966L944.389 295.51C944.876 306.605 945.664 322.195 945.757 322.264C945.803 322.311 946.198 322.148 946.615 321.894C949.607 320.179 953.294 320.342 959.114 322.519C968.46 325.994 976.6 327.314 983.812 326.503C993.343 325.414 1001.18 322.172 1006.7 317.006C1010.02 313.925 1012.08 310.752 1013.47 306.582C1014.65 303.038 1015.09 300.189 1015.09 295.811C1015.09 284.02 1010.41 276.075 999.766 269.774C995.569 267.296 991.812 265.512 983.232 261.945C977.295 259.49 972.541 257.173 970.13 255.598C966.512 253.235 963.381 249.552 962.245 246.332C961.341 243.784 961.387 239.499 962.361 236.603C963.335 233.685 965.979 230.28 968.622 228.519C970.014 227.593 972.959 226.481 975.069 226.064C977.342 225.624 982.003 225.647 984.392 226.11C992.276 227.593 998.63 232.665 1002.36 240.449C1003.57 242.974 1004.87 246.564 1005.17 248.255L1005.31 249.135H1006.91C1008.79 249.135 1008.6 249.83 1008.28 243.807C1008.14 241.584 1007.88 235.862 1007.7 231.09C1007.51 226.319 1007.3 222.381 1007.26 222.311C1007.19 222.265 1006.86 222.496 1006.49 222.821C1004.24 224.906 1000.83 225.021 995.639 223.145C988.914 220.736 982.444 219.763 976.275 220.203Z" fill="#080808"/>
<path d="M685.08 221.964L682.924 222.057V223.4V224.721L684.64 225.138C687.84 225.879 689.487 227.57 690.994 231.554C691.388 232.62 693.638 239.592 696.026 247.051C698.392 254.51 702.542 267.32 705.233 275.543C714.764 304.683 719.587 319.485 720.445 322.265L721.303 325.114H725.64H729.953L730.695 322.728C731.089 321.431 732.55 316.775 733.942 312.374C744.609 278.508 749.989 260.695 751.728 253.583C752.007 252.448 752.285 252.564 752.749 254C752.981 254.695 754.418 259.282 755.949 264.192C758.917 273.643 768.286 301.765 773.341 316.404C775.011 321.222 776.379 325.23 776.379 325.276C776.379 325.322 778.234 325.322 780.484 325.299L784.612 325.23L786.536 319.091C787.603 315.709 789.574 309.455 790.919 305.193C792.264 300.931 794.398 294.051 795.673 289.905C796.949 285.758 799.059 278.925 800.381 274.732C801.703 270.516 803.674 264.123 804.787 260.486C805.877 256.849 807.639 251.22 808.66 247.978C809.68 244.735 811.187 239.847 811.999 237.137C814.318 229.4 815.408 227.176 817.541 225.856C818.492 225.277 818.956 225.138 820.463 225.068C825.356 224.86 827.096 227.13 828.348 235.353C828.742 237.901 828.928 299.888 828.58 306.328C828.07 315.2 826.655 319.207 823.432 320.805C822.759 321.13 822.017 321.408 821.785 321.408C821.437 321.408 821.368 321.616 821.368 322.798V324.187H837.601H853.857L853.787 322.774L853.718 321.385L852.512 320.968C848.964 319.763 847.41 317.308 846.482 311.447C846.088 308.945 846.065 306.467 846.065 272.879C846.065 234.311 846.042 235.098 847.248 230.882C847.92 228.589 848.245 227.894 849.265 226.759C850.077 225.809 851.978 224.813 852.976 224.813C853.416 224.813 853.602 224.698 853.625 224.396C853.625 224.188 853.671 223.563 853.741 223.007L853.88 222.034L845.555 221.987C840.986 221.987 828.603 221.964 818.005 221.987L798.757 222.011L798.688 223.377L798.618 224.767L799.616 224.906C801.076 225.138 802.839 226.018 803.674 226.968C804.74 228.195 805.019 229.238 804.996 231.878C804.949 235.585 803.813 239.523 793.54 272.068C792.102 276.678 787.534 291.271 786.351 295.186C785.957 296.483 785.516 297.502 785.4 297.433C785.284 297.34 785.191 297.178 785.191 297.016C785.191 296.877 783.893 292.731 782.316 287.82C780.716 282.909 778.258 275.242 776.843 270.794C775.405 266.323 772.808 258.193 771.046 252.726C767.15 240.681 765.828 236.164 765.48 233.639C764.691 228.381 766.408 225.416 770.651 224.698L771.509 224.559V223.308V222.034H754.233H736.956V223.308V224.559L737.838 224.698C741.107 225.23 743.403 227.014 745.189 230.396C746.325 232.55 747.856 237.345 748.018 239.175C748.157 240.982 748.041 241.515 745.397 250.062C744.308 253.56 742.8 258.401 742.058 260.834C740.829 264.864 737.235 276.4 734.707 284.461C734.15 286.245 733.13 289.627 732.411 291.989C731.692 294.352 731.02 296.367 730.927 296.46C730.834 296.576 730.579 296.066 730.347 295.302C730.139 294.56 729.002 290.831 727.796 287.009C726.59 283.187 724.828 277.512 723.854 274.385C720.515 263.66 719.355 259.907 718.08 255.853C715.135 246.426 712.769 238.457 712.352 236.511C711.355 231.832 712.074 227.848 714.23 226.018C714.856 225.485 716.41 224.86 717.546 224.698L718.636 224.559V223.285V222.034H712.445C709.012 222.034 701.963 221.987 696.722 221.941C691.504 221.895 686.24 221.895 685.08 221.964Z" fill="#080808"/>
<path d="M913.014 356.109C904.619 356.757 896.364 360.093 891.239 364.934C885.65 370.216 882.798 376.841 882.798 384.531C882.798 390.716 884.259 395.302 887.668 399.819C891.726 405.217 897.361 408.738 912.945 415.71C919.693 418.698 923.055 420.412 926.07 422.381C932.934 426.829 935.763 431.878 935.346 439.013C935.184 442.094 934.72 443.97 933.584 446.31C931.589 450.433 927.995 453.212 922.916 454.579C921.154 455.066 920.458 455.112 916.191 455.089C911.484 455.089 911.414 455.066 908.237 454.232C904.457 453.236 901.883 452.077 898.752 449.993C894.717 447.306 891.332 443.507 889.175 439.245C888.27 437.415 886.856 433.523 886.299 431.183C886.16 430.651 885.928 429.794 885.812 429.284L885.557 428.357H883.493H881.406V429.794C881.406 430.604 881.615 435.886 881.87 441.561C882.125 447.236 882.334 453.351 882.334 455.158C882.334 457.405 882.427 458.471 882.589 458.471C882.728 458.471 883.725 458.031 884.815 457.498C886.647 456.594 886.902 456.525 888.665 456.525C891.053 456.525 893.279 457.035 897.848 458.587C905.895 461.32 910.811 462.107 918.603 461.876C925.073 461.691 928.922 460.81 934.256 458.332C940.726 455.32 946.524 449.692 948.889 444.155C950.605 440.125 951.324 435.677 951.138 430.489C950.86 422.729 948.425 416.891 943.207 411.564C939.404 407.672 934.789 404.985 922.128 399.287C912.017 394.746 909.118 393.264 905.477 390.785C900.167 387.172 897.894 382.84 898.173 376.91C898.428 371.884 900.608 368.061 904.735 365.351C909.86 361.992 917.768 361.367 924.864 363.753C933.607 366.672 939.659 373.806 941.816 383.72C941.955 384.369 941.978 384.369 943.37 384.299C944.228 384.253 944.807 384.114 944.877 383.952C944.947 383.79 944.877 380.501 944.738 376.632C944.599 372.787 944.413 366.996 944.344 363.799L944.181 357.939L943.254 358.773C941.723 360.163 940.517 360.603 938.106 360.579C935.926 360.556 935.972 360.556 930.105 358.518C924.354 356.503 918.464 355.692 913.014 356.109Z" fill="#080808"/>
<path d="M1128.1 356.642C1123.88 357.291 1121.31 357.916 1118.06 359.028C1108.27 362.387 1100.09 369.127 1094.06 378.787C1091.69 382.539 1090.02 386.547 1088.49 392.176C1084.76 405.727 1085.27 419.903 1089.91 432.759C1090.93 435.562 1093.15 439.917 1094.92 442.581C1096.59 445.082 1100.23 448.997 1102.75 451.035C1112.31 458.68 1124.88 462.478 1137.42 461.482C1144.08 460.973 1147.37 460 1154.93 456.317C1160.08 453.815 1160.31 453.722 1161.8 453.722C1163.12 453.722 1163.58 453.838 1165.02 454.58C1165.97 455.066 1166.76 455.413 1166.81 455.39C1166.83 455.344 1166.9 447.7 1166.97 438.411C1167.04 424.119 1167.11 421.293 1167.41 419.996C1168.29 416.197 1170.61 413.602 1173.44 413.185L1174.53 413.046V411.888V410.753H1158.29H1142.06V412.236V413.695L1143.66 413.834C1147.3 414.135 1149.53 416.313 1150.16 420.25C1150.32 421.177 1150.41 427.13 1150.41 436.002V450.271L1148.39 451.267C1144.82 453.051 1142.27 453.676 1137.31 453.954C1132.46 454.255 1128.03 453.444 1124.11 451.545C1111.78 445.615 1105.33 432.087 1104.8 411.077C1104.54 400.399 1106.02 390.786 1109.22 382.493C1114.26 369.521 1124.37 362.062 1136.15 362.641C1143.27 362.989 1149.76 366.047 1153.96 371.027C1156.81 374.409 1159.41 378.949 1161.33 383.883L1162.19 386.083L1163.74 386.153L1165.32 386.222L1165.16 383.605C1165.07 382.169 1164.95 380.362 1164.9 379.597C1164.63 375.567 1164.53 374.131 1164.32 370.1C1164.21 367.668 1164.09 364.217 1164.07 362.387C1164.07 360.256 1163.95 359.097 1163.81 359.097C1163.67 359.097 1163.12 359.468 1162.56 359.908C1159.83 362.155 1157.3 362.201 1152.27 360.093C1145.7 357.36 1141.41 356.364 1135.45 356.202C1132.32 356.109 1131.19 356.179 1128.1 356.642Z" fill="#080808"/>
<path d="M614.072 359.258L614.141 360.578L615.185 360.833C617.48 361.435 619.034 362.733 620.078 365.003C621.515 368.06 621.469 366.508 621.446 406.999C621.446 430.372 621.353 444.78 621.191 446.262C620.588 452.354 618.849 455.366 615.324 456.477L614.002 456.894L614.072 458.261L614.141 459.605L630.374 459.651L646.607 459.697L646.677 458.192L646.746 456.663L645.911 456.524C643.476 456.061 641.552 454.578 640.601 452.447C639.256 449.436 639.233 449.273 639.14 432.688L639.047 417.469H647.929C664.811 417.446 669.171 416.867 676.058 413.67C679.189 412.211 681.392 410.682 683.85 408.227C689.462 402.621 692.175 395.672 692.175 386.893C692.175 378.693 689.949 373.017 684.638 367.782C679.838 363.034 673.878 360.022 666.411 358.586C663.814 358.1 663.396 358.077 638.885 358.007L614.002 357.914L614.072 359.258ZM655.303 364.655C661.147 365.373 665.692 367.551 668.637 371.072C670.307 373.087 672.301 377.094 672.904 379.712C673.646 382.908 673.948 387.055 673.646 390.251C672.603 401.857 666.388 408.899 655.767 410.543C654.445 410.752 651.361 410.867 646.491 410.867H639.186L639.117 387.935C639.093 375.311 639.117 364.864 639.186 364.702C639.325 364.354 652.358 364.308 655.303 364.655Z" fill="#080808"/>
<path d="M701.776 359.236L701.8 360.533L703.191 360.973C705.046 361.529 706.345 362.687 707.249 364.517C708.664 367.389 708.617 366.254 708.78 405.193C708.872 429.724 708.849 441.978 708.664 444.711C708.13 452.888 706.646 455.644 701.985 456.988C701.776 457.034 701.684 457.521 701.684 458.355V459.629L714.508 459.652C721.534 459.652 728.769 459.675 730.555 459.675H733.802V458.332V456.988L732.758 456.733C729.396 455.876 727.819 453.884 726.798 449.321C726.497 447.954 726.404 444.943 726.334 430.28C726.242 413.37 726.242 412.884 726.682 412.745C727.332 412.536 733.129 413.023 734.776 413.416C737.929 414.158 740.898 416.173 742.962 418.976C744.585 421.176 746.672 425.068 752.33 436.511C755.971 443.854 758.592 448.834 759.682 450.479C763.462 456.224 767.636 458.957 774.291 459.999C776.193 460.3 777.654 460.347 781.55 460.254C784.24 460.161 787.278 459.976 788.298 459.814L790.153 459.513L790.223 458.1L790.292 456.71L788.507 456.432C782.802 455.552 780.251 452.332 771.833 435.538C764.83 421.524 762.488 417.679 758.429 413.416C757.455 412.397 756.713 411.54 756.76 411.471C756.829 411.424 757.919 410.984 759.218 410.498C770.419 406.282 776.796 398.777 778.002 388.399C778.396 385.133 778.141 379.643 777.538 377.281C776.309 372.648 773.387 368.386 769.375 365.351C764.737 361.876 760.099 359.954 753.049 358.587C750.568 358.101 749.849 358.078 726.126 358.008L701.776 357.915V359.236ZM742.034 364.656C745.443 365.027 747.947 365.698 750.568 366.996C755.299 369.335 757.966 373.041 759.264 379.018C759.96 382.191 759.937 388.585 759.241 391.874C758.499 395.372 756.621 398.962 754.325 401.278C752.261 403.363 750.127 404.684 747.252 405.633C743.959 406.722 742.869 406.838 734.335 406.977L726.265 407.093V385.898V364.679L726.798 364.587C727.865 364.378 739.924 364.448 742.034 364.656Z" fill="#080808"/>
<path d="M796.299 359.213C796.299 360.047 796.392 360.534 796.6 360.58C799.986 361.507 800.937 362.225 802.119 364.726C803.511 367.738 803.488 366.742 803.488 408.9C803.488 433.13 803.395 447.839 803.256 448.858C802.931 451.036 802.212 453.143 801.401 454.279C800.589 455.39 798.664 456.549 797.296 456.757L796.299 456.896V458.379V459.838L831.339 459.745C850.61 459.699 866.425 459.606 866.495 459.56C866.541 459.49 866.68 458.796 866.796 457.985C866.935 457.174 867.701 452.008 868.535 446.542C869.37 441.052 870.089 436.234 870.136 435.817L870.251 435.052L868.373 435.122L866.518 435.191L865.729 437.971C865.289 439.523 864.361 441.932 863.619 443.415C862.529 445.661 862.065 446.333 860.674 447.7C858.285 450.063 855.132 451.591 850.563 452.611C849.102 452.912 846.806 453.004 836.07 453.074C826.075 453.143 823.199 453.097 822.735 452.866C821.785 452.379 821.158 450.758 820.88 448.163C820.718 446.681 820.648 439.315 820.695 427.779L820.764 409.711H830.04C840.105 409.734 841.079 409.827 843.56 411.078C845.832 412.236 847.78 414.992 848.523 418.096L848.824 419.324H850.146H851.491V405.773V392.222H850.146H848.824L848.43 394.098C847.409 399.055 844.789 401.812 840.244 402.762C838.783 403.063 830.087 403.248 822.434 403.132L820.648 403.109L820.695 383.813L820.764 364.541L832.823 364.472C839.942 364.425 845.786 364.495 847.085 364.634C855.92 365.583 859.375 368.919 861.926 378.949L862.181 379.945H863.666C864.5 379.945 865.173 379.876 865.173 379.76C865.173 379.667 865.011 377.768 864.825 375.544C864.64 373.32 864.361 368.433 864.199 364.703L863.921 357.939H830.11H796.299V359.213Z" fill="#080808"/>
<path d="M959.326 357.983C959.303 358.029 959.117 360.508 958.862 363.496C958.607 366.484 958.213 371.326 957.935 374.267C957.679 377.186 957.471 379.665 957.471 379.757C957.471 379.85 958.074 379.943 958.816 379.943H960.161L960.717 378.02C961.946 373.758 963.431 370.955 965.541 369.009C968.092 366.67 972.104 365.071 976.486 364.701C979.71 364.4 986.852 364.353 987.015 364.608C987.247 364.979 987.386 442.161 987.154 445.034C986.736 450.315 986.017 452.979 984.557 454.647C983.629 455.712 981.704 456.847 980.846 456.847C980.336 456.847 980.243 457.009 980.081 458.422L979.942 459.627H996.314H1012.66V458.26V456.894L1011.85 456.755C1008.6 456.129 1006.61 454.044 1005.59 450.13C1004.45 445.891 1004.48 446.794 1004.38 404.45C1004.29 365.396 1004.31 364.678 1004.73 364.539C1005.45 364.33 1015.82 364.608 1017.88 364.886C1025.72 366.021 1029.78 369.889 1031.79 378.252L1032.19 379.943H1033.6H1034.99L1034.83 378.136C1034.39 372.576 1034 366.507 1033.86 362.5L1033.7 357.937H996.499C976.069 357.937 959.326 357.96 959.326 357.983Z" fill="#080808"/>
<path d="M1043.97 359.327C1043.97 360.601 1044.01 360.716 1044.5 360.716C1045.29 360.74 1047 361.597 1047.86 362.407C1048.91 363.38 1049.95 365.511 1050.37 367.411C1050.81 369.519 1051.13 440.239 1050.71 444.918C1050.41 448.369 1050.02 450.361 1049.3 452.307C1048.63 454.091 1046.84 455.921 1045.24 456.5C1044.62 456.731 1044.01 456.986 1043.94 457.056C1043.85 457.125 1043.73 457.751 1043.66 458.399L1043.53 459.627H1059.62H1075.74V458.283V456.917L1074.76 456.616C1070.5 455.365 1068.85 452.469 1068.29 445.173C1067.94 440.725 1068.15 371.441 1068.52 369.287C1069.03 366.137 1069.87 364.006 1071.08 362.732C1071.84 361.898 1073.56 360.994 1074.79 360.809L1075.74 360.647V359.303V357.937H1059.85H1043.97V359.327Z" fill="#080808"/>
<path d="M1181.99 359.236L1182.06 360.556L1183.11 360.811C1186.54 361.692 1188.6 364.564 1189.14 369.243C1189.44 371.953 1189.44 445.36 1189.14 448.07C1188.56 453.213 1186.72 455.853 1183.2 456.641L1181.95 456.919V458.286V459.629H1197.32C1213.81 459.652 1237.39 459.652 1246.72 459.629H1252.44V459.096C1252.44 458.564 1254.53 444.619 1255.46 439.013C1256.11 434.936 1256.25 435.307 1254.07 435.307C1252.24 435.307 1252.21 435.307 1252.1 435.932C1251.75 437.577 1250.24 441.862 1249.38 443.646C1248.62 445.175 1248.02 446.032 1246.55 447.491C1243.96 450.086 1241.01 451.545 1236.17 452.61C1234.43 452.981 1232.94 453.027 1221.39 453.027H1208.57L1207.92 452.263C1207.11 451.29 1206.55 449.321 1206.3 446.588C1206.2 445.406 1206.13 436.627 1206.16 427.084L1206.18 409.711L1214.41 409.641C1219.38 409.595 1223.41 409.687 1224.57 409.826C1230.53 410.591 1233.2 412.884 1234.59 418.328L1234.84 419.324H1236.1H1237.37V405.773V392.222H1236.03H1234.7L1234.31 394.098C1233.27 399.078 1230.69 401.812 1226.15 402.761C1224.41 403.109 1207.83 403.549 1206.69 403.248L1206.06 403.109V383.906C1206.06 368.757 1206.13 364.68 1206.37 364.61C1206.95 364.379 1227.89 364.425 1231.11 364.633C1235.72 364.958 1238.34 365.699 1241.08 367.39C1244.28 369.382 1245.79 371.698 1247.78 377.698L1248.55 379.968L1249.85 379.898C1251.1 379.829 1251.17 379.806 1251.12 379.25C1251.01 377.791 1250.36 367.784 1250.24 365.699C1250.19 364.425 1250.13 362.155 1250.13 360.649V357.939H1216.04H1181.92L1181.99 359.236Z" fill="#080808"/>
</svg>
