<?xml version="1.0" standalone="no"?>
<svg xmlns="http://www.w3.org/2000/svg" viewBox="0 0 450 200">
<!-- Swiss Prestige - SP Monogram Only -->
<g transform="translate(-430, -340) scale(0.1, -0.1)"
   fill="#4A6FA5" fill-rule="evenodd" stroke="none">
<!-- S and P intertwined -->
<path d="M5445 5535 c-226 -43 -376 -150 -462 -327 -35 -72 -50 -207 -34 -296
28 -150 129 -275 285 -351 44 -21 188 -74 320 -116 268 -87 356 -127 419 -189
50 -50 67 -98 67 -182 0 -152 -113 -256 -310 -285 -138 -20 -323 17 -450 89
-50 29 -165 118 -194 151 -11 11 -24 21 -31 21 -12 0 -105 -102 -143 -157
l-23 -33 58 -56 c117 -112 256 -187 440 -235 122 -32 341 -37 461 -10 262 58
431 212 476 433 9 42 16 90 16 105 0 30 -24 146 -35 175 -6 16 29 17 527 20
l533 4 85 28 c257 85 395 217 450 432 37 142 20 299 -45 429 -74 148 -207 248
-410 307 -78 22 -90 23 -525 23 l-445 0 0 -440 0 -440 138 -3 137 -3 0 321 0
320 23 0 c12 0 122 1 245 4 190 3 236 1 308 -15 135 -29 224 -94 273 -199 23
-48 26 -68 26 -155 0 -87 -3 -107 -26 -156 -32 -68 -92 -128 -165 -163 -107
-53 -155 -56 -777 -56 l-572 0 -61 29 c-69 32 -283 110 -449 164 -147 47 -233
88 -280 136 -48 48 -63 88 -64 166 -1 135 87 226 264 270 170 42 401 -19 565
-149 25 -20 49 -36 53 -36 12 0 36 29 103 123 64 89 69 73 -47 152 -88 59
-179 101 -287 131 -114 33 -318 41 -437 19z"/>
<!-- I bar -->
<path d="M6475 4187 c-3 -7 -4 -147 -3 -312 l3 -300 135 0 135 0 3 313 2 312
-135 0 c-100 0 -137 -3 -140 -13z"/>
</g>
</svg>