<?xml version="1.0" standalone="no"?>
<svg xmlns="http://www.w3.org/2000/svg" viewBox="0 0 700 60">
<!-- Swiss Prestige - Text Only (SWISS PRESTIGE) -->
<g transform="translate(-300, -285) scale(0.1, -0.1)"
   fill="#4A6FA5" fill-rule="evenodd" stroke="none">
<!-- S -->
<path d="M3207 3156 c-52 -19 -85 -52 -97 -95 -25 -89 -1 -140 84 -180 33 -16
79 -33 101 -37 98 -17 136 -74 83 -124 -34 -32 -120 -24 -186 17 l-50 31 -26
-27 c-14 -15 -26 -34 -26 -42 0 -22 97 -76 163 -90 171 -37 308 95 239 230
-24 48 -54 67 -149 95 -106 30 -133 48 -133 85 0 38 20 53 78 59 36 3 62 -2
100 -18 29 -13 54 -21 55 -19 2 2 13 17 25 33 26 34 23 40 -30 67 -54 27 -177
35 -231 15z"/>
<!-- W -->
<path d="M3560 3148 c0 -12 92 -284 156 -460 l28 -78 42 0 41 0 31 98 c17 53
42 136 57 185 14 48 30 87 36 87 5 0 9 -5 9 -11 0 -7 25 -90 56 -185 l55 -174
43 0 c41 0 42 1 58 48 9 26 47 137 85 247 38 110 73 213 77 228 l7 28 -53 -3
-53 -3 -58 -177 c-32 -98 -62 -178 -66 -178 -4 0 -17 35 -30 78 -12 42 -36
123 -54 180 l-32 102 -47 0 -46 0 -40 -122 c-22 -68 -47 -149 -56 -180 -9 -32
-20 -58 -24 -58 -4 0 -25 57 -46 128 -21 70 -47 151 -58 180 l-19 52 -50 0
c-33 0 -49 -4 -49 -12z"/>
<!-- I -->
<path d="M4427 3093 c-3 -38 -5 -160 -4 -273 l2 -205 48 -3 47 -3 0 275 0 276
-44 0 -44 0 -5 -67z"/>
<!-- S -->
<path d="M4740 3143 c-69 -35 -93 -76 -87 -146 6 -74 46 -109 168 -147 101
-32 129 -52 129 -88 0 -39 -34 -62 -93 -62 -50 0 -85 12 -144 50 -21 14 -25
12 -55 -18 l-33 -33 25 -21 c54 -45 131 -72 205 -72 159 0 238 101 186 236
-14 36 -71 71 -153 93 -88 23 -128 48 -128 78 0 64 86 87 178 47 57 -25 60
-24 92 32 17 29 -69 69 -160 75 -68 4 -80 2 -130 -24z"/>
<!-- S -->
<path d="M5264 3160 c-16 -5 -48 -25 -70 -44 -39 -33 -39 -34 -39 -106 0 -70
1 -73 35 -101 20 -17 65 -38 105 -50 98 -28 134 -46 144 -71 32 -87 -99 -119
-204 -51 l-48 31 -29 -34 c-25 -28 -28 -37 -18 -49 41 -50 171 -91 252 -80 26
4 65 19 87 33 54 35 75 79 69 150 -4 48 -10 60 -40 87 -19 18 -57 39 -84 47
-27 9 -68 21 -91 28 -56 17 -86 45 -78 73 17 58 85 72 176 36 l52 -20 23 28
c13 15 22 32 20 38 -1 5 -24 21 -51 35 -53 27 -155 37 -211 20z"/>
<!-- P -->
<path d="M5860 2886 l0 -277 51 3 50 3 5 79 c2 44 6 81 8 83 2 2 38 6 81 8
119 7 143 14 185 54 89 84 70 237 -35 294 -35 18 -61 22 -192 25 l-153 4 0
-276z m301 155 c22 -23 29 -39 29 -69 0 -72 -48 -101 -166 -102 -61 0 -61 1
-56 123 l4 77 80 0 c75 0 81 -2 109 -29z"/>
<!-- R -->
<path d="M6390 2885 l0 -275 50 0 49 0 3 93 3 92 60 0 60 0 63 -92 63 -93 60
0 c69 0 70 -11 -16 114 -30 44 -55 84 -55 90 0 6 16 21 35 33 46 30 69 76 68
138 0 80 -34 130 -106 160 -27 11 -74 15 -187 15 l-150 0 0 -275z m311 166
c33 -27 34 -101 1 -133 -20 -20 -32 -23 -115 -23 l-92 0 -3 74 c-1 41 0 81 2
88 4 9 30 13 95 13 73 0 93 -3 112 -19z"/>
<!-- E -->
<path d="M6960 2885 l0 -275 200 0 200 0 0 45 0 44 -147 3 -148 3 0 70 c0 49
4 70 13 71 6 1 64 2 127 3 l115 1 0 40 0 39 -127 3 -128 3 0 65 0 65 143 3
142 3 0 44 0 45 -195 0 -195 0 0 -275z"/>
<!-- S -->
<path d="M7578 3160 c-82 -25 -118 -71 -118 -153 0 -90 43 -125 212 -172 60
-16 78 -34 78 -79 0 -35 -35 -56 -91 -56 -47 0 -131 29 -143 49 -12 19 -32 12
-56 -21 l-23 -31 31 -28 c29 -26 142 -69 183 -69 10 0 41 5 70 11 75 16 129
68 136 131 6 56 -9 107 -43 138 -13 13 -72 40 -131 59 -58 20 -111 43 -116 52
-6 9 -7 27 -4 41 13 49 99 63 176 27 52 -23 65 -20 85 20 15 29 15 30 -17 49
-62 38 -162 52 -229 32z"/>
<!-- T -->
<path d="M7922 3118 l3 -43 85 -5 85 -5 3 -227 2 -228 50 0 50 0 0 230 0 229
83 3 82 3 3 43 3 42 -226 0 -226 0 3 -42z"/>
<!-- I -->
<path d="M8470 2885 l0 -275 50 0 50 0 0 275 0 275 -50 0 -50 0 0 -275z"/>
<!-- G -->
<path d="M8869 3155 c-48 -15 -129 -86 -155 -136 -69 -134 -19 -303 111 -375
107 -60 246 -51 340 21 l35 26 0 100 0 99 -50 0 -50 0 0 -75 c0 -67 -2 -76
-24 -90 -33 -22 -113 -29 -162 -16 -112 30 -161 185 -91 288 51 76 168 101
256 55 47 -25 50 -24 82 31 33 57 -177 109 -292 72z"/>
<!-- E -->
<path d="M9317 3153 c-4 -3 -7 -127 -7 -275 l0 -268 205 0 205 0 0 45 0 45
-150 0 -150 0 0 75 0 75 130 0 130 0 0 40 0 39 -127 3 -128 3 -3 68 -3 67 138
1 c76 1 141 1 144 1 3 -1 6 19 8 44 l2 44 -194 0 c-106 0 -197 -3 -200 -7z"/>
</g>
</svg>