<?xml version="1.0" standalone="no"?>
<svg xmlns="http://www.w3.org/2000/svg" viewBox="0 0 300 220">
<!-- Swiss Prestige - Crown Only -->
<g transform="translate(-520, -590) scale(0.1, -0.1)" transform-origin="center"
   fill="#4A6FA5" fill-rule="evenodd" stroke="none">
<!-- Cross on top -->
<path d="M6345 7208 c-2 -7 -6 -40 -7 -73 l-3 -60 -67 -3 -68 -3 0 -59 0 -60
70 0 c79 0 75 5 70 -92 l-2 -48 61 0 c69 0 73 6 68 90 l-2 45 70 5 70 5 3 58
3 57 -71 0 -70 0 0 53 c0 91 -4 97 -66 97 -35 0 -56 -5 -59 -12z"/>
<!-- Crown body with jewels -->
<path d="M6018 6821 c-43 -14 -94 -49 -112 -76 -14 -21 -20 -23 -42 -15 -14 6
-51 10 -81 10 -130 0 -217 -93 -214 -227 1 -48 10 -72 63 -172 34 -64 70 -132
80 -151 10 -19 26 -59 35 -87 l17 -53 637 0 638 0 10 38 c6 20 31 75 56 122
121 228 130 251 130 320 -1 53 -6 73 -27 106 -53 83 -113 110 -221 101 l-70
-6 -44 39 c-98 86 -234 74 -396 -35 -37 -25 -70 -45 -73 -45 -3 0 -31 18 -63
39 -111 75 -251 115 -323 92z m204 -154 c126 -64 117 -42 118 -283 1 -193 0
-208 -17 -214 -20 -7 -150 -7 -156 1 -12 12 -95 167 -143 264 -69 140 -73 188
-19 242 34 34 38 35 90 31 36 -3 79 -17 127 -41z m571 22 c31 -24 51 -88 42
-132 -4 -18 -34 -83 -66 -144 -33 -62 -57 -113 -54 -113 3 0 1 -6 -5 -12 -7
-7 -24 -35 -38 -63 -24 -44 -32 -51 -67 -57 -22 -3 -64 -4 -92 -1 l-53 6 0
208 0 208 45 31 c124 85 234 112 288 69z m-967 -65 c18 -5 23 -16 28 -62 7
-58 32 -116 130 -295 27 -48 46 -91 43 -94 -9 -8 -140 -11 -162 -3 -24 9 -174
284 -182 334 -14 85 57 143 143 120z m1271 -29 c30 -34 31 -106 3 -155 -10
-19 -47 -87 -81 -150 -35 -63 -67 -118 -73 -122 -6 -5 -36 -6 -66 -3 -30 2
-68 4 -83 4 l-29 1 45 83 c101 185 128 246 134 303 7 64 22 76 88 69 27 -2 47
-12 62 -30z"/>
<!-- Crown band -->
<path d="M5767 5963 c-4 -3 -7 -33 -7 -65 l0 -58 640 0 641 0 -3 63 -3 62
-631 3 c-347 1 -634 -1 -637 -5z"/>
</g>
</svg>