<svg width="1024" height="1024" viewBox="0 0 1024 1024" fill="none" xmlns="http://www.w3.org/2000/svg">
<rect width="1024" height="1024" fill="#080808"/>
<path d="M341.736 489.189C335.35 489.693 328.388 491.925 323.611 495.046C321.355 496.534 318.21 499.415 316.602 501.504C314.633 504.048 313.121 507.217 312.185 510.794C311.56 513.123 311.296 519.676 311.704 522.581C312.545 528.39 314.729 532.687 318.978 536.912C323.251 541.113 327.692 543.826 338.015 548.483C349.225 553.524 354.843 556.333 357.459 558.206C359.788 559.862 362.525 562.551 363.725 564.375C365.477 567.016 366.27 569.584 366.414 573.161C366.75 581.443 363.581 587.349 357.123 590.613C353.691 592.342 349.85 593.038 344.928 592.846C341.256 592.678 338.231 592.054 334.894 590.71C331.821 589.485 329.781 588.261 326.9 585.932C321.019 581.203 317.106 574.89 314.945 566.608L314.297 564.087H312.161H310L310.144 567.136C310.216 568.84 310.408 575.922 310.552 582.932C310.696 589.917 310.84 595.679 310.888 595.727C310.936 595.775 311.416 595.487 311.968 595.079C313.625 593.878 315.113 593.494 317.97 593.494C320.467 593.518 320.539 593.518 325.508 595.247C334.414 598.319 338.927 599.328 344.856 599.544C350.69 599.76 356.595 598.896 362.117 597.047C371.767 593.83 378.849 587.085 381.801 578.274C383.338 573.785 383.866 567.688 383.17 562.935C382.089 555.685 379.857 551.268 374.816 546.419C369.966 541.81 363.413 538.017 352.178 533.383C348.889 532.015 344.616 530.095 342.696 529.134C335.062 525.222 330.405 520.756 328.725 515.715C327.98 513.459 327.908 508.057 328.629 505.993C329.613 503.04 331.197 500.832 333.646 498.887C337.007 496.27 340.223 495.19 345.337 495.022C348.265 494.926 349.201 494.974 351.29 495.406C359.164 497.039 365.645 501.768 368.91 508.249C370.087 510.578 371.767 514.827 372.487 517.324L373.039 519.196H374.888H376.712L376.64 518.044C376.592 517.42 376.376 512.69 376.184 507.553C375.992 502.392 375.752 496.534 375.68 494.518L375.536 490.845L374.72 491.469C374.264 491.829 373.279 492.381 372.511 492.742C371.311 493.318 370.855 493.39 368.742 493.366C366.462 493.366 366.126 493.294 362.333 491.997C354.915 489.477 348.817 488.637 341.736 489.189Z" fill="#F2EDE4"/>
<path d="M598.741 489.212C586.138 490.532 576.464 496.582 571.639 506.136C568.878 511.562 568.158 519.387 569.79 525.797C570.775 529.686 573.319 533.983 576.512 537.2C580.569 541.281 586.114 544.618 596.557 549.323C612.713 556.573 617.61 559.525 620.827 563.99C622.987 567.015 623.875 570.04 623.851 574.529C623.827 581.827 620.347 587.564 614.081 590.613C610.456 592.389 608.8 592.749 603.759 592.749C598.909 592.773 597.109 592.485 592.98 591.045C590.099 590.037 588.731 589.365 586.354 587.78C584.05 586.244 579.105 581.299 577.616 579.018C575.192 575.321 572.959 569.992 572.119 565.839L571.783 564.206L569.55 564.134L567.342 564.062L567.486 567.015C567.87 574.097 568.134 581.059 568.278 588.044C568.35 592.173 568.494 595.51 568.566 595.486C568.638 595.438 569.262 595.126 569.91 594.766C571.975 593.686 573.727 593.302 575.888 593.422C577.496 593.542 578.865 593.902 583.594 595.486C592.668 598.559 596.077 599.327 601.742 599.543C611.152 599.927 620.827 597.455 627.62 592.965C629.997 591.381 633.286 588.212 634.918 585.908C642.144 575.705 641.784 558.757 634.102 549.059C629.925 543.777 623.443 539.624 611.2 534.319C601.958 530.31 600.086 529.47 597.325 527.91C590.267 523.901 586.498 519.94 585.274 515.138C584.77 513.146 584.77 509.257 585.274 507.312C586.474 502.775 589.739 499.03 594.396 496.87C597.637 495.358 599.101 495.07 603.759 495.094C607.407 495.094 608.104 495.166 610.24 495.742C617.754 497.758 623.563 502.631 627.26 509.977C628.269 511.994 629.709 515.883 630.285 518.163L630.549 519.195H632.229H633.934L633.79 517.323C633.718 516.315 633.55 512.978 633.406 509.953C633.262 506.904 633.046 502.031 632.926 499.102C632.782 496.174 632.686 493.173 632.686 492.453V491.109L631.629 491.925C629.949 493.197 628.557 493.629 626.204 493.605C624.38 493.581 623.731 493.437 619.77 492.117C611.897 489.452 605.199 488.54 598.741 489.212Z" fill="#F2EDE4"/>
<path d="M685.018 489.213C676.664 489.813 668.454 492.886 663.341 497.327C658.083 501.912 654.722 508.057 653.81 514.827C653.402 517.828 653.618 522.989 654.29 525.678C655.347 529.999 658.179 534.656 661.876 538.161C666.005 542.098 669.366 544.018 681.657 549.443C687.538 552.036 696.661 556.405 698.629 557.557C704.439 560.966 707.463 564.567 708.688 569.608C709.288 572.033 709.288 577.002 708.688 579.187C706.335 587.853 698.773 592.894 688.139 592.894C680.337 592.894 672.967 589.893 666.941 584.252C661.684 579.331 658.275 573.233 656.499 565.647L656.043 563.727L653.93 563.655L651.842 563.583L652.01 567.256C652.514 578.755 653.33 594.911 653.426 594.983C653.474 595.031 653.882 594.863 654.314 594.598C657.411 592.822 661.228 592.99 667.254 595.247C676.928 598.848 685.354 600.216 692.82 599.376C702.686 598.247 710.8 594.887 716.513 589.533C719.946 586.34 722.083 583.052 723.523 578.731C724.747 575.058 725.204 572.105 725.204 567.568C725.204 555.349 720.354 547.115 709.336 540.585C704.991 538.017 701.102 536.168 692.22 532.471C686.074 529.927 681.153 527.526 678.656 525.894C674.911 523.445 671.671 519.628 670.494 516.291C669.558 513.651 669.606 509.21 670.614 506.209C671.623 503.184 674.359 499.655 677.096 497.831C678.536 496.871 681.585 495.718 683.77 495.286C686.122 494.83 690.947 494.854 693.42 495.334C701.582 496.871 708.159 502.128 712.024 510.194C713.273 512.811 714.617 516.531 714.929 518.284L715.073 519.196H716.729C718.674 519.196 718.482 519.916 718.146 513.675C718.002 511.37 717.738 505.441 717.546 500.495C717.354 495.55 717.138 491.469 717.09 491.397C717.018 491.349 716.681 491.589 716.297 491.925C713.969 494.086 710.44 494.206 705.063 492.261C698.101 489.765 691.403 488.757 685.018 489.213Z" fill="#F2EDE4"/>
<path d="M383.578 491.039L381.346 491.135V492.527V493.895L383.122 494.327C386.435 495.096 388.139 496.848 389.7 500.977C390.108 502.081 392.436 509.307 394.909 517.037C397.358 524.767 401.655 538.042 404.439 546.564C414.306 576.764 419.299 592.103 420.187 594.984L421.075 597.937H425.564H430.029L430.798 595.464C431.206 594.12 432.718 589.295 434.158 584.733C445.201 549.637 450.77 531.176 452.571 523.807C452.859 522.63 453.147 522.75 453.627 524.239C453.867 524.959 455.356 529.712 456.94 534.801C460.013 544.596 469.711 573.739 474.944 588.911C476.673 593.904 478.089 598.057 478.089 598.105C478.089 598.153 480.01 598.153 482.338 598.129L486.611 598.057L488.604 591.695C489.708 588.19 491.748 581.709 493.141 577.292C494.533 572.875 496.742 565.745 498.062 561.448C499.382 557.151 501.567 550.069 502.935 545.724C504.303 541.355 506.344 534.729 507.496 530.96C508.624 527.191 510.449 521.358 511.505 517.997C512.561 514.636 514.122 509.571 514.962 506.762C517.363 498.744 518.491 496.44 520.699 495.072C521.684 494.471 522.164 494.327 523.724 494.255C528.789 494.039 530.59 496.392 531.886 504.914C532.294 507.555 532.486 571.794 532.126 578.468C531.598 587.662 530.134 591.815 526.797 593.472C526.101 593.808 525.332 594.096 525.092 594.096C524.732 594.096 524.66 594.312 524.66 595.536V596.976H541.464H558.292L558.22 595.512L558.148 594.072L556.9 593.64C553.227 592.391 551.619 589.847 550.659 583.773C550.251 581.181 550.227 578.612 550.227 543.803C550.227 503.834 550.203 504.65 551.451 500.281C552.147 497.904 552.483 497.184 553.539 496.008C554.38 495.024 556.348 493.991 557.38 493.991C557.836 493.991 558.028 493.871 558.052 493.559C558.052 493.343 558.1 492.695 558.172 492.119L558.316 491.111L549.698 491.063C544.969 491.063 532.15 491.039 521.179 491.063L501.255 491.087L501.183 492.503L501.111 493.943L502.143 494.087C503.655 494.327 505.48 495.24 506.344 496.224C507.448 497.496 507.736 498.576 507.712 501.313C507.664 505.154 506.488 509.235 495.853 542.963C494.365 547.74 489.636 562.864 488.412 566.921C488.003 568.265 487.547 569.322 487.427 569.25C487.307 569.154 487.211 568.986 487.211 568.818C487.211 568.674 485.867 564.377 484.235 559.287C482.578 554.198 480.034 546.252 478.569 541.643C477.081 537.01 474.392 528.584 472.568 522.918C468.535 510.435 467.166 505.754 466.806 503.138C465.99 497.688 467.767 494.615 472.16 493.871L473.048 493.727V492.431V491.111H455.164H437.279V492.431V493.727L438.191 493.871C441.576 494.423 443.953 496.272 445.801 499.777C446.978 502.009 448.562 506.978 448.73 508.875C448.874 510.747 448.754 511.3 446.017 520.158C444.889 523.783 443.329 528.8 442.56 531.32C441.288 535.497 437.567 547.452 434.951 555.806C434.375 557.655 433.318 561.16 432.574 563.608C431.83 566.057 431.134 568.145 431.038 568.241C430.942 568.361 430.678 567.833 430.438 567.041C430.222 566.273 429.045 562.408 427.797 558.447C426.549 554.486 424.724 548.605 423.716 545.364C420.259 534.249 419.059 530.36 417.738 526.159C414.69 516.389 412.241 508.131 411.809 506.114C410.777 501.265 411.521 497.136 413.754 495.24C414.402 494.687 416.01 494.039 417.186 493.871L418.315 493.727V492.407V491.111H411.905C408.352 491.111 401.054 491.063 395.629 491.015C390.228 490.967 384.779 490.967 383.578 491.039Z" fill="#F2EDE4"/>
<path d="M489.532 640.648C480.842 641.321 472.296 644.777 466.991 649.795C461.206 655.268 458.253 662.134 458.253 670.104C458.253 676.513 459.765 681.266 463.294 685.947C467.495 691.541 473.329 695.19 489.46 702.416C496.446 705.512 499.927 707.289 503.048 709.329C510.153 713.938 513.082 719.172 512.65 726.565C512.482 729.758 512.002 731.703 510.826 734.127C508.761 738.4 505.04 741.281 499.783 742.697C497.958 743.201 497.238 743.25 492.821 743.225C487.948 743.225 487.876 743.201 484.587 742.337C480.674 741.305 478.01 740.105 474.769 737.944C470.592 735.16 467.087 731.223 464.854 726.805C463.918 724.909 462.454 720.876 461.878 718.451C461.734 717.899 461.494 717.011 461.374 716.483L461.11 715.523H458.973H456.812V717.011C456.812 717.851 457.029 723.325 457.293 729.206C457.557 735.088 457.773 741.425 457.773 743.298C457.773 745.626 457.869 746.73 458.037 746.73C458.181 746.73 459.213 746.274 460.341 745.722C462.238 744.786 462.502 744.714 464.326 744.714C466.799 744.714 469.103 745.242 473.833 746.85C482.163 749.683 487.252 750.499 495.318 750.259C502.015 750.067 506 749.155 511.522 746.586C518.219 743.466 524.221 737.632 526.669 731.895C528.446 727.718 529.19 723.109 528.998 717.731C528.71 709.689 526.189 703.64 520.788 698.118C516.851 694.085 512.074 691.301 498.967 685.395C488.5 680.69 485.499 679.154 481.731 676.585C476.233 672.84 473.881 668.351 474.169 662.206C474.433 656.996 476.689 653.035 480.962 650.227C486.268 646.746 494.454 646.098 501.799 648.57C510.85 651.595 517.115 658.989 519.348 669.263C519.492 669.936 519.516 669.936 520.956 669.864C521.844 669.816 522.444 669.672 522.516 669.503C522.588 669.335 522.516 665.927 522.372 661.918C522.228 657.933 522.036 651.931 521.964 648.618L521.796 642.545L520.836 643.409C519.252 644.849 518.003 645.306 515.507 645.282C513.25 645.258 513.298 645.258 507.225 643.145C501.271 641.057 495.174 640.216 489.532 640.648Z" fill="#F2EDE4"/>
<path d="M712.186 641.201C707.816 641.873 705.152 642.521 701.791 643.674C691.661 647.155 683.187 654.14 676.945 664.151C674.496 668.04 672.768 672.193 671.184 678.026C667.319 692.07 667.847 706.761 672.648 720.084C673.704 722.989 676.009 727.502 677.833 730.263C679.562 732.856 683.331 736.913 685.947 739.025C695.838 746.947 708.849 750.884 721.836 749.852C728.726 749.324 732.134 748.315 739.96 744.498C745.29 741.906 745.53 741.81 747.066 741.81C748.434 741.81 748.914 741.93 750.403 742.698C751.387 743.202 752.203 743.562 752.251 743.538C752.275 743.49 752.347 735.568 752.419 725.942C752.491 711.13 752.563 708.202 752.875 706.857C753.788 702.92 756.188 700.232 759.117 699.799L760.245 699.655V698.455V697.279H743.441H726.637V698.815V700.328L728.293 700.472C732.062 700.784 734.367 703.04 735.015 707.121C735.183 708.082 735.279 714.251 735.279 723.445V738.233L733.191 739.265C729.494 741.114 726.853 741.762 721.716 742.05C716.699 742.362 712.114 741.522 708.057 739.553C695.285 733.408 688.612 719.388 688.06 697.615C687.796 686.548 689.332 676.586 692.645 667.992C697.854 654.548 708.321 646.819 720.516 647.419C727.885 647.779 734.607 650.948 738.952 656.109C741.905 659.614 744.593 664.319 746.586 669.432L747.474 671.713L749.083 671.785L750.715 671.857L750.547 669.144C750.451 667.656 750.331 665.783 750.283 664.991C749.995 660.814 749.899 659.326 749.683 655.149C749.563 652.628 749.443 649.051 749.419 647.155C749.419 644.946 749.299 643.746 749.155 643.746C749.01 643.746 748.434 644.13 747.858 644.586C745.026 646.915 742.409 646.963 737.2 644.778C730.406 641.945 725.965 640.913 719.795 640.745C716.555 640.649 715.378 640.721 712.186 641.201Z" fill="#F2EDE4"/>
<path d="M180.072 643.912L180.144 645.281L181.224 645.545C183.601 646.169 185.209 647.513 186.29 649.866C187.778 653.035 187.73 651.426 187.706 693.389C187.706 717.611 187.61 732.542 187.442 734.079C186.818 740.392 185.017 743.513 181.368 744.665L180 745.097L180.072 746.514L180.144 747.906L196.948 747.954L213.752 748.002L213.824 746.442L213.896 744.857L213.032 744.713C210.511 744.233 208.519 742.697 207.535 740.488C206.142 737.367 206.118 737.199 206.022 720.011L205.926 704.239H215.121C232.597 704.215 237.11 703.615 244.24 700.302C247.48 698.79 249.761 697.206 252.306 694.661C258.115 688.851 260.924 681.65 260.924 672.551C260.924 664.053 258.619 658.172 253.122 652.747C248.153 647.825 241.983 644.705 234.253 643.216C231.565 642.712 231.132 642.688 205.758 642.616L180 642.52L180.072 643.912ZM222.754 649.506C228.804 650.25 233.509 652.507 236.558 656.155C238.286 658.244 240.351 662.397 240.975 665.11C241.743 668.422 242.055 672.72 241.743 676.032C240.663 688.059 234.229 695.357 223.235 697.061C221.866 697.278 218.673 697.398 213.632 697.398H206.07L205.998 673.632C205.974 660.549 205.998 649.722 206.07 649.554C206.214 649.194 219.706 649.146 222.754 649.506Z" fill="#F2EDE4"/>
<path d="M270.864 643.889L270.888 645.233L272.328 645.69C274.248 646.266 275.593 647.466 276.529 649.362C277.993 652.339 277.945 651.163 278.113 691.517C278.209 716.939 278.185 729.638 277.993 732.471C277.441 740.945 275.905 743.802 271.08 745.194C270.864 745.242 270.768 745.746 270.768 746.61V747.931L284.043 747.955C291.317 747.955 298.806 747.979 300.655 747.979H304.016V746.586V745.194L302.935 744.93C299.455 744.042 297.822 741.977 296.766 737.248C296.454 735.832 296.358 732.711 296.286 717.515C296.19 699.991 296.19 699.487 296.646 699.343C297.318 699.127 303.319 699.631 305.024 700.039C308.289 700.807 311.361 702.896 313.498 705.8C315.178 708.081 317.339 712.114 323.196 723.973C326.965 731.583 329.678 736.744 330.806 738.448C334.719 744.402 339.04 747.234 345.93 748.315C347.898 748.627 349.411 748.675 353.444 748.579C356.228 748.483 359.373 748.291 360.429 748.123L362.35 747.811L362.422 746.346L362.494 744.906L360.645 744.618C354.74 743.706 352.099 740.369 343.385 722.964C336.135 708.441 333.711 704.456 329.51 700.039C328.502 698.983 327.733 698.094 327.781 698.022C327.853 697.974 328.982 697.518 330.326 697.014C341.921 692.645 348.522 684.867 349.771 674.113C350.179 670.728 349.915 665.038 349.291 662.59C348.018 657.789 344.994 653.371 340.841 650.227C336.039 646.626 331.238 644.633 323.941 643.217C321.372 642.713 320.628 642.689 296.07 642.617L270.864 642.521V643.889ZM312.538 649.507C316.067 649.891 318.659 650.587 321.372 651.931C326.269 654.356 329.03 658.197 330.374 664.39C331.094 667.679 331.07 674.305 330.35 677.713C329.582 681.338 327.637 685.059 325.261 687.46C323.124 689.62 320.916 690.989 317.939 691.973C314.53 693.101 313.402 693.221 304.568 693.365L296.214 693.485V671.52V649.531L296.766 649.434C297.87 649.218 310.353 649.29 312.538 649.507Z" fill="#F2EDE4"/>
<path d="M368.711 643.865C368.711 644.729 368.807 645.233 369.023 645.281C372.528 646.242 373.512 646.986 374.736 649.578C376.177 652.699 376.153 651.667 376.153 695.358C376.153 720.468 376.057 735.711 375.913 736.768C375.577 739.024 374.832 741.209 373.992 742.385C373.152 743.537 371.16 744.738 369.743 744.954L368.711 745.098V746.634V748.146L404.984 748.05C424.933 748.002 441.305 747.906 441.377 747.858C441.425 747.786 441.569 747.066 441.689 746.226C441.833 745.386 442.625 740.032 443.489 734.367C444.353 728.678 445.097 723.685 445.146 723.252L445.266 722.46L443.321 722.532L441.401 722.604L440.584 725.485C440.128 727.093 439.168 729.59 438.4 731.126C437.272 733.455 436.791 734.151 435.351 735.567C432.879 738.016 429.614 739.6 424.885 740.657C423.372 740.969 420.996 741.065 409.881 741.137C399.534 741.209 396.558 741.161 396.078 740.921C395.093 740.417 394.445 738.736 394.157 736.048C393.989 734.511 393.917 726.877 393.965 714.922L394.037 696.198H403.639C414.058 696.222 415.066 696.318 417.635 697.614C419.987 698.814 422.004 701.671 422.772 704.888L423.084 706.16H424.452H425.845V692.117V678.073H424.452H423.084L422.676 680.018C421.62 685.155 418.907 688.012 414.202 688.996C412.69 689.308 403.687 689.5 395.766 689.38L393.917 689.356L393.965 669.359L394.037 649.386L406.52 649.314C413.89 649.266 419.939 649.338 421.284 649.482C430.43 650.467 434.007 653.923 436.647 664.318L436.912 665.35H438.448C439.312 665.35 440.008 665.278 440.008 665.158C440.008 665.062 439.84 663.094 439.648 660.789C439.456 658.485 439.168 653.419 439 649.554L438.712 642.545H403.711H368.711V643.865Z" fill="#F2EDE4"/>
<path d="M537.471 642.592C537.447 642.64 537.255 645.209 536.991 648.305C536.727 651.402 536.319 656.419 536.031 659.468C535.767 662.493 535.551 665.061 535.551 665.157C535.551 665.253 536.175 665.349 536.943 665.349H538.335L538.912 663.357C540.184 658.94 541.72 656.035 543.905 654.019C546.545 651.594 550.698 649.938 555.236 649.554C558.572 649.242 565.966 649.194 566.134 649.458C566.374 649.842 566.518 729.829 566.278 732.806C565.846 738.279 565.102 741.04 563.59 742.768C562.629 743.873 560.637 745.049 559.749 745.049C559.221 745.049 559.125 745.217 558.956 746.681L558.812 747.93H575.761H592.685V746.513V745.097L591.844 744.953C588.484 744.305 586.419 742.144 585.363 738.087C584.187 733.694 584.211 734.63 584.115 690.748C584.019 650.274 584.043 649.53 584.475 649.386C585.219 649.17 595.949 649.458 598.086 649.746C606.2 650.922 610.401 654.931 612.489 663.597L612.898 665.349H614.362H615.802L615.634 663.477C615.178 657.716 614.77 651.426 614.626 647.273L614.458 642.544H575.953C554.803 642.544 537.471 642.568 537.471 642.592Z" fill="#F2EDE4"/>
<path d="M625.093 643.984C625.093 645.305 625.141 645.425 625.645 645.425C626.461 645.449 628.238 646.337 629.126 647.177C630.206 648.185 631.286 650.394 631.718 652.362C632.175 654.547 632.511 727.837 632.079 732.686C631.766 736.263 631.358 738.327 630.614 740.344C629.918 742.192 628.07 744.089 626.413 744.689C625.765 744.929 625.141 745.193 625.069 745.265C624.973 745.337 624.853 745.985 624.781 746.657L624.637 747.93H641.297H657.981V746.537V745.121L656.973 744.809C652.556 743.513 650.851 740.512 650.275 732.95C649.915 728.341 650.131 656.539 650.515 654.307C651.043 651.042 651.907 648.833 653.156 647.513C653.948 646.649 655.724 645.713 656.997 645.521L657.981 645.353V643.96V642.544H641.537H625.093V643.984Z" fill="#F2EDE4"/>
<path d="M767.978 643.89L768.05 645.258L769.131 645.522C772.683 646.434 774.82 649.411 775.372 654.26C775.684 657.069 775.684 733.144 775.372 735.952C774.772 741.282 772.875 744.018 769.227 744.834L767.93 745.123V746.539V747.931H783.846C800.914 747.955 825.328 747.955 834.979 747.931H840.908V747.379C840.908 746.827 843.068 732.375 844.029 726.566C844.701 722.341 844.845 722.725 842.588 722.725C840.692 722.725 840.668 722.725 840.548 723.373C840.188 725.078 838.627 729.519 837.739 731.367C836.947 732.952 836.323 733.84 834.81 735.352C832.122 738.041 829.073 739.553 824.056 740.657C822.255 741.042 820.719 741.09 808.764 741.09H795.489L794.817 740.297C793.977 739.289 793.4 737.249 793.136 734.416C793.04 733.192 792.968 724.093 792.992 714.203L793.016 696.199L801.538 696.127C806.676 696.079 810.853 696.175 812.053 696.319C818.222 697.111 820.983 699.487 822.423 705.129L822.688 706.161H823.984H825.304V692.118V678.074H823.912H822.544L822.135 680.019C821.055 685.18 818.391 688.013 813.685 688.997C811.885 689.357 794.721 689.813 793.544 689.501L792.896 689.357V669.456C792.896 653.756 792.968 649.531 793.208 649.459C793.809 649.219 815.486 649.267 818.823 649.483C823.6 649.819 826.312 650.587 829.145 652.34C832.458 654.404 834.018 656.805 836.083 663.022L836.875 665.375L838.219 665.303C839.516 665.231 839.588 665.207 839.54 664.631C839.42 663.118 838.747 652.748 838.627 650.587C838.579 649.267 838.507 646.915 838.507 645.354V642.545H803.219H767.906L767.978 643.89Z" fill="#F2EDE4"/>
<path d="M492.284 791.348C485.561 792.784 480.36 797.68 478.663 804.164C478.141 806.21 478.141 810.953 478.663 812.977C480.143 818.525 484.32 821.463 490.065 820.941C491.936 820.766 493.873 820.179 495.069 819.417C497.92 817.633 499.574 813.521 499.008 809.626C498.377 805.035 495.091 802.315 490.217 802.315C488.041 802.315 486.105 802.859 484.538 803.925C483.907 804.338 483.363 804.643 483.298 804.578C483.08 804.36 484.038 801.336 484.799 799.921C486.953 795.831 490.391 793.481 495.178 792.85L496.201 792.719V791.849V791L494.961 791.022C494.264 791.022 493.068 791.174 492.284 791.348ZM490.892 805.035C492.328 805.448 493.633 806.601 494.221 807.972C494.874 809.495 495.048 812.019 494.591 813.912C493.764 817.394 492.154 818.852 489.195 818.852C485.321 818.83 483.146 815.566 483.146 809.822V807.406L483.972 806.623C485.757 804.904 488.411 804.295 490.892 805.035Z" fill="#F2EDE4"/>
<path d="M313.077 791.632C310.553 792.35 308.856 793.72 307.898 795.766C307.224 797.224 307.246 800.466 307.92 801.945C308.877 804.012 311.401 805.84 315.666 807.516C320.888 809.605 322.259 810.997 322.085 814.065C321.976 816.045 321.237 817.155 319.409 818.091C318.234 818.678 317.951 818.743 315.949 818.743C313.186 818.743 311.902 818.33 310.64 817.046C309.791 816.176 308.66 814.043 308.333 812.694C308.225 812.259 308.072 812.107 307.659 812.107C307.376 812.107 307.093 812.172 307.05 812.259C306.919 812.499 307.246 819.07 307.398 819.222C307.463 819.266 308.573 819.614 309.835 819.962C319.757 822.616 326.481 819.635 326.481 812.629C326.481 808.647 324.392 806.362 318.582 804.078C314.622 802.511 312.381 801.01 311.75 799.552C311.293 798.442 311.401 796.68 311.967 795.679C312.946 793.96 315.645 792.959 318.256 793.394C320.867 793.807 321.585 794.569 322.89 798.333C322.934 798.486 323.325 798.616 323.761 798.616H324.522V795.657V792.719L323.761 792.393C320.954 791.218 315.797 790.848 313.077 791.632Z" fill="#F2EDE4"/>
<path d="M398.175 791.632C396.326 792.089 393.693 793.264 393.062 793.938C392.67 794.373 392.605 794.635 392.67 796.245L392.735 798.073L393.497 798.138C394.215 798.203 394.302 798.138 394.737 797.246C395.869 794.917 397.805 793.612 400.133 793.612C402.592 793.612 404.094 794.439 405.094 796.31C405.769 797.572 405.769 801.206 405.094 803.012C404.05 805.819 401.831 808.582 395.738 814.74C391.778 818.722 391.734 818.787 391.8 819.636L391.865 820.484L393.388 820.463C394.237 820.463 398.545 820.441 402.984 820.419L411.035 820.376L411.296 817.373C411.644 813.413 411.666 813.63 410.948 813.63C410.447 813.63 410.295 813.761 410.055 814.435C409.163 816.916 408.598 817.112 402.179 817.112C398.153 817.112 397.174 817.046 397.239 816.829C397.283 816.677 399.241 814.675 401.591 812.39C408.249 805.928 409.098 804.905 410.034 802.098C410.708 800.096 410.578 797.028 409.773 795.461C409.098 794.178 408.119 793.133 406.9 792.415C404.899 791.24 401.091 790.914 398.175 791.632Z" fill="#F2EDE4"/>
<path d="M429.923 791.436C425.071 792.155 421.698 795.375 420.219 800.728C419.588 803.012 419.522 808.844 420.11 811.02C421.568 816.438 424.005 819.353 427.965 820.485C428.966 820.768 429.836 820.833 431.708 820.768C434.079 820.681 434.232 820.637 435.994 819.767C440.063 817.743 442.348 813.674 442.783 807.647C442.957 805.297 442.587 801.729 441.978 799.748C440.542 795.027 437.387 792.046 433.209 791.436C431.533 791.197 431.512 791.197 429.923 791.436ZM432.904 793.874C434.819 794.439 436.407 796.637 437.256 799.857C437.822 802.033 438.061 807.451 437.691 810.215C436.951 815.654 434.58 818.853 431.272 818.853C428.422 818.831 426.246 816.438 425.006 811.934C424.353 809.605 424.288 802.12 424.897 799.923C425.724 796.898 427.138 794.809 428.857 794.026C429.858 793.569 431.686 793.504 432.904 793.874Z" fill="#F2EDE4"/>
<path d="M456.927 791.566C455.251 791.914 452.118 793.307 451.4 794.025C451.008 794.416 450.943 794.743 450.943 796.309C450.943 798.246 451.03 798.398 452.14 798.398C452.531 798.398 452.814 798.094 453.402 797.027C454.686 794.765 455.991 793.851 458.232 793.677C461.496 793.415 463.498 794.96 464.02 798.224C464.434 800.727 463.65 803.555 461.757 806.362C460.408 808.407 459.385 809.582 454.62 814.544C450.834 818.46 450.508 818.874 450.508 819.592V820.375H460.06H469.59L469.852 817.59C470.004 816.067 470.156 814.565 470.2 814.217C470.287 813.695 470.221 813.63 469.678 813.63C469.134 813.63 468.981 813.804 468.437 814.87C467.393 816.937 467.219 816.981 461.126 817.068C456.796 817.133 455.948 817.089 455.948 816.85C455.948 816.676 458.189 814.369 460.93 811.715C467.806 805.057 468.851 803.425 468.872 799.269C468.872 797.637 468.764 796.94 468.372 795.961C466.914 792.24 462.258 790.456 456.927 791.566Z" fill="#F2EDE4"/>
<path d="M277.371 791.827C276.022 791.892 276 791.914 276 792.501C276 793.067 276.087 793.132 277.023 793.284C278.176 793.458 279.264 794.351 279.286 795.177C279.286 795.46 279.307 800.465 279.307 806.296C279.307 813.673 279.22 817.111 279.046 817.524C278.763 818.22 277.937 818.743 276.827 818.96C276.109 819.091 276 819.199 276 819.722V820.309L286.792 820.461C292.733 820.549 297.628 820.57 297.694 820.505C297.846 820.374 298.608 814.978 298.629 813.999C298.629 813.499 298.542 813.412 298.02 813.412C297.454 813.412 297.302 813.586 296.475 815.261C295.344 817.524 294.647 818.09 292.428 818.394C289.425 818.83 284.986 818.568 284.355 817.937C284.029 817.589 283.964 816.153 284.007 810.626L284.051 806.449H287.423C290.709 806.449 290.84 806.47 291.34 806.971C291.623 807.254 291.971 807.885 292.102 808.385C292.319 809.169 292.406 809.277 292.972 809.277H293.625V805.23V801.205L292.929 801.27C292.298 801.335 292.232 801.422 291.993 802.488C291.536 804.469 291.471 804.49 287.489 804.49H284.051V799.159V793.828H287.924C290.035 793.828 292.145 793.937 292.602 794.068C293.734 794.372 294.822 795.395 295.279 796.548C295.605 797.44 295.714 797.527 296.388 797.527H297.128L297.063 794.633L296.997 791.761H287.859C282.832 791.761 278.111 791.783 277.371 791.827Z" fill="#F2EDE4"/>
<path d="M334.619 791.827C333.074 791.892 333.052 791.892 332.922 792.567C332.856 792.937 332.791 794.395 332.791 795.809V798.398H333.4C333.966 798.398 334.053 798.29 334.401 797.18C334.88 795.657 336.033 794.351 337.165 794.046C337.622 793.916 339.058 793.851 340.341 793.872L342.691 793.938L342.757 805.709C342.8 817.285 342.8 817.503 342.365 818.047C342.039 818.46 341.56 818.678 340.624 818.874C339.384 819.113 339.319 819.156 339.319 819.744V820.375H345.085H350.851V819.744C350.851 819.156 350.764 819.091 349.937 818.961C348.762 818.765 347.935 818.33 347.5 817.72C347.195 817.285 347.152 815.784 347.152 805.535V793.829H349.785C353.506 793.829 354.463 794.395 355.399 797.115C355.747 798.181 355.856 798.29 356.487 798.355L357.183 798.42L357.118 795.156L357.052 791.871L346.608 791.827C340.864 791.784 335.467 791.784 334.619 791.827Z" fill="#F2EDE4"/>
<path d="M365.082 815.72C363.254 816.613 363.211 819.572 365.039 820.507C365.866 820.943 367.215 820.812 368.02 820.203C368.324 819.985 368.716 819.376 368.89 818.875C369.129 818.092 369.129 817.831 368.868 817.157C368.303 815.633 366.562 814.981 365.082 815.72Z" fill="#F2EDE4"/>
<path d="M555.951 792.139C550.787 792.907 546.423 795.95 544.302 800.253C539.784 809.412 544.486 819.678 554.106 821.645C557.795 822.382 563.358 821.952 568.337 820.538L569.935 820.077L569.781 815.866C569.566 811.133 569.72 810.672 571.502 810.303C572.301 810.15 572.609 809.904 572.67 809.412L572.762 808.736H566.923C561.391 808.736 561.052 808.767 561.052 809.32C561.052 809.904 561.821 810.273 563.142 810.273C563.542 810.273 564.187 810.611 564.587 811.041C565.294 811.748 565.355 811.994 565.355 815.037V818.264L564.403 818.848C562.958 819.739 559.885 820.169 557.702 819.831C551.74 818.878 548.144 813.807 548.144 806.4C548.144 797.456 554.045 792.262 561.636 794.567C564.218 795.335 565.417 796.411 566.769 799.085C567.415 800.376 567.845 800.929 568.367 800.991C569.136 801.114 569.197 800.683 568.828 796.934L568.644 794.813L566.769 793.952C563.419 792.385 559.085 791.678 555.951 792.139Z" fill="#F2EDE4"/>
<path d="M730.496 792.48C729.758 792.695 729.451 793.033 729.143 793.924C728.375 796.352 720.507 815.992 719.769 817.344C719.001 818.727 717.71 819.803 716.788 819.803C716.235 819.803 715.866 821.032 716.388 821.217C716.603 821.278 718.632 821.309 720.906 821.278C724.748 821.186 725.025 821.155 725.025 820.602C725.025 820.172 724.717 819.926 724.041 819.742C722.197 819.25 722.228 818.543 724.502 812.888L725.117 811.351H730.25H735.413L736.765 814.732C737.472 816.576 738.087 818.328 738.087 818.604C738.087 819.219 737.534 819.68 736.704 819.865C736.335 819.926 736.059 820.264 735.997 820.664L735.905 821.34H741.437C746.816 821.34 747 821.309 747 820.725C747 820.387 746.754 820.018 746.478 819.926C744.879 819.434 743.927 818.697 743.22 817.375C742.298 815.685 741.96 814.885 736.827 802.13C732.524 791.404 732.77 791.804 730.496 792.48ZM732.463 803.729C733.538 806.556 734.399 808.954 734.399 809.107C734.399 809.23 732.524 809.353 730.25 809.353C727.975 809.353 726.101 809.23 726.101 809.077C726.101 808.892 728.068 803.514 729.758 799.088C729.973 798.596 730.188 798.289 730.311 798.412C730.434 798.504 731.387 800.901 732.463 803.729Z" fill="#F2EDE4"/>
<path d="M580.843 792.91C580.566 793.555 580.904 793.893 582.072 794.109C584.07 794.477 584.009 794.17 584.132 806.925C584.255 817.928 584.224 818.543 583.671 819.158C583.363 819.496 582.626 819.865 582.072 819.988C581.335 820.11 581.027 820.356 581.027 820.756C581.027 821.309 581.458 821.34 592.369 821.34H603.679L603.863 820.172C603.986 819.557 604.14 818.02 604.263 816.791C604.447 814.701 604.447 814.578 603.863 814.578C603.433 814.578 603.095 814.916 602.818 815.531C602.296 816.853 601.128 818.205 600.052 818.758C598.792 819.404 591.692 819.711 590.156 819.219C589.049 818.85 589.018 818.789 588.957 817.252C588.926 815.93 588.957 810.828 589.018 808.646C589.018 808.185 589.418 808.124 592.799 808.124C596.979 808.124 597.409 808.277 597.901 810.152C598.054 810.736 598.362 811.074 598.792 811.136C599.468 811.228 599.468 811.167 599.468 807.202C599.468 803.237 599.468 803.175 598.792 803.268C598.362 803.329 598.054 803.667 597.901 804.22C597.44 805.911 597.255 805.972 592.983 805.972C590.832 805.972 588.988 805.849 588.895 805.696C588.803 805.542 588.803 802.991 588.926 800.01L589.111 794.6H593.69C599.622 794.6 600.575 794.969 601.466 797.582C601.773 798.473 602.05 798.78 602.665 798.842L603.464 798.934V795.707V792.449H592.246C582.718 792.449 580.997 792.51 580.843 792.91Z" fill="#F2EDE4"/>
<path d="M613.303 793.184C613.303 793.768 613.487 793.922 614.409 794.075C616.776 794.475 616.684 793.922 616.684 806.8C616.684 814.022 616.561 818.51 616.376 818.878C616.192 819.216 615.516 819.616 614.839 819.8C613.948 820.046 613.61 820.292 613.61 820.722C613.61 821.306 613.856 821.337 618.374 821.337C622.923 821.337 623.138 821.306 623.138 820.722C623.138 820.261 622.8 820.046 621.724 819.77C619.45 819.186 619.48 819.309 619.45 808.797C619.419 803.695 619.48 799.485 619.573 799.454C619.665 799.392 621.816 801.79 624.398 804.74C626.949 807.691 631.344 812.701 634.141 815.866L639.243 821.645H640.564H641.886V808.767C641.886 796.227 641.917 795.889 642.531 795.089C642.931 794.567 643.576 794.229 644.376 794.106C645.39 793.922 645.574 793.799 645.574 793.153V792.416L640.749 792.508C636.169 792.6 635.893 792.631 635.893 793.215C635.893 793.645 636.2 793.891 637.03 794.075C639.12 794.567 639.058 794.321 639.181 804.986C639.243 810.242 639.181 814.545 639.058 814.514C638.69 814.36 629.008 803.173 624.429 797.61L620.218 792.477L616.776 792.446C613.333 792.446 613.303 792.446 613.303 793.184Z" fill="#F2EDE4"/>
<path d="M653.232 792.507C653.232 792.568 653.171 792.845 653.109 793.152C653.017 793.736 653.109 793.798 654.554 794.105C656.398 794.505 656.336 794.167 656.336 807.014C656.336 820.107 656.429 819.492 654.247 819.953C653.478 820.107 653.263 820.291 653.324 820.752C653.417 821.336 653.785 821.367 664.911 821.367C671.243 821.367 676.437 821.306 676.498 821.275C676.591 821.152 677.543 815.374 677.543 814.882C677.543 814.728 677.267 814.575 676.929 814.575C676.498 814.575 676.099 815.036 675.546 816.081C674.624 817.925 673.517 818.755 671.427 819.216C669.307 819.646 662.33 819.462 661.807 818.939C661.531 818.663 661.377 817.095 661.315 813.345L661.223 808.182L662.975 807.936C664.666 807.752 668.415 807.936 669.337 808.305C669.614 808.397 670.044 809.012 670.29 809.688C670.69 810.641 670.935 810.887 671.55 810.887H672.349L672.257 806.799C672.165 802.865 672.134 802.742 671.489 802.65C670.966 802.557 670.751 802.742 670.597 803.418C670.474 803.879 670.167 804.586 669.921 804.985C669.491 805.662 669.337 805.662 665.434 805.6L661.408 805.508L661.315 800.099L661.254 794.658L663.989 794.443C667.401 794.167 670.259 794.474 671.796 795.273C672.687 795.703 673.148 796.257 673.64 797.363C674.163 798.531 674.47 798.9 675.023 798.9C675.669 798.9 675.699 798.808 675.699 795.673V792.446H664.481C658.303 792.446 653.263 792.476 653.232 792.507Z" fill="#F2EDE4"/>
<path d="M683.072 793.215C683.072 793.768 683.226 793.983 683.687 793.983C685.039 793.983 685.931 794.751 686.883 796.749C687.406 797.856 689.926 803.91 692.446 810.18L697.057 821.645H698.747H700.437L704.033 812.947C706 808.183 708.398 802.343 709.35 799.976C710.272 797.61 711.256 795.428 711.502 795.12C711.717 794.782 712.455 794.352 713.1 794.137C713.868 793.86 714.268 793.553 714.268 793.153C714.268 792.631 713.899 792.6 709.719 792.508C705.171 792.416 705.171 792.416 705.263 793.122C705.324 793.583 705.662 793.86 706.338 794.044C708.428 794.598 708.459 794.475 703.757 806.584C702.159 810.734 700.683 814.575 700.499 815.129C700.314 815.682 700.038 816.081 699.915 816.051C699.577 815.928 691.678 796.196 691.678 795.489C691.678 794.782 692.293 794.352 693.706 794.044C694.598 793.86 694.905 793.645 694.905 793.215C694.905 792.631 694.629 792.6 689.004 792.508L683.072 792.446V793.215Z" fill="#F2EDE4"/>
<path d="M502.471 155.226C502.508 155.362 502.865 156.63 503.271 158.057C504.773 163.301 505.487 166.071 506.693 171.29C507.776 175.967 508.109 177.604 507.998 177.703C507.949 177.752 507.05 177.604 506.004 177.37C503.444 176.804 502.643 176.632 500.834 176.287C499.985 176.115 498.249 175.721 496.957 175.413C495.676 175.105 494.015 174.712 493.264 174.552C492.525 174.379 490.285 173.85 488.303 173.345C486.322 172.853 484.672 172.471 484.635 172.508C484.611 172.533 484.586 177.961 484.586 184.547C484.586 195.908 484.598 196.536 484.808 196.474C485.805 196.191 493.572 194.332 495.603 193.889C497.264 193.52 497.154 193.544 498.754 193.138C500.44 192.695 504.785 191.797 507.358 191.353C507.666 191.304 507.949 191.28 507.986 191.304C508.022 191.329 507.936 191.944 507.776 192.671C507.493 193.963 505.856 200.831 505.635 201.693C505.179 203.404 504.305 206.74 503.727 209.017C503.345 210.506 502.902 212.193 502.73 212.771C502.57 213.337 502.434 213.867 502.434 213.941C502.434 214.014 503.357 214.064 505.167 214.064H507.912L507.949 214.396C507.973 214.618 507.936 214.741 507.838 214.741C507.752 214.741 507.567 214.851 507.432 214.975C507.284 215.11 506.496 215.553 505.671 215.959C503.062 217.252 501.216 218.544 499.418 220.341C498.348 221.412 496.809 223.382 496.095 224.6C494.642 227.087 493.485 230.324 493.018 233.167C492.919 233.795 492.858 233.783 494.482 233.512C499.381 232.724 506.693 232.01 510.337 231.961L511.407 231.949L511.432 225.031C511.444 221.24 511.457 217.215 511.469 216.095L511.481 214.064L514.669 214.027C516.43 214.014 517.907 214.039 517.956 214.088C518.017 214.15 518.067 218.163 518.067 223.025C518.079 227.874 518.128 231.875 518.165 231.9C518.214 231.924 519.162 231.986 520.282 232.023C521.402 232.072 522.449 232.133 522.621 232.158C522.793 232.183 523.507 232.244 524.221 232.281C526.72 232.429 532.678 233.13 535.263 233.561C535.952 233.684 536.543 233.758 536.567 233.734C536.653 233.66 536.173 231.346 535.853 230.275C535.201 228.133 535.041 227.727 534.241 226.213C532.85 223.579 531.853 222.2 529.92 220.243C527.939 218.236 526.289 217.067 523.273 215.553C522.08 214.962 521.649 214.679 521.599 214.482C521.563 214.334 521.55 214.162 521.587 214.101C521.624 214.039 522.892 214.002 524.381 214.014C526.991 214.027 527.114 214.027 527.077 213.805C527.052 213.67 526.831 212.907 526.597 212.094C526.351 211.282 525.895 209.595 525.575 208.34C525.255 207.084 524.911 205.78 524.812 205.447C524.701 205.103 524.566 204.549 524.492 204.216C524.406 203.872 524.16 202.825 523.938 201.878C523.704 200.93 523.421 199.711 523.298 199.17C523.175 198.628 522.867 197.323 522.609 196.277C521.538 191.957 521.39 191.23 521.624 191.23C521.772 191.23 528.973 192.695 529.514 192.831C530.844 193.175 532.05 193.471 533.084 193.692C533.724 193.84 534.721 194.061 535.299 194.185C535.878 194.32 536.924 194.566 537.638 194.726C538.352 194.886 539.485 195.157 540.162 195.329C540.839 195.514 542.119 195.822 542.993 196.031C543.879 196.24 544.691 196.437 544.802 196.474C544.999 196.536 545.011 195.723 544.987 184.46C544.974 177.826 544.925 172.397 544.888 172.397C544.851 172.397 542.968 172.865 540.703 173.444C538.438 174.01 535.213 174.785 533.515 175.167C531.828 175.549 530.13 175.93 529.76 176.029C529.391 176.127 527.508 176.546 525.575 176.952C523.643 177.358 521.944 177.727 521.796 177.764C521.341 177.887 521.366 177.715 522.51 173.013C522.904 171.351 523.458 169.049 523.741 167.905C524.012 166.748 524.455 165.012 524.714 164.027C524.972 163.043 525.575 160.716 526.055 158.858C526.548 156.999 526.966 155.374 527.003 155.263C527.065 155.054 526.388 155.042 514.743 155.017C502.471 154.98 502.422 154.98 502.471 155.226ZM518.313 184.473C518.313 184.547 518.264 184.559 518.19 184.522C518.128 184.485 518.067 184.387 518.067 184.325C518.067 184.251 518.128 184.239 518.19 184.276C518.264 184.313 518.313 184.411 518.313 184.473ZM539.115 185.088C539.115 185.162 539.066 185.174 538.992 185.137C538.931 185.1 538.869 185.002 538.869 184.94C538.869 184.867 538.931 184.854 538.992 184.891C539.066 184.928 539.115 185.027 539.115 185.088ZM522.621 185.691C522.621 185.753 522.596 185.814 522.572 185.814C522.535 185.814 522.473 185.753 522.436 185.691C522.4 185.617 522.424 185.568 522.486 185.568C522.56 185.568 522.621 185.617 522.621 185.691ZM504.736 190.566C504.699 190.603 504.588 190.615 504.502 190.578C504.404 190.541 504.441 190.504 504.576 190.504C504.711 190.492 504.785 190.529 504.736 190.566ZM542.98 194.074C542.943 194.135 542.857 194.16 542.796 194.111C542.734 194.074 542.71 193.988 542.759 193.926C542.796 193.864 542.882 193.84 542.943 193.889C543.005 193.926 543.03 194.012 542.98 194.074ZM513.254 198.197C513.278 198.222 513.278 198.283 513.229 198.32C513.131 198.431 512.651 198.247 512.651 198.111C512.651 198 513.106 198.074 513.254 198.197ZM512.343 198.616C512.38 198.677 512.331 198.739 512.232 198.739C512.121 198.739 512.035 198.677 512.035 198.616C512.035 198.542 512.084 198.493 512.146 198.493C512.22 198.493 512.306 198.542 512.343 198.616ZM512.835 212.624C512.798 212.66 512.7 212.624 512.614 212.537C512.503 212.414 512.515 212.402 512.688 212.476C512.811 212.513 512.872 212.587 512.835 212.624ZM515.568 212.673C515.531 212.771 515.494 212.734 515.494 212.599C515.482 212.463 515.519 212.39 515.556 212.439C515.593 212.476 515.605 212.587 515.568 212.673ZM509.303 215.418C509.266 215.455 509.192 215.393 509.155 215.27C509.081 215.098 509.093 215.085 509.216 215.196C509.303 215.282 509.34 215.381 509.303 215.418ZM521.058 226.274C520.972 226.299 520.824 226.299 520.75 226.274C520.664 226.237 520.725 226.213 520.898 226.213C521.07 226.213 521.132 226.237 521.058 226.274ZM529.145 231.739C529.145 231.813 529.096 231.826 529.022 231.789C528.96 231.752 528.899 231.776 528.899 231.863C528.899 231.949 528.874 231.986 528.837 231.949C528.726 231.85 528.911 231.481 529.034 231.555C529.096 231.592 529.145 231.678 529.145 231.739Z" fill="#C8A84E"/>
<path d="M453.849 197.964C453.972 198.149 454.501 200.525 454.92 202.679C455.043 203.319 455.339 204.759 455.572 205.879C456.212 208.944 456.569 210.914 456.483 211C456.397 211.086 455.018 210.84 450.427 209.917C448.741 209.572 447.104 209.252 446.796 209.203C446.488 209.141 445.774 208.993 445.196 208.858C444.617 208.71 443.965 208.563 443.731 208.513L443.312 208.439L443.386 208.907C444.002 212.772 444.002 217.708 443.399 221.561L443.325 222.029L443.731 221.943C443.965 221.906 444.617 221.758 445.196 221.622C451.449 220.195 456.36 219.21 456.496 219.358C456.532 219.395 456.2 221.229 455.745 223.457C455.302 225.672 454.871 227.839 454.797 228.282C454.662 229.069 454.145 231.42 453.948 232.184C453.886 232.405 453.874 232.59 453.935 232.59C453.985 232.59 454.489 232.504 455.068 232.405C455.634 232.307 456.397 232.196 456.766 232.159C457.136 232.11 457.517 232.061 457.616 232.024C457.714 231.987 458.773 231.937 459.954 231.913C462.109 231.864 464.016 232.011 466.207 232.393C466.737 232.479 467.18 232.553 467.192 232.541C467.204 232.541 467.106 231.999 466.971 231.359C466.835 230.719 466.638 229.771 466.552 229.266C466.454 228.762 466.232 227.654 466.047 226.805C465.875 225.955 465.654 224.909 465.567 224.466C465.481 224.023 465.21 222.706 464.977 221.524C464.73 220.342 464.558 219.333 464.583 219.284C464.62 219.235 464.853 219.247 465.1 219.308C465.358 219.358 466.454 219.579 467.537 219.788C469.297 220.133 470.589 220.404 472.091 220.773C472.953 220.982 477.704 222.004 477.815 222.004C477.876 222.004 477.901 221.93 477.876 221.844C477.852 221.77 477.704 220.502 477.556 219.05C477.273 216.256 477.286 213.129 477.569 211.049C477.827 209.227 477.926 208.403 477.889 208.378C477.864 208.353 476.978 208.538 475.895 208.772C472.904 209.436 470.097 210.027 469.137 210.187C468.669 210.274 467.475 210.495 466.503 210.692C465.518 210.889 464.693 211.024 464.669 211C464.644 210.975 464.915 209.547 465.272 207.824C465.617 206.113 465.974 204.353 466.06 203.91C466.146 203.467 466.281 202.777 466.367 202.371C466.441 201.965 466.675 200.808 466.884 199.811C467.081 198.801 467.217 197.952 467.18 197.915C467.143 197.866 466.675 197.903 466.146 197.977C462.392 198.543 458.01 198.518 454.28 197.928C453.96 197.866 453.8 197.891 453.849 197.964ZM456.643 230.005C456.643 230.066 456.594 230.128 456.52 230.128C456.459 230.128 456.397 230.066 456.397 230.005C456.397 229.931 456.459 229.882 456.52 229.882C456.594 229.882 456.643 229.931 456.643 230.005Z" fill="#C8A84E"/>
<path d="M574.01 198.064C570.822 198.47 566.994 198.519 564.409 198.199C564.138 198.162 563.56 198.101 563.129 198.052L562.341 197.965L562.415 198.384C562.452 198.618 562.711 199.886 562.981 201.203C563.585 204.169 564.68 209.819 564.791 210.545C564.865 211.062 564.852 211.087 564.582 211.013C564.422 210.976 563.794 210.853 563.178 210.742C560.015 210.151 553.196 208.748 552.199 208.477L551.805 208.367L551.866 209.13C551.903 209.536 551.965 209.954 551.989 210.041C552.297 211.025 552.297 217.438 551.989 220.011C551.866 221.045 551.792 221.919 551.817 221.944C551.866 221.993 554.956 221.316 557.147 220.774C557.688 220.639 559.301 220.306 560.716 220.036C562.144 219.753 563.658 219.457 564.101 219.359C564.532 219.26 564.914 219.211 564.951 219.248C565 219.297 564.188 223.544 563.535 226.559C563.375 227.335 563.166 228.393 563.068 228.898C562.981 229.403 562.772 230.424 562.624 231.151C562.477 231.889 562.378 232.505 562.403 232.529C562.415 232.554 562.723 232.517 563.055 232.455C566.613 231.815 570.342 231.729 573.543 232.209C574.515 232.357 575.389 232.505 575.5 232.554C575.672 232.615 575.697 232.579 575.635 232.332C575.512 231.84 573.321 220.737 573.161 219.753C573.087 219.359 573.112 219.297 573.309 219.297C573.567 219.297 578.749 220.343 580.657 220.774C581.654 220.996 585.298 221.82 585.987 221.968C586.307 222.042 586.295 222.14 586.086 220.59C585.729 218.005 585.618 215.297 585.79 212.601C585.839 211.665 585.913 210.742 585.95 210.57C585.987 210.398 586.049 209.942 586.086 209.573C586.123 209.204 586.172 208.761 586.209 208.6C586.258 208.367 586.233 208.33 586.049 208.391C585.926 208.44 585.076 208.65 584.165 208.847C583.254 209.044 582.036 209.314 581.457 209.45C580.879 209.573 580.054 209.745 579.611 209.819C579.168 209.893 578.429 210.028 577.949 210.127C577.482 210.213 576.312 210.435 575.364 210.619C574.417 210.792 573.518 210.964 573.37 211.001C573.038 211.062 573.013 210.878 573.21 210.041C573.358 209.438 574.232 205.068 574.564 203.295C574.687 202.655 574.983 201.277 575.229 200.243C575.475 199.209 575.672 198.249 575.672 198.113C575.672 197.855 575.746 197.855 574.01 198.064ZM556.47 211.099C556.47 211.136 556.421 211.198 556.347 211.235C556.285 211.272 556.224 211.247 556.224 211.185C556.224 211.112 556.285 211.05 556.347 211.05C556.421 211.05 556.47 211.075 556.47 211.099ZM583.673 212.527C583.575 212.589 583.464 212.613 583.439 212.576C583.402 212.539 583.451 212.466 583.55 212.404C583.648 212.342 583.759 212.318 583.784 212.355C583.821 212.392 583.771 212.466 583.673 212.527ZM567.917 216.528C567.831 216.638 567.733 216.688 567.683 216.651C567.647 216.614 567.696 216.528 567.794 216.466C568.053 216.294 568.09 216.318 567.917 216.528ZM572.472 229.514C572.472 229.575 572.447 229.637 572.422 229.637C572.386 229.637 572.324 229.575 572.287 229.514C572.25 229.44 572.275 229.391 572.336 229.391C572.41 229.391 572.472 229.44 572.472 229.514Z" fill="#C8A84E"/>
<path d="M567.733 238.77C562.736 239.065 558.575 239.878 553.393 241.576C549.221 242.955 542.771 246.02 539.903 247.989C539.459 248.297 539.312 248.519 538.807 249.725C536.998 254.021 533.933 264.619 533.834 266.908C533.81 267.413 533.834 267.438 534.339 267.659C534.634 267.782 535.114 267.991 535.422 268.127C535.73 268.262 536.481 268.558 537.084 268.779C537.699 269.001 538.524 269.309 538.93 269.456C540.776 270.158 545.429 271.623 546.537 271.857C546.82 271.906 547.719 272.127 548.531 272.349C550.562 272.878 553.356 273.42 555.486 273.703C556.471 273.838 557.628 273.998 558.071 274.06C563.905 274.897 572.571 274.995 578.75 274.306C583.588 273.764 588.967 272.829 592.266 271.967C593.238 271.709 593.275 271.684 593.115 271.438C593.016 271.29 592.721 270.786 592.438 270.306C591.158 268.115 588.204 264.742 585.976 262.969L584.88 262.095L584.252 262.243C582.147 262.748 580.449 263.092 579.119 263.302C578.541 263.388 577.273 263.597 576.288 263.769C569.998 264.877 561.53 264.791 554.193 263.548C553.59 263.437 552.729 263.289 552.286 263.228C550.156 262.883 545.306 261.554 542.401 260.52C541.515 260.2 541.343 260.101 541.478 259.966C541.65 259.794 546.205 257.467 547.423 256.926C552.396 254.735 555.855 253.491 559.671 252.544C563.758 251.534 566.219 251.239 569.888 251.35C572.534 251.411 573.617 251.559 576.104 252.162C577.827 252.581 581.138 253.836 582.96 254.747C585.459 256.002 588.807 258.378 590.961 260.434C593.263 262.625 595.823 265.85 597.078 268.164C598.248 270.281 599.873 273.974 600.119 275.02C600.156 275.205 600.266 275.598 600.365 275.894C600.771 277.149 601.436 280.731 601.657 282.873C601.83 284.596 601.793 288.388 601.584 290.271C601.263 293.213 600.673 296.524 600.033 299.121C599.614 300.758 598.248 305.559 598.075 305.99C598.014 306.137 597.595 307.233 597.152 308.414C596.709 309.596 595.884 311.689 595.343 313.067L594.333 315.566L593.472 314.667C592.032 313.178 589.558 311.024 588.228 310.101C587.145 309.362 585.828 308.488 585.028 308.008C584.166 307.491 584.092 307.467 584.018 307.688C583.883 308.033 583.674 312.87 583.735 313.892C583.772 314.36 583.821 315.209 583.858 315.775C584.006 318.003 584.708 321.77 585.446 324.355C585.68 325.167 585.852 325.844 585.828 325.869C585.803 325.893 585.065 325.819 584.166 325.709C580.375 325.253 574.097 325.659 569.961 326.644C568.374 327.013 565.949 327.777 565.949 327.9C565.949 328.047 566.995 329.488 567.967 330.694C571.254 334.768 574.922 338.252 578.221 340.455C579.046 341.009 579.735 341.526 579.735 341.6C579.735 341.686 579.599 341.834 579.427 341.944C578.935 342.277 575.796 345.12 575.119 345.859C573.814 347.274 571.82 349.748 571.574 350.265C571.525 350.364 571.094 351.053 570.638 351.804C569.949 352.924 569.838 353.17 569.998 353.232C570.565 353.453 573.186 353.638 575.734 353.638C579.095 353.626 580.276 353.515 583.157 352.912C583.575 352.826 583.92 352.789 583.92 352.838C583.92 352.887 583.785 353.318 583.625 353.786C582.197 357.848 581.372 362.353 581.15 367.239C581.101 368.433 581.113 368.741 581.237 368.692C585.459 367.03 588.757 365.332 591.724 363.313C592.216 362.981 592.696 362.697 592.77 362.697C592.967 362.697 591.859 364.31 590.985 365.295C588.117 368.507 584.794 370.341 580.523 371.068C577.667 371.56 574.454 371.252 571.734 370.243C567.869 368.803 564.964 366.501 562.662 363.067C560.766 360.236 559.351 356.026 558.797 351.632C558.699 350.77 558.612 350.425 558.551 350.585C558.489 350.708 558.243 351.373 557.997 352.05C557.332 353.872 555.978 356.629 555.055 358.045C550.193 365.455 542.094 369.295 534.093 367.99C530.757 367.449 527.261 365.664 524.467 363.079L523.79 362.464L525.39 362.451C526.276 362.451 528.221 362.439 529.735 362.439C531.237 362.427 532.468 362.377 532.468 362.316C532.468 362.267 532.271 361.725 532.037 361.134C530.769 357.946 526.326 346.523 526.227 346.179C526.166 345.969 527.396 346.511 532.099 348.764C534.487 349.896 536.087 350.647 537.33 351.213C538.007 351.521 538.979 351.964 539.484 352.198C539.989 352.444 540.875 352.85 541.453 353.109C542.032 353.379 542.598 353.65 542.721 353.724C542.857 353.798 542.98 353.835 543.004 353.798C543.029 353.773 543.041 345.551 543.029 335.519L542.992 317.289L542.069 317.732C541.564 317.966 540.727 318.348 540.223 318.569C538.438 319.345 535.594 320.625 534.339 321.228C533.637 321.561 533.046 321.831 533.022 321.831C532.997 321.831 532.099 322.238 531.028 322.742C529.957 323.235 528.812 323.776 528.467 323.924C528.135 324.072 527.704 324.281 527.52 324.367C527.089 324.589 527.027 324.453 527.286 323.924C527.409 323.69 528.357 321.77 529.415 319.677C532.628 313.277 535.299 307.762 535.225 307.688C535.188 307.651 532.677 307.614 529.661 307.614H524.159V306.199C524.159 304.931 524.221 303.774 524.405 301.152C524.455 300.438 524.578 298.961 524.959 294.136C525.575 286.578 526.264 280.116 526.855 276.534C526.966 275.894 527.187 274.478 527.36 273.395C527.532 272.312 527.729 271.18 527.79 270.872C527.852 270.564 528.11 269.259 528.344 267.979C528.59 266.687 528.898 265.173 529.021 264.594C529.144 264.016 529.341 263.105 529.452 262.563C529.563 262.022 529.76 261.222 529.895 260.778C530.018 260.335 530.326 259.314 530.572 258.501C530.991 257.086 531.274 256.101 531.483 255.301C531.668 254.587 532.332 252.581 532.948 250.845C533.526 249.208 534.006 247.989 534.942 245.761C535.841 243.595 536.259 242.376 536.358 241.515C536.394 241.17 536.444 240.85 536.456 240.788C536.456 240.715 536.358 240.653 536.222 240.628C536.087 240.604 535.705 240.53 535.36 240.468C533.502 240.111 532.542 239.964 531.545 239.853C530.942 239.791 529.994 239.681 529.452 239.619C524.738 239.028 519.556 238.77 513.881 238.807C510.09 238.844 509.105 238.881 505.142 239.176C503.825 239.274 502.298 239.385 501.757 239.422C500.698 239.508 500.452 239.521 498.556 239.73C497.325 239.853 493.362 240.555 493.177 240.665C493.128 240.702 493.079 240.862 493.079 241.022C493.079 241.539 494.211 244.703 495.171 246.869C496.279 249.38 497.584 253.11 498.618 256.778C499.516 259.941 499.652 260.545 501.326 268.41C501.51 269.259 502.495 274.995 502.852 277.273C503.394 280.707 503.825 284.609 504.218 289.643C504.329 290.997 504.44 292.265 504.465 292.474C504.489 292.671 504.6 294.062 504.711 295.551C504.809 297.041 504.92 298.616 504.957 299.06C505.166 301.78 505.388 305.325 505.412 306.383L505.449 307.614L499.824 307.602C496.722 307.602 494.186 307.614 494.186 307.651C494.186 307.676 496.045 311.418 498.31 315.96C500.575 320.502 502.434 324.269 502.434 324.318C502.434 324.367 502.384 324.416 502.323 324.416C502.261 324.416 500.255 323.518 497.867 322.434C494.507 320.908 486.432 317.277 486.383 317.277C486.346 317.277 486.456 353.786 486.493 353.823C486.518 353.835 487.306 353.503 488.241 353.059C489.177 352.616 491.22 351.656 492.771 350.93C498.409 348.308 502.988 346.179 503.16 346.117C503.394 346.019 503.48 345.785 501.264 351.496C498.544 358.525 497.141 362.205 497.141 362.34C497.141 362.402 498.913 362.451 501.486 362.451L505.819 362.464L504.92 363.301C502.495 365.578 499.406 367.153 495.91 367.929C494.531 368.224 491.109 368.31 489.571 368.064C487.256 367.72 485.041 366.944 482.887 365.738C480.819 364.593 479.748 363.756 477.68 361.713C474.997 359.042 473.716 357.072 472.116 353.158C471.39 351.385 470.935 350.413 470.935 350.598C470.922 350.684 470.836 351.373 470.725 352.136C470.307 355.238 469.494 358.032 468.263 360.605C467.242 362.734 466.171 364.261 464.46 365.972C461.789 368.655 459.019 370.157 455.24 370.969C453.579 371.326 450.12 371.363 448.483 371.031C445.073 370.341 442.045 368.753 439.645 366.39C438.574 365.332 436.494 362.747 436.617 362.611C436.654 362.587 437.565 363.116 438.648 363.781C440.986 365.221 444.384 366.969 446.575 367.855C447.436 368.2 448.2 368.483 448.261 368.483C448.434 368.483 448.434 366.452 448.273 364.482C448.015 361.528 446.993 356.789 446.009 354.032C445.762 353.355 445.59 352.776 445.615 352.752C445.652 352.727 446.242 352.826 446.944 352.961C449.8 353.515 452.705 353.773 455.167 353.663C456.939 353.589 459.746 353.355 459.832 353.269C459.893 353.207 458.712 351.262 457.727 349.822C456.09 347.397 453.529 344.677 450.908 342.572C450.268 342.055 449.751 341.6 449.751 341.55C449.763 341.501 450.341 341.083 451.055 340.627C454.982 338.055 459.192 334.017 462.478 329.635C463.192 328.687 463.721 327.875 463.672 327.826C463.328 327.469 458.921 326.41 455.967 325.967C451.954 325.376 448.101 325.302 444.79 325.77C444.31 325.844 443.904 325.869 443.867 325.832C443.83 325.807 444.015 325.093 444.261 324.269C445.332 320.687 445.849 317.179 445.861 313.523C445.861 311.282 445.627 307.43 445.479 307.43C445.381 307.43 442.993 308.981 441.824 309.805C440.26 310.913 438.611 312.292 436.764 314.04C435.952 314.803 435.263 315.381 435.214 315.332C434.98 315.074 431.89 307.085 431.152 304.82C429.773 300.611 428.702 295.835 428.136 291.428C427.84 289.077 427.779 284.904 428.013 282.75C428.542 278.011 429.674 274.084 431.656 270.072C433.503 266.367 435.078 264.139 437.872 261.32C442.008 257.147 446.193 254.538 451.412 252.864C456.447 251.251 460.706 250.943 466.343 251.78C468.411 252.088 472.978 253.319 475.477 254.255C476.055 254.464 476.695 254.685 476.892 254.735C477.237 254.833 478.702 255.375 479.231 255.609C479.366 255.67 480.253 256.064 481.2 256.483C484.118 257.75 488.278 259.917 488.278 260.151C488.278 260.286 484.044 261.615 481.323 262.317C477.717 263.253 471.39 264.237 467.599 264.434C462.22 264.73 456.779 264.41 451.658 263.536C449.061 263.08 446.242 262.526 445.43 262.305C445.048 262.194 444.655 262.132 444.544 262.157C444.187 262.231 441.934 264.323 440.703 265.714C440.026 266.465 439.079 267.61 438.599 268.262C437.601 269.629 436.383 271.586 436.481 271.672C436.568 271.758 439.793 272.57 440.642 272.718C441.011 272.78 441.959 272.952 442.734 273.1C443.51 273.235 444.433 273.407 444.765 273.469C446.206 273.728 451.117 274.331 453.443 274.528C456.914 274.811 464.398 274.811 467.636 274.515C471.981 274.121 474.837 273.728 478.8 272.964C480.782 272.583 480.942 272.534 483.478 271.795C484.327 271.549 485.373 271.253 485.816 271.13C488.549 270.367 495.442 267.905 495.516 267.671C495.54 267.598 495.627 267.548 495.713 267.548C495.959 267.548 495.639 265.739 494.716 261.886C493.706 257.652 491.109 249.762 490.309 248.519C490.051 248.112 487.183 246.377 484.635 245.097C480.782 243.164 477.421 241.872 472.904 240.604C471.415 240.185 468.51 239.545 467.845 239.496C467.747 239.484 466.971 239.373 466.122 239.238C461.727 238.561 456.225 238.573 450.92 239.287C443.288 240.321 434.807 243.546 428.764 247.706C422.646 251.928 417.267 257.64 413.845 263.548C411.272 267.991 409.721 271.857 408.441 276.928C407.9 279.094 407.826 279.513 407.456 282.442C406.915 286.824 407.161 292.757 408.097 297.952C409.167 303.86 410.152 307.319 413.106 315.492C413.746 317.252 414.226 318.705 414.177 318.729C414.14 318.742 413.611 318.533 412.996 318.249C410.386 317.043 408.158 316.268 404.921 315.431C403.456 315.049 403.099 315 403.099 315.135C403.099 315.234 403.271 316.021 403.468 316.883C404.428 320.908 405.819 324.441 407.813 327.838C408.22 328.54 408.503 329.155 408.441 329.204C408.38 329.254 407.53 329.426 406.558 329.574C403.136 330.115 398.692 331.42 395.406 332.848C392.919 333.931 392.144 334.3 392.144 334.374C392.144 334.51 394.557 336.59 395.898 337.587C399.911 340.615 404.035 342.978 407.506 344.246C408.293 344.529 408.995 344.812 409.057 344.862C409.106 344.911 408.774 345.416 408.306 345.982C406.373 348.296 404.958 350.401 403.801 352.69C403.013 354.253 401.683 357.454 401.548 358.118L401.474 358.463L402.57 358.365C406.927 357.995 411.112 357.109 414.35 355.854C414.953 355.62 415.47 355.46 415.507 355.497C415.544 355.521 415.58 356.198 415.617 356.998C415.728 360.703 416.196 364.199 417.058 367.744C417.488 369.541 418.313 372.274 418.473 372.459C418.633 372.631 420.984 370.575 423.286 368.249C425.588 365.935 427.053 364.175 428.394 362.107C428.8 361.491 429.182 360.974 429.231 360.974C429.477 360.974 428.936 363.965 428.37 365.713C426.511 371.548 422.769 374.871 417.488 375.351C414.793 375.597 412.442 375.13 409.807 373.837C406.583 372.249 404.293 370.071 401.979 366.39L401.277 365.282L401.203 366.673C400.957 370.735 399.652 373.997 397.351 376.274C396.292 377.321 395.627 377.788 394.384 378.367C391.627 379.672 388.328 379.585 385.325 378.17C384.155 377.604 381.767 375.917 381.841 375.696C381.866 375.634 382.075 375.523 382.309 375.474C382.727 375.363 387.503 374.059 387.811 373.948C387.934 373.911 387.922 373.837 387.75 373.616C387.097 372.791 380.364 364.888 379.429 363.842C379.293 363.682 379.207 363.522 379.256 363.485C379.293 363.448 381.201 363.83 383.491 364.347C388.451 365.455 391.295 366.046 391.356 365.984C391.381 365.959 390.716 363.842 389.879 361.27C389.03 358.709 387.737 354.721 386.986 352.419C383.638 342.191 381.312 334.879 381.312 334.571C381.3 333.968 380.93 334.288 376.511 338.744C373.988 341.292 371.858 343.372 371.797 343.372C371.662 343.372 371.686 343.114 372.326 337.895C372.597 335.728 373.003 332.343 373.249 330.386C373.483 328.417 373.717 326.583 373.754 326.287C373.791 326.004 373.779 325.77 373.717 325.77C373.668 325.77 373.188 325.906 372.671 326.066C371.969 326.287 371.698 326.324 371.612 326.226C371.465 326.016 370.812 324.441 370.357 323.148C369.397 320.465 368.473 316.612 368.117 313.83C367.907 312.095 367.907 305.719 368.117 303.983C368.609 300.081 369.741 295.896 371.169 292.72C371.772 291.379 373.446 288.289 374.259 287.034C377.447 282.085 382.851 276.952 387.836 274.134C390.593 272.57 393.547 271.266 395.898 270.564C396.637 270.343 397.535 270.072 397.868 269.961C399.788 269.37 402.57 268.902 405.118 268.742L405.598 268.718L405.992 267.671C408.035 262.243 411.715 256.704 416.59 251.682C417.525 250.71 418.313 249.885 418.338 249.836C418.362 249.749 416.011 249.306 414.67 249.134C411.1 248.679 406.607 248.531 402.89 248.752C399.517 248.937 394.372 249.762 391.836 250.5C391.504 250.599 390.581 250.845 389.805 251.042C385.251 252.199 378.468 255.301 373.003 258.723C366.799 262.612 359.882 269.715 355.561 276.657C354.995 277.568 354.33 278.676 354.084 279.119C353.85 279.562 353.419 280.337 353.149 280.842C352.656 281.741 351.622 284.055 350.995 285.643C349.419 289.631 348.262 293.914 347.511 298.567C346.871 302.531 346.674 308.07 347.019 312.23C347.45 317.24 348.311 321.524 349.813 326.053C350.207 327.272 350.527 328.281 350.502 328.306C350.478 328.331 349.973 328.491 349.357 328.663C347.671 329.155 345 330.398 345 330.694C345 330.743 345.542 331.088 346.206 331.432C350.81 333.894 353.703 336.811 356.312 341.649C357.334 343.545 357.801 344.591 359.205 348.234C360.953 352.752 362.405 356.309 363.254 358.143C363.488 358.648 363.944 359.669 364.264 360.42C365.125 362.439 367.981 368.163 369.163 370.268C373.643 378.256 377.188 382.995 381.176 386.331C381.866 386.897 382.42 387.402 382.42 387.439C382.42 387.476 382.05 387.82 381.607 388.19C380.167 389.383 379.601 390.541 379.502 392.547C379.367 395.107 380.303 396.99 382.235 398.061C382.715 398.332 382.74 398.369 382.986 399.502C384.574 406.468 385.571 410.457 387.171 416.18C387.602 417.731 388.254 420.095 388.624 421.412L389.276 423.812L388.55 424.6C387.171 426.114 386.469 428.12 386.716 429.917C387.183 433.425 389.522 435.493 395.098 437.34C403.161 440.011 418.732 442.78 434.549 444.356C445.085 445.414 456.028 446.178 466.983 446.645C468.645 446.707 471.107 446.83 472.461 446.891C475.009 447.015 484.992 447.384 493.386 447.655C501.301 447.913 531.926 447.852 538.376 447.568C539.09 447.544 540.801 447.482 542.192 447.445C544.678 447.371 549.257 447.199 551.793 447.076C552.507 447.051 553.923 446.99 554.932 446.953C556.889 446.879 564.927 446.485 568.841 446.276C576.153 445.882 579.439 445.648 589.274 444.799C593.681 444.417 599.306 443.851 602.027 443.506C605.375 443.088 608.218 442.719 609.154 442.583C609.597 442.509 610.594 442.374 611.369 442.276C612.637 442.103 615.185 441.685 619.247 440.983C625.365 439.912 632.984 437.992 636.603 436.589C638.868 435.715 641.28 433.918 642.105 432.49C642.905 431.111 643.053 429.006 642.462 427.258C642.081 426.126 641.834 425.708 641.01 424.711L640.419 423.997L641.047 421.633C641.391 420.328 641.933 418.31 642.265 417.165C642.585 416.008 643.779 411.318 644.912 406.739L646.98 398.406L647.693 397.963C648.949 397.187 649.737 396.006 650.094 394.356C650.401 392.879 650.229 391.414 649.564 390.06C649.232 389.371 648.1 388.091 647.435 387.648L647.127 387.451L647.927 386.737C650.303 384.644 652.876 381.912 654.587 379.659C655.596 378.342 658.144 374.44 659.436 372.237C660.655 370.169 664.729 361.971 666.046 358.943C666.933 356.912 669.099 351.558 671.007 346.696C672.829 342.067 674.589 338.916 676.632 336.639C678.491 334.559 680.153 333.316 684.042 331.125L684.645 330.78L684.35 330.546C683.845 330.152 681.408 328.995 680.239 328.614C679.562 328.38 679.143 328.183 679.156 328.084C679.168 327.998 679.513 326.952 679.919 325.77C681.888 320.01 682.799 313.744 682.688 306.876C682.578 300.069 681.408 293.754 678.946 286.812C677.1 281.581 673.74 275.759 669.616 270.626C665.886 265.985 661.012 261.603 656.174 258.55C647.472 253.036 639.052 250.045 628.971 248.9C625.279 248.482 619.641 248.543 615.924 249.023C613.708 249.319 611.825 249.589 611.529 249.663C611.283 249.725 611.431 249.922 612.883 251.473C615.591 254.378 616.638 255.621 618.102 257.64C618.964 258.846 619.481 259.658 621.057 262.28C621.943 263.782 623.445 267.007 623.962 268.545C624.011 268.693 624.38 268.767 625.66 268.89C632.578 269.53 639.877 272.361 645.466 276.571C647.964 278.442 650.143 280.424 651.682 282.196C656.298 287.551 658.772 292.24 660.47 298.949C662.464 306.753 661.911 315.812 658.956 323.752C658.205 325.77 657.935 326.386 657.762 326.386C657.676 326.386 657.233 326.263 656.765 326.115C656.31 325.967 655.916 325.869 655.891 325.906C655.867 325.93 655.965 327.001 656.125 328.294C656.273 329.574 656.494 331.432 656.605 332.417C656.716 333.402 657.048 336.221 657.356 338.682C657.652 341.157 657.885 343.224 657.861 343.298C657.836 343.372 655.707 341.329 653.122 338.769C650.168 335.839 648.407 334.165 648.37 334.276C648.334 334.374 648.014 335.47 647.632 336.725C646.807 339.544 643.484 349.933 640.493 359.066C639.249 362.857 638.252 365.972 638.252 365.984C638.289 366.033 645.256 364.618 647.89 364.039C649.195 363.744 650.291 363.547 650.34 363.584C650.377 363.633 649.614 364.593 648.641 365.738C644.173 370.957 641.884 373.677 641.822 373.813C641.785 373.911 642.758 374.243 644.85 374.822C646.61 375.302 647.915 375.733 647.89 375.807C647.804 376.065 645.613 377.616 644.665 378.084C642.991 378.908 641.724 379.216 639.729 379.278C638.252 379.339 637.858 379.302 636.96 379.081C635.606 378.748 633.92 377.899 632.886 377.037C630.35 374.92 628.577 370.834 628.368 366.587L628.294 365.11L627.445 366.587C626.313 368.557 625.623 369.455 624.269 370.772C622.349 372.606 620.281 373.862 617.758 374.686C616.096 375.228 614.865 375.413 612.969 375.4C611.148 375.4 609.634 375.056 607.935 374.256C605.953 373.332 604.747 372.323 603.528 370.551C602.002 368.347 600.747 364.913 600.414 362.033C600.353 361.503 600.266 360.962 600.23 360.839C600.094 360.408 600.402 360.605 600.66 361.097C601.079 361.91 603.085 364.655 604.378 366.181C605.793 367.83 607.541 369.541 609.621 371.289C611.345 372.742 611.111 372.803 611.726 370.797C612.317 368.889 613.166 365.208 613.4 363.559C613.45 363.251 613.511 362.833 613.536 362.636C613.733 361.43 613.843 360.149 613.917 357.983C613.967 356.358 614.04 355.558 614.127 355.558C614.2 355.558 614.557 355.669 614.914 355.804C615.542 356.051 616.539 356.358 618.693 356.986C621.537 357.811 627.987 358.709 627.987 358.291C627.987 358.094 627.396 356.481 626.817 355.066C625.426 351.656 623.765 348.874 621.34 345.834C620.946 345.329 620.65 344.874 620.7 344.837C620.749 344.8 621.463 344.505 622.3 344.185C626.953 342.387 632.652 338.781 636.972 334.904L637.526 334.411L635.926 333.648C631.63 331.592 627.593 330.325 623.186 329.635C620.613 329.229 620.773 329.278 621.02 328.934C621.574 328.158 623.038 325.475 623.691 324.022C624.971 321.241 626.054 317.806 626.337 315.689L626.423 315.037L626.005 315.123C623.149 315.714 620.183 316.662 617.425 317.892C616.33 318.385 615.394 318.754 615.345 318.717C615.259 318.631 615.653 317.462 616.724 314.631C619.112 308.316 621.044 301.324 621.758 296.475C622.509 291.379 622.558 285.261 621.881 280.719C621.155 275.82 618.718 268.792 616.342 264.754C615.973 264.126 615.677 263.597 615.677 263.56C615.677 263.363 613.646 260.372 612.28 258.563C610.618 256.359 609.154 254.673 607.726 253.307C603.541 249.294 599.343 246.328 594.814 244.161C589.311 241.539 583.785 239.853 578.442 239.188C574.959 238.745 570.774 238.585 567.733 238.77ZM567.98 239.361C567.93 239.533 567.955 239.607 568.078 239.607C568.177 239.607 568.287 239.718 568.324 239.853C568.398 240.124 568.177 240.185 567.943 239.951C567.783 239.791 567.746 239.336 567.881 239.201C568.029 239.053 568.053 239.114 567.98 239.361ZM455.659 239.484C455.659 239.545 455.597 239.607 455.524 239.607C455.462 239.607 455.437 239.545 455.474 239.484C455.511 239.41 455.573 239.361 455.61 239.361C455.634 239.361 455.659 239.41 455.659 239.484ZM571.242 239.73C571.242 239.791 571.192 239.853 571.118 239.853C571.057 239.853 570.995 239.791 570.995 239.73C570.995 239.656 571.057 239.607 571.118 239.607C571.192 239.607 571.242 239.656 571.242 239.73ZM529.391 240.641C529.391 240.678 529.341 240.739 529.267 240.776C529.206 240.813 529.144 240.788 529.144 240.727C529.144 240.653 529.206 240.592 529.267 240.592C529.341 240.592 529.391 240.616 529.391 240.641ZM533.083 241.502C533.083 241.638 532.849 241.687 532.776 241.576C532.739 241.515 532.788 241.453 532.886 241.453C532.997 241.453 533.083 241.478 533.083 241.502ZM528.529 243.176C528.529 243.238 528.467 243.3 528.394 243.3C528.332 243.3 528.307 243.238 528.344 243.176C528.381 243.103 528.443 243.053 528.48 243.053C528.504 243.053 528.529 243.103 528.529 243.176ZM461.814 244.617C461.814 244.764 461.789 244.764 461.629 244.604C461.53 244.506 461.444 244.395 461.444 244.358C461.444 244.321 461.53 244.321 461.629 244.358C461.727 244.407 461.814 244.518 461.814 244.617ZM568.41 244.53C568.41 244.592 568.349 244.654 568.275 244.654C568.214 244.654 568.189 244.592 568.226 244.53C568.263 244.457 568.324 244.407 568.361 244.407C568.386 244.407 568.41 244.457 568.41 244.53ZM453.443 245.047C453.443 245.121 453.369 245.109 453.259 245.023C453.16 244.937 453.074 244.85 453.074 244.826C453.074 244.801 453.16 244.814 453.259 244.85C453.357 244.9 453.443 244.986 453.443 245.047ZM529.452 245.269C529.489 245.331 529.477 245.392 529.403 245.392C529.341 245.392 529.243 245.331 529.206 245.269C529.169 245.195 529.181 245.146 529.255 245.146C529.317 245.146 529.415 245.195 529.452 245.269ZM545.639 246.992C545.639 247.054 545.577 247.115 545.503 247.115C545.442 247.115 545.417 247.054 545.454 246.992C545.491 246.918 545.552 246.869 545.589 246.869C545.614 246.869 545.639 246.918 545.639 246.992ZM553.64 248.839C553.64 248.9 553.59 248.962 553.516 248.962C553.455 248.962 553.393 248.9 553.393 248.839C553.393 248.765 553.455 248.715 553.516 248.715C553.59 248.715 553.64 248.765 553.64 248.839ZM483.108 248.962C483.108 249.023 483.047 249.085 482.973 249.085C482.911 249.085 482.887 249.023 482.924 248.962C482.961 248.888 483.022 248.839 483.059 248.839C483.084 248.839 483.108 248.888 483.108 248.962ZM528.037 253.516C528.037 253.578 528.012 253.639 527.987 253.639C527.95 253.639 527.889 253.578 527.852 253.516C527.815 253.442 527.84 253.393 527.901 253.393C527.975 253.393 528.037 253.442 528.037 253.516ZM607.246 254.501C607.283 254.562 607.258 254.624 607.196 254.624C607.123 254.624 607.061 254.562 607.061 254.501C607.061 254.427 607.086 254.378 607.11 254.378C607.147 254.378 607.209 254.427 607.246 254.501ZM407.949 257.652C407.986 257.75 407.973 257.8 407.9 257.763C407.826 257.726 407.776 257.64 407.776 257.566C407.776 257.393 407.863 257.43 407.949 257.652ZM539.361 258.809C539.361 258.87 539.336 258.932 539.312 258.932C539.275 258.932 539.213 258.87 539.176 258.809C539.139 258.735 539.164 258.686 539.226 258.686C539.299 258.686 539.361 258.735 539.361 258.809ZM510.311 260.532C510.311 260.594 510.287 260.655 510.262 260.655C510.225 260.655 510.164 260.594 510.127 260.532C510.09 260.458 510.114 260.409 510.176 260.409C510.25 260.409 510.311 260.458 510.311 260.532ZM605.03 260.545C605.165 260.754 605.018 260.803 604.845 260.594C604.747 260.483 604.747 260.409 604.821 260.409C604.895 260.409 604.993 260.471 605.03 260.545ZM388.968 263.388C388.87 263.486 388.857 263.437 388.907 263.228C388.956 263.068 389.005 263.006 389.042 263.105C389.067 263.191 389.03 263.326 388.968 263.388ZM390.051 263.24C390.051 263.302 389.99 263.363 389.916 263.363C389.854 263.363 389.83 263.302 389.867 263.24C389.904 263.166 389.965 263.117 390.002 263.117C390.027 263.117 390.051 263.166 390.051 263.24ZM510.311 263.486C510.311 263.548 510.287 263.609 510.262 263.609C510.225 263.609 510.164 263.548 510.127 263.486C510.09 263.413 510.114 263.363 510.176 263.363C510.25 263.363 510.311 263.413 510.311 263.486ZM461.937 267.351C461.937 267.388 461.887 267.45 461.814 267.487C461.752 267.524 461.69 267.499 461.69 267.438C461.69 267.364 461.752 267.302 461.814 267.302C461.887 267.302 461.937 267.327 461.937 267.351ZM538.709 267.819C538.672 267.918 538.635 267.881 538.635 267.745C538.622 267.61 538.659 267.536 538.696 267.585C538.733 267.622 538.745 267.733 538.709 267.819ZM401.253 267.795C401.253 267.856 401.191 267.918 401.117 267.918C401.056 267.918 401.031 267.856 401.068 267.795C401.105 267.721 401.166 267.671 401.203 267.671C401.228 267.671 401.253 267.721 401.253 267.795ZM539.422 268.041C539.459 268.102 539.435 268.164 539.373 268.164C539.299 268.164 539.238 268.102 539.238 268.041C539.238 267.967 539.262 267.918 539.287 267.918C539.324 267.918 539.386 267.967 539.422 268.041ZM462.552 268.472C462.552 268.57 462.527 268.656 462.503 268.656C462.478 268.656 462.429 268.57 462.38 268.472C462.343 268.373 462.367 268.287 462.429 268.287C462.503 268.287 462.552 268.373 462.552 268.472ZM539.976 268.632C539.976 268.693 539.89 268.742 539.792 268.742C539.693 268.742 539.644 268.693 539.681 268.632C539.718 268.582 539.792 268.533 539.866 268.533C539.927 268.533 539.976 268.582 539.976 268.632ZM581.704 270.146C581.704 270.207 581.655 270.256 581.581 270.256C581.52 270.256 581.458 270.17 581.458 270.059C581.458 269.961 581.52 269.912 581.581 269.949C581.655 269.986 581.704 270.072 581.704 270.146ZM415.691 270.195C415.654 270.306 415.593 270.367 415.568 270.33C415.531 270.293 415.544 270.219 415.593 270.146C415.704 269.949 415.777 269.986 415.691 270.195ZM522.313 271.487C522.35 271.561 522.301 271.573 522.202 271.537C521.98 271.45 521.944 271.364 522.116 271.364C522.19 271.364 522.276 271.413 522.313 271.487ZM550.316 271.61C550.316 271.672 550.23 271.733 550.119 271.733C550.021 271.733 549.971 271.672 550.008 271.61C550.045 271.537 550.131 271.487 550.205 271.487C550.267 271.487 550.316 271.537 550.316 271.61ZM563.733 273.58C563.733 273.641 563.708 273.703 563.684 273.703C563.647 273.703 563.585 273.641 563.548 273.58C563.511 273.506 563.536 273.457 563.598 273.457C563.671 273.457 563.733 273.506 563.733 273.58ZM508.957 282.319C508.957 282.381 508.896 282.442 508.822 282.442C508.76 282.442 508.736 282.381 508.773 282.319C508.81 282.245 508.871 282.196 508.908 282.196C508.933 282.196 508.957 282.245 508.957 282.319ZM421.255 282.689C421.292 282.75 421.267 282.812 421.206 282.812C421.132 282.812 421.07 282.75 421.07 282.689C421.07 282.615 421.095 282.565 421.12 282.565C421.157 282.565 421.218 282.615 421.255 282.689ZM519.359 284.289C519.519 284.363 519.543 284.399 519.42 284.399C519.322 284.399 519.149 284.35 519.051 284.289C518.829 284.141 519.026 284.141 519.359 284.289ZM425.009 284.535C425.009 284.596 424.948 284.658 424.874 284.658C424.812 284.658 424.788 284.596 424.825 284.535C424.862 284.461 424.923 284.412 424.96 284.412C424.985 284.412 425.009 284.461 425.009 284.535ZM424.148 286.135C424.148 286.197 424.098 286.258 424.037 286.258C423.963 286.258 423.877 286.197 423.84 286.135C423.803 286.061 423.852 286.012 423.951 286.012C424.061 286.012 424.148 286.061 424.148 286.135ZM610.692 286.135C610.729 286.209 610.68 286.221 610.581 286.184C610.36 286.098 610.323 286.012 610.495 286.012C610.569 286.012 610.655 286.061 610.692 286.135ZM423.101 308.968C425.662 312.144 428.074 315.8 429.539 318.754C430.376 320.416 430.487 320.724 430.475 321.277C430.45 322.053 428.96 330.226 428.813 330.374C428.751 330.435 428.69 330.472 428.665 330.435C428.64 330.411 428.136 329.094 427.545 327.506C426.573 324.884 424.812 320.736 424.332 319.887C424.148 319.579 424.135 319.813 424.197 322.939C424.246 325.881 424.517 329.931 424.702 330.78C424.751 330.965 424.714 331.063 424.603 331.063C424.418 331.063 421.341 326.472 419.852 323.998L418.978 322.533V321.228C418.978 318.988 419.249 316.428 419.79 313.646C420.11 312.009 421.255 307.393 421.403 307.147C421.489 307.011 421.649 307.184 423.101 308.968ZM608.514 308.378C609.24 310.876 609.904 314.015 610.249 316.538C610.335 317.117 610.446 317.917 610.508 318.323C610.569 318.729 610.668 319.85 610.705 320.797L610.791 322.533L610.385 323.259C609.978 323.973 606.79 328.811 605.744 330.288C605.436 330.718 605.141 331.063 605.067 331.063C604.956 331.063 605.005 329.549 605.165 328.109C605.362 326.238 605.461 324.65 605.522 322.238L605.596 319.431L605.264 320.047C604.71 321.08 601.276 329.328 601.276 329.635C601.276 329.771 600.882 330.595 600.845 330.546C600.783 330.485 600.439 328.811 600.119 327.001C599.737 324.847 599.282 321.622 599.294 321.056C599.319 319.677 601.879 315.098 604.956 310.938C606.15 309.325 607.96 307.06 608.058 307.06C608.107 307.06 608.304 307.651 608.514 308.378ZM442.857 314.003C442.857 317.08 442.144 321.019 440.937 324.638C440.174 326.89 439.916 327.309 438.697 328.306C437.651 329.155 433.601 332.269 433.281 332.466C433.195 332.516 432.912 332.393 432.579 332.159C432.112 331.814 432.025 331.703 432.075 331.445C432.112 331.26 432.419 329.18 432.764 326.817C433.466 322.028 433.318 322.459 434.746 320.588C435.804 319.185 437.774 317.068 439.288 315.689C440.74 314.372 442.599 312.846 442.759 312.846C442.808 312.846 442.857 313.363 442.857 314.003ZM588.388 314.04C591.022 316.145 594.013 319.21 595.651 321.499C596.229 322.299 596.352 322.558 596.414 323.161C596.66 325.29 597.435 331.248 597.522 331.642C597.571 331.863 597.485 331.986 597.078 332.257L596.586 332.589L596.192 332.356C595.22 331.777 590.924 328.478 590.198 327.752C589.41 326.964 589.373 326.89 588.868 325.401C587.97 322.705 587.157 319.025 586.886 316.354C586.628 313.88 586.591 312.846 586.739 312.846C586.825 312.846 587.563 313.387 588.388 314.04ZM520.073 323.025L520.048 329.955L526.966 329.98L533.871 330.017L533.834 335.187C533.822 338.03 533.785 340.369 533.773 340.381C533.76 340.406 530.683 340.43 526.941 340.443L520.134 340.48L520.097 346.634C520.073 350.019 520.048 352.998 520.048 353.256L520.036 353.712L514.718 353.687L509.388 353.65L509.327 347.065L509.265 340.48H502.495H495.725L495.688 335.211L495.664 329.955H502.495H509.327V323.087C509.327 319.308 509.364 316.169 509.413 316.132C509.45 316.083 511.875 316.058 514.792 316.071L520.097 316.108L520.073 323.025ZM621.894 320.539C621.007 322.902 619.912 325.007 618.435 327.247C617.105 329.241 617.253 329.143 613.216 331.1C609.092 333.106 607.701 333.771 607.615 333.771C607.43 333.771 607.652 333.328 608.563 331.937C609.609 330.325 610.852 328.244 612.539 325.278C613.08 324.33 613.659 323.419 613.831 323.247C614.163 322.927 616.145 321.794 617.721 321.019C619.222 320.28 622.127 319.148 622.238 319.246C622.3 319.296 622.14 319.874 621.894 320.539ZM409.044 319.813C411.506 320.748 415.137 322.681 415.814 323.419C415.974 323.592 416.787 324.872 417.624 326.263C418.461 327.654 419.802 329.845 420.603 331.137C421.87 333.193 422.178 333.771 422.018 333.771C421.994 333.771 420.504 333.07 418.719 332.22C412.232 329.131 412.811 329.451 412.011 328.515C411.112 327.444 410.398 326.336 409.426 324.478C408.737 323.173 407.284 319.69 407.284 319.37C407.284 319.173 407.456 319.222 409.044 319.813ZM452.766 328.54C454.366 328.712 456.361 329.032 457.862 329.352C458.207 329.426 458.49 329.549 458.49 329.635C458.49 329.869 456.496 332.06 454.785 333.71C452.139 336.245 450.304 337.698 448.027 339.039L446.87 339.729L444.544 339.569C441.984 339.409 437.048 338.966 436.986 338.892C436.961 338.867 438.094 338.264 439.522 337.55C442.217 336.196 447.129 333.562 447.215 333.414C447.289 333.291 439.017 334.202 437.318 334.497C436.543 334.633 435.866 334.707 435.817 334.657C435.743 334.571 440.174 330.928 441.356 330.103C442.439 329.352 443.054 329.106 444.532 328.835C447.363 328.331 449.935 328.244 452.766 328.54ZM583.108 328.564C587.071 329.069 587.182 329.131 591.404 332.639C592.598 333.636 593.718 334.547 593.878 334.657C594.05 334.78 594.149 334.904 594.112 334.94C594.075 334.99 593.349 334.879 592.512 334.707C589.754 334.14 587.92 333.87 584.043 333.463C582.566 333.303 582.16 333.303 582.332 333.451C582.8 333.845 591.342 338.276 592.155 338.559C592.413 338.646 592.536 338.744 592.462 338.806C592.364 338.904 590.591 339.101 587.243 339.384C586.8 339.409 585.976 339.495 585.397 339.556C583.501 339.778 582.627 339.716 581.975 339.359C579.624 338.042 577.039 336.011 574.442 333.402C573.666 332.626 572.743 331.654 572.411 331.26C572.066 330.854 571.648 330.362 571.463 330.152C570.885 329.512 570.798 329.561 573.519 329.02C574.245 328.872 575.857 328.651 577.765 328.429C578.664 328.331 581.901 328.404 583.108 328.564ZM415.667 334.177C417.808 335.236 419.63 336.184 419.704 336.27C419.815 336.418 418.99 336.455 414.756 336.528C411.974 336.578 409.414 336.651 409.069 336.701L408.453 336.787L409.561 337.205C411.58 337.956 414.953 339.039 416.885 339.569C417.932 339.852 418.842 340.11 418.904 340.147C418.965 340.184 418.892 340.258 418.732 340.32C418.215 340.504 412.035 342.129 411.531 342.203C411.137 342.264 410.731 342.178 409.561 341.772C408.035 341.243 404.773 339.729 403.037 338.732C401.105 337.624 397.929 335.384 397.929 335.125C397.929 334.842 403.013 333.328 405.955 332.737C408.183 332.282 409.007 332.183 410.484 332.208L411.777 332.232L415.667 334.177ZM622.509 332.528C625.98 333.143 631.95 334.904 631.729 335.261C631.692 335.322 631.101 335.765 630.411 336.258C626.374 339.113 619.912 342.264 618.078 342.264C617.868 342.264 616.859 342.043 615.85 341.772C614.84 341.501 613.253 341.07 612.329 340.812C611.394 340.566 610.631 340.32 610.631 340.27C610.631 340.221 610.951 340.098 611.345 339.987C613.154 339.483 615.567 338.732 617.708 337.993C619.001 337.562 620.256 337.144 620.515 337.07C620.761 336.996 620.97 336.898 620.97 336.848C620.97 336.676 618.312 336.553 614.114 336.553C611.8 336.541 609.88 336.504 609.843 336.467C609.72 336.344 616.182 332.922 617.77 332.245C618.127 332.097 621.044 332.282 622.509 332.528ZM430.093 334.14C432.259 334.953 433.626 336.935 433.626 339.261C433.626 342.141 431.755 344.369 428.985 344.763C426.597 345.108 424.381 343.951 423.323 341.797C422.855 340.861 422.855 340.849 422.855 339.323C422.855 337.833 422.867 337.735 423.249 336.935C423.951 335.457 425.477 334.214 426.979 333.894C427.791 333.722 429.305 333.845 430.093 334.14ZM603.27 334.14C604.218 334.497 605.326 335.334 605.806 336.048C608.341 339.876 605.781 344.837 601.263 344.849C598.223 344.849 595.86 342.424 595.86 339.298C595.86 337.132 596.98 335.322 598.937 334.313C600.106 333.722 601.965 333.636 603.27 334.14ZM439.805 342.203C443.399 342.498 445.578 342.757 446.009 342.941C447.141 343.409 450.341 345.834 451.966 347.447C452.914 348.382 454.551 350.339 454.551 350.536C454.551 350.758 451.302 350.561 448.704 350.191C447.966 350.093 446.661 349.847 445.824 349.638C444.064 349.219 444.335 349.391 440.605 346.289C437.675 343.84 436.272 342.609 436.284 342.486C436.297 342.437 436.309 342.301 436.321 342.203C436.334 341.969 436.888 341.969 439.805 342.203ZM593.238 342.227C593.299 342.375 593.004 342.732 592.118 343.581C590.087 345.514 585.779 349.059 585.2 349.281C584.388 349.601 581.335 350.179 579.489 350.376C577.802 350.561 575.057 350.684 575.057 350.585C575.057 350.302 576.264 348.924 578.073 347.126C579.612 345.588 581.237 344.283 582.812 343.335C583.674 342.806 583.821 342.757 584.966 342.646C586.271 342.511 588.511 342.326 590.444 342.191C591.084 342.154 591.638 342.092 591.662 342.067C591.687 342.043 592.044 342.018 592.438 342.018C593.004 342.018 593.176 342.067 593.238 342.227ZM420.836 343.52C420.984 343.815 421.181 344.148 421.28 344.258C421.452 344.455 421.28 344.739 419.409 347.447C416.245 352.025 416.676 351.57 414.903 352.346C412.946 353.207 410.62 353.958 408.429 354.438C405.918 354.992 406.041 355.066 406.841 353.49C408.478 350.29 412.06 345.797 413.525 345.083C414.066 344.825 420.061 343.015 420.418 343.003C420.504 343.003 420.689 343.237 420.836 343.52ZM611.911 343.865C613.376 344.271 615.025 344.775 615.579 344.985C616.514 345.342 616.699 345.465 617.77 346.56C619.592 348.394 621.61 351.188 622.755 353.478C623.124 354.204 623.395 354.82 623.358 354.857C623.235 354.98 618.718 353.884 617.401 353.404C616.379 353.035 614.287 352.161 613.659 351.841C613.4 351.705 613.019 351.422 612.822 351.213C612.379 350.721 608.292 344.665 608.292 344.48C608.292 344.234 608.957 343.126 609.104 343.126C609.191 343.126 610.458 343.458 611.911 343.865ZM595.195 345.686C593.743 348.554 592.192 351.902 591.416 353.86C591.281 354.192 591.072 354.733 590.936 355.078L590.678 355.706L591.305 355.189C592.081 354.537 594.469 352.001 596.598 349.564C597.497 348.53 598.272 347.705 598.322 347.742C598.359 347.767 598.359 348.173 598.309 348.628C598.26 349.084 598.1 350.573 597.952 351.927C597.817 353.281 597.632 354.537 597.558 354.721C597.423 355.09 594.912 357.405 593.595 358.389C590.801 360.469 585.237 363.805 584.56 363.805C584.437 363.805 584.412 363.682 584.462 363.338C584.498 363.091 584.585 362.464 584.646 361.959C584.782 360.986 584.794 360.925 585.397 358.512C585.865 356.666 587.293 352.272 587.687 351.496C587.97 350.93 588.093 350.819 591.859 347.84C595.355 345.071 595.577 344.935 595.195 345.686ZM435.386 346.043C436.112 346.597 439.029 348.911 440.814 350.351C441.774 351.127 441.996 351.533 442.919 354.229C443.818 356.838 444.421 359.091 444.753 361.122C445.184 363.756 445.184 363.756 444.888 363.707C444.396 363.621 441.134 361.774 439.066 360.396C435.644 358.118 432.099 355.226 431.976 354.586C431.755 353.539 431.225 348.074 431.324 347.976C431.361 347.927 431.853 348.394 432.419 348.985C433.97 350.671 438.709 355.435 438.771 355.386C438.869 355.275 437.084 351.152 435.767 348.431C434.992 346.843 434.364 345.539 434.364 345.514C434.364 345.354 434.733 345.539 435.386 346.043ZM423.988 347.459C423.938 347.89 423.766 349.453 423.606 350.942C423.224 354.266 423.003 356.851 423.064 357.035C423.126 357.245 425.391 353.133 426.745 350.351C427.36 349.071 427.914 348.074 427.963 348.136C428.062 348.234 428.64 352.69 428.776 354.389C428.85 355.361 428.85 355.386 428.357 356.371C427.373 358.377 425.92 360.593 424.197 362.734C422.954 364.298 420.369 367.006 420.147 367.006C420.036 367.006 419.889 366.587 419.729 365.861C419.089 362.993 418.732 359.657 418.732 356.284V353.884L419.938 352.099C422.03 349.01 423.741 346.696 423.938 346.696C424.012 346.696 424.037 346.979 423.988 347.459ZM605.966 347.09C606.126 347.311 606.79 348.21 607.443 349.096C608.095 349.97 609.117 351.41 609.72 352.296L610.815 353.896L610.852 355.804C610.877 356.851 610.84 358.574 610.766 359.62C610.594 361.897 610.581 361.984 610.175 364.421C610.003 365.467 609.831 366.513 609.806 366.723C609.769 366.944 609.671 367.129 609.597 367.129C609.326 367.129 606.692 364.285 605.19 362.39C603.725 360.519 601.928 357.688 601.017 355.78C600.747 355.201 600.734 355.164 600.894 353.749C600.98 352.949 601.153 351.57 601.288 350.696C601.411 349.81 601.522 348.825 601.522 348.505C601.522 348.173 601.571 347.927 601.633 347.951C601.694 347.963 602.457 349.404 603.331 351.127C605.067 354.586 606.606 357.343 606.68 357.134C606.766 356.888 605.916 349.674 605.658 348.444C605.621 348.284 605.559 347.816 605.51 347.422C605.412 346.585 605.547 346.486 605.966 347.09ZM529.329 377.518C531.84 377.567 534.61 377.616 535.484 377.653C536.37 377.69 538.032 377.739 539.176 377.776C544.629 377.948 553.726 378.355 555.609 378.515C555.978 378.539 556.84 378.601 557.517 378.638C558.194 378.675 559.08 378.736 559.486 378.761C559.893 378.798 561.173 378.884 562.317 378.945C571.439 379.487 573.014 379.622 586.628 380.976C593.853 381.69 595.441 381.863 597.829 382.207C598.469 382.293 599.356 382.404 599.799 382.453C600.857 382.577 600.993 382.589 602.568 382.81C603.319 382.909 605.03 383.143 606.384 383.315C607.738 383.487 609.535 383.746 610.385 383.869C611.234 384.004 612.871 384.251 614.016 384.423C618.139 385.051 621.549 385.605 623.371 385.962C624.392 386.159 626.128 386.491 627.248 386.7C634.153 388.017 643.164 390.036 644.813 390.664C645.564 390.934 646.266 391.673 646.352 392.264C646.426 392.768 646.253 393.667 645.983 394.209C645.466 395.206 644.419 395.44 642.634 394.935C640.259 394.282 632.356 392.535 627.433 391.575C623.432 390.799 615.013 389.445 610.938 388.916C609.855 388.78 608.034 388.534 606.876 388.362C602.95 387.796 599.663 387.402 595.675 387.008C593.25 386.762 590.358 386.466 589.865 386.392C589.336 386.319 586.505 385.998 585.52 385.9C585.077 385.863 584.228 385.777 583.612 385.715C582.64 385.605 576.079 385.088 573.457 384.915C572.349 384.841 570.663 384.706 565.764 384.3C561.702 383.967 557.431 383.672 555.24 383.561C554.464 383.524 553.356 383.463 552.778 383.438C552.199 383.401 550.07 383.327 548.039 383.254C546.008 383.192 543.792 383.106 543.115 383.069C542.438 383.044 540.998 382.983 539.915 382.946C538.832 382.909 537.231 382.86 536.345 382.823C520.577 382.257 502.827 382.343 486.678 383.069C484.475 383.167 481.434 383.315 479.908 383.377C476.56 383.524 469.199 383.943 466.737 384.115C458.121 384.731 444.076 385.9 441.442 386.208C440.9 386.269 439.325 386.442 437.934 386.577C426.302 387.734 409.327 390.147 401.191 391.796C396.748 392.695 393.535 393.396 389.805 394.282C385.411 395.316 384.758 395.378 384.143 394.873C383.084 393.975 382.912 392.215 383.786 391.304C384.315 390.762 384.968 390.528 387.996 389.79C397.486 387.463 411.691 384.866 424.394 383.143C432.949 381.973 433.416 381.924 453.012 379.992C455.647 379.733 460.743 379.339 463.475 379.192C464.768 379.118 467.094 378.982 468.645 378.884C472.609 378.638 480.351 378.231 484.155 378.084C485.915 378.022 487.823 377.936 488.401 377.899C495.085 377.505 516.109 377.308 529.329 377.518ZM518.312 391.131V395.316L522.719 395.341L527.113 395.378L527.15 398.874L527.175 402.37L522.744 402.308L518.312 402.234V406.53V410.826H514.743H511.173V406.518V402.21L506.779 402.246L502.372 402.271V398.825V395.378L506.779 395.341L511.173 395.316L511.185 392.387C511.198 389.728 511.222 388.19 511.272 387.291L511.296 386.959L512.687 386.922C513.438 386.897 515.026 386.897 516.195 386.922L518.312 386.959V391.131ZM478.492 391.378C479.268 393.372 479.933 395.07 479.994 395.156C480.068 395.255 481.114 395.058 483.97 394.393C486.099 393.889 487.884 393.519 487.933 393.569C487.983 393.618 486.863 395.033 485.447 396.72L482.874 399.772L485.102 402.197C486.333 403.527 487.564 404.844 487.835 405.127C488.106 405.422 488.29 405.681 488.253 405.718C488.217 405.767 487.084 405.631 485.742 405.422C482.185 404.881 480.388 404.647 480.326 404.708C480.265 404.77 477.914 411.675 477.778 412.18C477.729 412.377 477.655 412.438 477.581 412.365C477.508 412.291 476.843 410.58 476.092 408.561C475.354 406.53 474.726 404.868 474.713 404.844C474.689 404.831 473.015 405.176 470.984 405.607C466.823 406.481 467.106 406.432 467.106 406.272C467.106 406.173 469.15 403.551 471.23 400.979L471.882 400.191L470.196 398.357C466.491 394.282 466.22 393.95 466.836 394.135C466.959 394.172 468.62 394.455 470.553 394.763C472.486 395.07 474.16 395.353 474.27 395.39C474.443 395.44 474.603 395.033 475.28 392.953C475.711 391.575 476.264 389.827 476.486 389.076C476.708 388.313 476.941 387.697 477.003 387.722C477.065 387.746 477.729 389.383 478.492 391.378ZM552.778 387.956C552.778 388.079 555.104 395.341 555.166 395.39C555.166 395.403 556.704 395.169 558.563 394.873C562.613 394.221 563.241 394.147 563.241 394.27C563.241 394.332 562.871 394.763 562.404 395.243C561.234 396.486 558.674 399.231 558.219 399.748L557.849 400.191L560.237 403.219C561.554 404.893 562.625 406.321 562.625 406.395C562.625 406.468 562.527 406.505 562.416 406.468C561.591 406.235 559.991 405.878 556.311 405.114L554.969 404.844L554.87 405.09C554.821 405.238 554.538 405.927 554.267 406.628C553.984 407.33 553.393 408.881 552.938 410.075C552.052 412.463 551.978 412.635 551.879 412.475C551.818 412.365 550.341 407.81 549.738 405.841C549.565 405.299 549.393 404.819 549.344 404.782C549.282 404.708 548.137 404.844 543.485 405.471C542.672 405.582 541.884 405.693 541.737 405.742C541.577 405.779 541.453 405.767 541.453 405.718C541.453 405.595 542.34 404.585 544.765 401.976C545.848 400.794 546.746 399.797 546.746 399.76C546.746 399.723 545.614 398.332 544.223 396.683C542.844 395.021 541.737 393.63 541.761 393.593C541.786 393.544 542.635 393.704 543.632 393.926C545.786 394.406 548.47 395.021 549.122 395.181C549.368 395.243 549.602 395.255 549.627 395.206C549.701 395.095 550.858 392.104 551.744 389.753C552.15 388.67 552.544 387.808 552.63 387.808C552.704 387.808 552.778 387.869 552.778 387.956ZM443.522 390.873C443.559 390.934 443.768 392.707 443.99 394.812C444.224 397.114 444.433 398.64 444.519 398.64C444.581 398.64 446.279 398.443 448.273 398.209C450.268 397.988 451.954 397.84 452.003 397.889C452.114 398 452.779 404.265 452.692 404.351C452.668 404.376 450.957 404.548 448.889 404.733C446.833 404.905 445.135 405.065 445.122 405.078C445.11 405.09 445.295 406.739 445.516 408.733C445.75 410.727 445.922 412.525 445.898 412.734L445.873 413.103L442.981 413.374C441.393 413.522 439.965 413.645 439.829 413.645C439.497 413.657 439.534 413.817 439.091 409.558C438.894 407.749 438.697 406.198 438.66 406.124C438.586 406.013 437.601 406.087 434.869 406.395C432.826 406.616 431.139 406.776 431.115 406.752C431.09 406.727 430.942 405.508 430.807 404.056C430.659 402.603 430.524 401.151 430.487 400.831L430.425 400.265L430.881 400.191C431.139 400.154 432.124 400.043 433.072 399.932C434.02 399.834 435.509 399.674 436.371 399.575C437.245 399.477 437.983 399.378 438.008 399.342C438.045 399.305 437.897 397.544 437.675 395.44C437.441 393.089 437.331 391.562 437.392 391.501C437.454 391.439 438.722 391.254 440.211 391.082C443.424 390.737 443.436 390.725 443.522 390.873ZM588.844 391.07C591.49 391.353 592.155 391.451 592.229 391.525C592.302 391.599 592.278 391.956 591.736 396.486C591.576 397.901 591.429 399.132 591.429 399.218C591.429 399.378 591.367 399.366 595.614 399.883C597.411 400.105 598.925 400.326 598.986 400.375C599.097 400.474 598.494 406.752 598.371 406.875C598.346 406.899 597.374 406.801 596.204 406.653C595.035 406.505 593.878 406.358 593.644 406.333C593.41 406.308 592.696 406.21 592.081 406.136C591.453 406.05 590.912 406.001 590.887 406.038C590.85 406.075 590.641 407.81 590.419 409.903L590.013 413.719L589.705 413.706C588.881 413.657 583.637 413.042 583.575 412.98C583.551 412.955 583.637 411.921 583.785 410.678C583.932 409.435 584.08 408.179 584.105 407.872C584.142 407.564 584.215 406.85 584.289 406.284C584.351 405.705 584.388 405.225 584.351 405.188C584.289 405.127 579.649 404.61 577.975 404.474C577.359 404.425 576.855 404.327 576.83 404.253C576.781 404.13 576.879 403.059 577.285 399.317C577.359 398.566 577.458 397.926 577.507 397.889C577.568 397.815 580.326 398.111 583.821 398.554L585.139 398.726L585.212 398.098C585.323 397.064 585.754 393.372 585.902 392.116C585.976 391.476 586.074 390.898 586.099 390.848C586.136 390.787 586.357 390.774 586.616 390.811C586.862 390.848 587.859 390.971 588.844 391.07ZM406.299 395.833C406.976 397.077 409.758 401.963 409.783 401.963C409.807 401.963 411.383 401.385 413.303 400.671C416.541 399.477 417.131 399.28 417.131 399.44C417.131 399.502 414.916 403.047 413.771 404.819L413.082 405.89L416.024 408.438C417.648 409.829 418.953 411.011 418.929 411.047C418.904 411.097 417.895 411.097 416.676 411.06C415.47 411.011 413.783 410.974 412.922 410.961C411.383 410.949 411.346 410.949 411.297 411.22C411.272 411.38 410.952 413.029 410.608 414.888C410.251 416.747 409.918 418.347 409.869 418.445C409.783 418.605 409.611 418.31 407.099 413.472C406.644 412.586 406.262 411.86 406.25 411.848C406.201 411.798 402.102 413.189 400.403 413.829C399.566 414.149 398.852 414.371 398.815 414.334C398.766 414.297 398.815 414.137 398.914 413.989C400.883 410.912 402.705 407.798 402.607 407.699C402.533 407.626 401.253 406.518 399.751 405.225C398.249 403.945 397.018 402.837 397.006 402.776C397.006 402.665 399.689 402.677 402.545 402.813C403.628 402.874 404.527 402.899 404.552 402.887C404.625 402.825 405.807 395.747 405.807 395.341C405.807 395.329 405.856 395.316 405.906 395.316C405.967 395.316 406.139 395.55 406.299 395.833ZM623.678 395.366C623.678 395.427 624.786 402.111 624.86 402.456L624.922 402.763L628.75 402.727C631.532 402.69 632.553 402.714 632.492 402.813C632.442 402.887 631.162 404.007 629.636 405.299C628.122 406.592 626.879 407.675 626.879 407.699C626.879 407.712 627.765 409.189 628.848 410.961C629.931 412.734 630.781 414.223 630.756 414.272C630.719 414.334 630.178 414.174 629.562 413.94C628.934 413.706 627.31 413.128 625.956 412.66C623.74 411.897 623.481 411.823 623.346 412.008C623.272 412.118 622.435 413.632 621.5 415.38C620.564 417.128 619.764 418.519 619.727 418.482C619.678 418.433 619.469 417.448 619.259 416.303C619.038 415.146 618.755 413.682 618.632 413.042C618.509 412.401 618.373 411.663 618.324 411.392L618.25 410.912L614.483 411.011C611.923 411.072 610.742 411.06 610.766 410.974C610.791 410.9 611.234 410.494 611.751 410.063C612.883 409.115 616.022 406.444 616.342 406.136C616.576 405.927 616.551 405.89 615.714 404.585C614.299 402.406 612.6 399.649 612.6 399.538C612.6 399.428 616.256 400.585 618.496 401.409C619.776 401.877 619.776 401.877 619.973 401.631C620.084 401.496 620.921 400.019 621.832 398.357C623.235 395.797 623.678 395.083 623.678 395.366ZM533.822 415.429C537.096 415.516 542.204 415.7 544.1 415.811C544.715 415.848 546.34 415.934 547.731 415.996C549.122 416.07 550.648 416.156 551.116 416.18C551.596 416.217 553.258 416.291 554.809 416.365C556.372 416.426 558.034 416.513 558.502 416.55C558.982 416.574 560.557 416.66 562.01 416.734C563.462 416.808 565.826 416.943 567.241 417.042C572.288 417.399 576.498 417.719 577.827 417.842C578.578 417.904 580.486 418.076 582.074 418.211C587.859 418.704 594.469 419.356 595.983 419.565C596.426 419.639 598.555 419.885 600.722 420.119C606.532 420.772 609.621 421.178 612.846 421.719C613.831 421.879 615.407 422.138 616.354 422.273C622.743 423.233 629.784 424.661 634.757 426.015C637.268 426.692 637.329 426.717 637.895 427.222C638.499 427.739 638.819 428.44 638.819 429.265C638.819 430.053 638.597 430.52 638.019 430.964C637.292 431.517 636.861 431.493 633.39 430.668C628.676 429.548 626.534 429.105 622.115 428.366C619.887 427.985 617.524 427.579 616.847 427.443C614.336 426.963 603.134 425.486 596.906 424.809C593.853 424.477 590.752 424.144 589.767 424.046C589.065 423.984 586.542 423.726 583.058 423.381C580.35 423.11 575.55 422.704 572.78 422.519C571.771 422.446 569.494 422.286 567.733 422.15C559.954 421.572 548.617 421.018 541.269 420.858C539.583 420.821 537.219 420.772 536.037 420.735C526.559 420.476 506.262 420.439 497.141 420.661C486.949 420.919 482.69 421.042 478.554 421.227C467.205 421.744 453.591 422.766 441.196 424.058C438.968 424.292 435.472 424.649 433.441 424.858C425.834 425.634 417.131 426.741 411.654 427.64C404.391 428.822 402.164 429.253 395.541 430.791C392.575 431.468 392.156 431.493 391.479 430.964C390.593 430.287 390.408 428.686 391.098 427.689C391.627 426.938 392.218 426.655 394.852 425.966C401.216 424.28 410.46 422.507 419.039 421.35C423.077 420.796 423.975 420.685 428.456 420.181C439.793 418.888 440.433 418.827 451.782 417.904C462.737 417.017 463.795 416.956 474.861 416.377C491.368 415.516 494.113 415.417 506.68 415.306C511.284 415.257 515.063 415.22 515.075 415.208C515.124 415.171 531.114 415.356 533.822 415.429ZM533.576 424.489C536.518 424.55 539.73 424.637 540.715 424.674C541.7 424.698 543.497 424.76 544.715 424.797C553.664 425.08 563.29 425.634 574.873 426.532C578.036 426.778 585.397 427.455 587.305 427.689C587.847 427.751 589.201 427.899 590.321 427.997C594.604 428.416 599.282 428.957 603.307 429.486C605.609 429.794 607.935 430.102 608.477 430.163C610.569 430.422 615.628 431.173 618.385 431.641C623.408 432.49 630.756 433.992 630.99 434.213C631.31 434.521 624.922 436.035 618.262 437.229C611.419 438.46 600.488 439.937 594.075 440.491C592.45 440.638 590.296 440.835 589.274 440.934C588.265 441.032 586.345 441.192 585.028 441.291C583.711 441.389 582.357 441.5 582.012 441.525C581.31 441.599 575.217 442.029 572.349 442.214C571.303 442.276 569.309 442.399 567.918 442.46C565.444 442.583 561.862 442.78 559.794 442.891C557.948 443.002 553.676 443.186 550.316 443.322C548.519 443.383 546.34 443.47 545.454 443.506C537.81 443.802 529.194 443.95 517.389 443.986C498.138 444.06 488.352 443.814 465.691 442.706C454.81 442.165 447.917 441.672 436.764 440.614C426.314 439.629 414.633 437.93 406.459 436.232C404.293 435.789 399.492 434.582 398.852 434.336C398.508 434.201 398.508 434.176 398.729 434.078C399.332 433.819 405.585 432.588 411.285 431.616C416.27 430.767 429.761 429.068 438.611 428.182C451.412 426.889 451.917 426.84 458.675 426.335C473.556 425.227 479.674 424.932 495.294 424.538C506.151 424.267 522.928 424.243 533.576 424.489Z" fill="#C8A84E"/>
</svg>
