<svg width="1024" height="1024" viewBox="0 0 1024 1024" fill="none" xmlns="http://www.w3.org/2000/svg">
<rect width="1024" height="1024" fill="#080808"/>
<path d="M491.963 281.358C492.021 281.572 492.586 283.575 493.228 285.83C495.602 294.111 496.731 298.485 498.638 306.728C500.351 314.115 500.876 316.7 500.701 316.856C500.623 316.933 499.203 316.7 497.548 316.331C493.5 315.437 492.235 315.164 489.375 314.62C488.032 314.348 485.288 313.726 483.244 313.24C481.22 312.754 478.593 312.132 477.406 311.879C476.238 311.607 472.696 310.771 469.563 309.974C466.43 309.196 463.822 308.594 463.763 308.652C463.724 308.691 463.686 317.264 463.686 327.664C463.686 345.607 463.705 346.599 464.036 346.502C465.612 346.054 477.892 343.119 481.104 342.419C483.731 341.836 483.556 341.875 486.086 341.233C488.752 340.533 495.622 339.114 499.689 338.415C500.176 338.337 500.623 338.298 500.682 338.337C500.74 338.376 500.604 339.348 500.351 340.495C499.903 342.536 497.315 353.383 496.965 354.744C496.245 357.446 494.863 362.714 493.948 366.311C493.345 368.663 492.644 371.326 492.372 372.24C492.119 373.134 491.905 373.97 491.905 374.087C491.905 374.203 493.364 374.281 496.225 374.281H500.565L500.623 374.806C500.662 375.156 500.604 375.35 500.448 375.35C500.312 375.35 500.02 375.525 499.806 375.72C499.572 375.934 498.327 376.633 497.023 377.275C492.897 379.316 489.978 381.357 487.137 384.195C485.443 385.887 483.011 388.997 481.882 390.922C479.586 394.849 477.756 399.961 477.017 404.452C476.861 405.443 476.764 405.424 479.333 404.996C487.078 403.752 498.638 402.624 504.399 402.547L506.092 402.527L506.131 391.602C506.15 385.615 506.17 379.258 506.189 377.489L506.209 374.281L511.249 374.223C514.032 374.203 516.368 374.242 516.446 374.32C516.543 374.417 516.621 380.755 516.621 388.433C516.64 396.093 516.718 402.411 516.776 402.45C516.854 402.488 518.353 402.586 520.124 402.644C521.895 402.722 523.549 402.819 523.821 402.858C524.094 402.897 525.223 402.994 526.351 403.052C530.302 403.285 539.721 404.394 543.808 405.074C544.898 405.268 545.832 405.385 545.871 405.346C546.007 405.229 545.248 401.575 544.742 399.883C543.711 396.501 543.458 395.859 542.193 393.468C539.994 389.308 538.418 387.131 535.362 384.04C532.229 380.871 529.621 379.024 524.853 376.633C522.965 375.7 522.284 375.253 522.206 374.942C522.148 374.709 522.128 374.437 522.187 374.339C522.245 374.242 524.25 374.184 526.604 374.203C530.73 374.223 530.925 374.223 530.866 373.873C530.828 373.659 530.477 372.454 530.107 371.171C529.718 369.888 528.998 367.224 528.492 365.242C527.986 363.259 527.441 361.198 527.286 360.673C527.11 360.129 526.896 359.254 526.78 358.729C526.643 358.185 526.254 356.533 525.904 355.036C525.534 353.539 525.086 351.614 524.892 350.759C524.697 349.904 524.211 347.843 523.802 346.19C522.109 339.367 521.875 338.22 522.245 338.22C522.479 338.22 533.864 340.533 534.72 340.747C536.822 341.292 538.729 341.758 540.364 342.108C541.376 342.341 542.952 342.691 543.867 342.886C544.781 343.1 546.436 343.488 547.564 343.741C548.693 343.994 550.484 344.421 551.554 344.694C552.624 344.985 554.648 345.471 556.03 345.802C557.431 346.132 558.716 346.443 558.891 346.502C559.202 346.599 559.222 345.316 559.183 327.528C559.163 317.05 559.086 308.477 559.027 308.477C558.969 308.477 555.991 309.216 552.41 310.13C548.829 311.024 543.731 312.248 541.045 312.851C538.379 313.454 535.693 314.056 535.109 314.212C534.525 314.367 531.548 315.028 528.492 315.67C525.437 316.311 522.751 316.895 522.518 316.953C521.797 317.147 521.836 316.875 523.646 309.449C524.269 306.825 525.145 303.189 525.592 301.382C526.021 299.554 526.721 296.813 527.13 295.258C527.539 293.703 528.492 290.029 529.251 287.093C530.03 284.158 530.691 281.592 530.75 281.417C530.847 281.086 529.777 281.067 511.366 281.028C491.963 280.97 491.885 280.97 491.963 281.358ZM517.01 327.548C517.01 327.664 516.932 327.684 516.815 327.625C516.718 327.567 516.621 327.412 516.621 327.314C516.621 327.198 516.718 327.178 516.815 327.237C516.932 327.295 517.01 327.45 517.01 327.548ZM549.9 328.52C549.9 328.636 549.822 328.656 549.705 328.597C549.608 328.539 549.511 328.384 549.511 328.286C549.511 328.17 549.608 328.15 549.705 328.209C549.822 328.267 549.9 328.422 549.9 328.52ZM523.821 329.472C523.821 329.569 523.783 329.667 523.744 329.667C523.685 329.667 523.588 329.569 523.53 329.472C523.471 329.356 523.51 329.278 523.607 329.278C523.724 329.278 523.821 329.356 523.821 329.472ZM495.544 337.17C495.486 337.229 495.31 337.248 495.174 337.19C495.018 337.132 495.077 337.073 495.291 337.073C495.505 337.054 495.622 337.112 495.544 337.17ZM556.011 342.711C555.952 342.808 555.816 342.847 555.719 342.769C555.621 342.711 555.583 342.575 555.66 342.477C555.719 342.38 555.855 342.341 555.952 342.419C556.05 342.477 556.089 342.614 556.011 342.711ZM509.011 349.223C509.05 349.262 509.05 349.359 508.972 349.418C508.817 349.592 508.058 349.301 508.058 349.087C508.058 348.912 508.778 349.029 509.011 349.223ZM507.571 349.884C507.63 349.981 507.552 350.078 507.396 350.078C507.221 350.078 507.085 349.981 507.085 349.884C507.085 349.767 507.162 349.69 507.26 349.69C507.377 349.69 507.513 349.767 507.571 349.884ZM508.35 372.007C508.291 372.065 508.136 372.007 507.999 371.871C507.824 371.676 507.844 371.657 508.116 371.773C508.311 371.832 508.408 371.948 508.35 372.007ZM512.67 372.084C512.612 372.24 512.553 372.182 512.553 371.968C512.534 371.754 512.592 371.637 512.651 371.715C512.709 371.773 512.728 371.948 512.67 372.084ZM502.764 376.42C502.706 376.478 502.589 376.381 502.531 376.186C502.414 375.914 502.433 375.895 502.628 376.07C502.764 376.206 502.823 376.361 502.764 376.42ZM521.35 393.565C521.214 393.604 520.98 393.604 520.863 393.565C520.727 393.507 520.824 393.468 521.097 393.468C521.369 393.468 521.467 393.507 521.35 393.565ZM534.136 402.197C534.136 402.313 534.058 402.333 533.941 402.275C533.844 402.216 533.747 402.255 533.747 402.391C533.747 402.527 533.708 402.586 533.649 402.527C533.474 402.372 533.766 401.789 533.961 401.905C534.058 401.964 534.136 402.1 534.136 402.197Z" fill="#C8A84E"/>
<path d="M415.095 348.851C415.289 349.142 416.126 352.894 416.788 356.296C416.982 357.307 417.449 359.582 417.819 361.351C418.831 366.191 419.396 369.302 419.259 369.438C419.123 369.574 416.943 369.185 409.684 367.727C407.018 367.183 404.43 366.677 403.943 366.599C403.457 366.502 402.328 366.269 401.413 366.055C400.498 365.822 399.467 365.589 399.097 365.511L398.436 365.394L398.552 366.133C399.525 372.237 399.525 380.032 398.572 386.117L398.455 386.856L399.097 386.72C399.467 386.661 400.498 386.428 401.413 386.214C411.3 383.959 419.065 382.404 419.279 382.637C419.337 382.696 418.812 385.592 418.092 389.111C417.391 392.61 416.71 396.031 416.593 396.731C416.379 397.975 415.562 401.688 415.25 402.894C415.153 403.244 415.133 403.535 415.231 403.535C415.309 403.535 416.107 403.399 417.021 403.244C417.916 403.088 419.123 402.913 419.707 402.855C420.291 402.777 420.894 402.699 421.05 402.641C421.205 402.583 422.879 402.505 424.747 402.466C428.153 402.388 431.17 402.621 434.634 403.224C435.471 403.36 436.171 403.477 436.191 403.457C436.21 403.457 436.055 402.602 435.84 401.591C435.626 400.58 435.315 399.083 435.179 398.286C435.023 397.489 434.673 395.74 434.381 394.398C434.108 393.057 433.758 391.405 433.622 390.705C433.486 390.005 433.057 387.925 432.688 386.059C432.298 384.192 432.026 382.598 432.065 382.521C432.123 382.443 432.493 382.462 432.882 382.56C433.291 382.637 435.023 382.987 436.736 383.318C439.519 383.862 441.562 384.29 443.936 384.873C445.299 385.203 452.811 386.817 452.986 386.817C453.083 386.817 453.122 386.7 453.083 386.564C453.044 386.448 452.811 384.445 452.577 382.151C452.13 377.738 452.149 372.801 452.597 369.515C453.005 366.638 453.161 365.336 453.103 365.297C453.064 365.258 451.663 365.55 449.95 365.919C445.221 366.969 440.784 367.902 439.266 368.155C438.526 368.291 436.638 368.641 435.101 368.952C433.544 369.263 432.24 369.476 432.201 369.438C432.162 369.399 432.59 367.144 433.155 364.422C433.7 361.72 434.264 358.94 434.4 358.24C434.537 357.54 434.751 356.452 434.887 355.81C435.004 355.169 435.373 353.341 435.704 351.767C436.016 350.173 436.23 348.831 436.171 348.773C436.113 348.695 435.373 348.754 434.537 348.87C428.601 349.764 421.673 349.726 415.776 348.792C415.27 348.695 415.017 348.734 415.095 348.851ZM419.512 399.453C419.512 399.55 419.434 399.647 419.318 399.647C419.22 399.647 419.123 399.55 419.123 399.453C419.123 399.336 419.22 399.258 419.318 399.258C419.434 399.258 419.512 399.336 419.512 399.453Z" fill="#C8A84E"/>
<path d="M605.085 349.006C600.045 349.647 593.992 349.725 589.905 349.22C589.477 349.161 588.562 349.064 587.881 348.986L586.636 348.85L586.752 349.511C586.811 349.881 587.219 351.883 587.648 353.963C588.601 358.648 590.333 367.571 590.508 368.718C590.625 369.534 590.606 369.573 590.178 369.457C589.925 369.398 588.932 369.204 587.959 369.029C582.957 368.096 572.176 365.88 570.599 365.452L569.977 365.277L570.074 366.482C570.132 367.124 570.23 367.785 570.268 367.921C570.755 369.476 570.755 379.604 570.268 383.667C570.074 385.3 569.957 386.68 569.996 386.719C570.074 386.797 574.959 385.728 578.423 384.872C579.279 384.658 581.829 384.134 584.067 383.706C586.324 383.259 588.718 382.792 589.419 382.637C590.1 382.481 590.703 382.403 590.761 382.462C590.839 382.54 589.555 389.246 588.523 394.009C588.27 395.234 587.939 396.906 587.784 397.703C587.648 398.5 587.317 400.113 587.083 401.26C586.85 402.427 586.694 403.399 586.733 403.437C586.752 403.476 587.239 403.418 587.764 403.321C593.389 402.31 599.286 402.174 604.345 402.932C605.883 403.165 607.265 403.399 607.44 403.476C607.712 403.574 607.751 403.515 607.654 403.126C607.459 402.349 603.995 384.814 603.742 383.259C603.625 382.637 603.664 382.54 603.976 382.54C604.384 382.54 612.578 384.192 615.594 384.872C617.171 385.222 622.931 386.525 624.021 386.758C624.527 386.875 624.508 387.03 624.177 384.581C623.612 380.498 623.437 376.222 623.71 371.964C623.787 370.487 623.904 369.029 623.963 368.757C624.021 368.485 624.118 367.765 624.177 367.182C624.235 366.599 624.313 365.899 624.371 365.646C624.449 365.277 624.41 365.219 624.118 365.316C623.924 365.394 622.581 365.724 621.141 366.035C619.701 366.346 617.774 366.774 616.859 366.988C615.945 367.182 614.641 367.454 613.94 367.571C613.239 367.687 612.072 367.901 611.313 368.057C610.573 368.193 608.724 368.543 607.226 368.834C605.727 369.107 604.307 369.379 604.073 369.437C603.548 369.534 603.509 369.243 603.82 367.921C604.054 366.968 605.435 360.067 605.961 357.268C606.155 356.257 606.622 354.08 607.012 352.447C607.401 350.814 607.712 349.297 607.712 349.084C607.712 348.675 607.829 348.675 605.085 349.006ZM577.352 369.593C577.352 369.651 577.275 369.748 577.158 369.806C577.061 369.865 576.963 369.826 576.963 369.729C576.963 369.612 577.061 369.515 577.158 369.515C577.275 369.515 577.352 369.554 577.352 369.593ZM620.362 371.848C620.207 371.945 620.031 371.984 619.992 371.925C619.934 371.867 620.012 371.75 620.168 371.653C620.323 371.556 620.498 371.517 620.537 371.575C620.596 371.634 620.518 371.75 620.362 371.848ZM595.452 378.166C595.315 378.341 595.16 378.418 595.082 378.36C595.023 378.302 595.101 378.166 595.257 378.068C595.666 377.796 595.724 377.835 595.452 378.166ZM602.652 398.675C602.652 398.772 602.613 398.869 602.574 398.869C602.516 398.869 602.419 398.772 602.36 398.675C602.302 398.558 602.341 398.48 602.438 398.48C602.555 398.48 602.652 398.558 602.652 398.675Z" fill="#C8A84E"/>
<path d="M595.155 413.294C587.254 413.76 580.676 415.043 572.482 417.726C565.885 419.903 555.687 424.744 551.153 427.854C550.452 428.34 550.219 428.69 549.421 430.595C546.56 437.38 541.714 454.118 541.558 457.733C541.519 458.53 541.558 458.569 542.356 458.919C542.823 459.114 543.582 459.444 544.069 459.658C544.555 459.872 545.742 460.338 546.696 460.688C547.669 461.038 548.973 461.524 549.615 461.757C552.534 462.866 559.891 465.179 561.642 465.548C562.09 465.626 563.511 465.976 564.795 466.326C568.006 467.162 572.424 468.017 575.791 468.464C577.348 468.678 579.177 468.931 579.878 469.028C589.103 470.35 602.803 470.505 612.573 469.417C620.221 468.561 628.726 467.084 633.942 465.723C635.479 465.315 635.538 465.276 635.285 464.887C635.129 464.654 634.662 463.857 634.214 463.099C632.19 459.639 627.519 454.312 623.997 451.513L622.265 450.132L621.272 450.366C617.944 451.163 615.259 451.707 613.157 452.038C612.242 452.174 610.238 452.504 608.681 452.776C598.736 454.526 585.346 454.39 573.747 452.426C572.794 452.251 571.432 452.018 570.731 451.921C567.364 451.377 559.696 449.277 555.103 447.644C553.702 447.139 553.43 446.983 553.644 446.769C553.916 446.497 561.117 442.823 563.044 441.968C570.906 438.507 576.375 436.544 582.408 435.047C588.869 433.453 592.761 432.986 598.561 433.161C602.745 433.259 604.458 433.492 608.389 434.444C611.113 435.105 616.349 437.088 619.229 438.527C623.18 440.51 628.473 444.262 631.879 447.508C635.518 450.968 639.566 456.062 641.551 459.716C643.4 463.06 645.969 468.892 646.358 470.544C646.417 470.836 646.592 471.458 646.747 471.925C647.39 473.907 648.441 479.564 648.791 482.947C649.063 485.669 649.005 491.656 648.674 494.63C648.168 499.276 647.234 504.506 646.222 508.608C645.56 511.193 643.4 518.775 643.128 519.455C643.03 519.688 642.369 521.418 641.668 523.285C640.967 525.151 639.663 528.456 638.807 530.633L637.211 534.579L635.849 533.16C633.572 530.808 629.66 527.406 627.558 525.948C625.846 524.782 623.763 523.401 622.498 522.643C621.136 521.827 621.019 521.788 620.903 522.138C620.688 522.682 620.358 530.322 620.455 531.935C620.513 532.674 620.591 534.015 620.65 534.91C620.883 538.428 621.992 544.377 623.16 548.459C623.53 549.742 623.802 550.812 623.763 550.85C623.724 550.889 622.557 550.773 621.136 550.598C615.142 549.878 605.217 550.52 598.678 552.075C596.167 552.658 592.333 553.864 592.333 554.058C592.333 554.291 593.987 556.566 595.525 558.471C600.721 564.905 606.521 570.407 611.736 573.887C613.04 574.761 614.13 575.578 614.13 575.695C614.13 575.831 613.916 576.064 613.643 576.239C612.865 576.764 607.902 581.254 606.832 582.421C604.769 584.656 601.616 588.564 601.227 589.38C601.149 589.536 600.468 590.624 599.748 591.81C598.658 593.579 598.483 593.968 598.736 594.065C599.631 594.415 603.776 594.707 607.805 594.707C613.118 594.687 614.986 594.512 619.54 593.56C620.202 593.424 620.747 593.365 620.747 593.443C620.747 593.521 620.533 594.201 620.28 594.94C618.022 601.355 616.718 608.47 616.368 616.188C616.29 618.074 616.31 618.56 616.504 618.482C623.18 615.857 628.395 613.175 633.085 609.987C633.864 609.462 634.623 609.015 634.74 609.015C635.051 609.015 633.3 611.561 631.918 613.116C627.383 618.19 622.129 621.087 615.376 622.234C610.86 623.011 605.781 622.525 601.48 620.931C595.369 618.657 590.776 615.021 587.137 609.598C584.14 605.127 581.902 598.478 581.026 591.538C580.87 590.177 580.734 589.633 580.637 589.886C580.54 590.08 580.15 591.13 579.761 592.199C578.71 595.076 576.569 599.431 575.11 601.666C567.422 613.369 554.617 619.434 541.967 617.374C536.693 616.518 531.166 613.7 526.748 609.617L525.678 608.645L528.208 608.626C529.609 608.626 532.684 608.606 535.078 608.606C537.452 608.587 539.398 608.509 539.398 608.412C539.398 608.334 539.087 607.479 538.717 606.546C536.712 601.511 529.687 583.471 529.531 582.926C529.434 582.596 531.38 583.451 538.814 587.009C542.59 588.797 545.12 589.983 547.085 590.877C548.156 591.363 549.693 592.063 550.491 592.432C551.289 592.821 552.69 593.463 553.605 593.871C554.52 594.299 555.415 594.726 555.609 594.843C555.823 594.96 556.018 595.018 556.057 594.96C556.096 594.921 556.115 581.935 556.096 566.091L556.038 537.301L554.578 538.001C553.78 538.37 552.457 538.973 551.659 539.323C548.837 540.547 544.341 542.569 542.356 543.522C541.247 544.046 540.313 544.474 540.274 544.474C540.235 544.474 538.814 545.116 537.121 545.913C535.428 546.69 533.618 547.546 533.073 547.779C532.548 548.012 531.866 548.343 531.574 548.479C530.893 548.829 530.796 548.615 531.205 547.779C531.399 547.41 532.898 544.377 534.572 541.072C539.651 530.963 543.874 522.254 543.757 522.138C543.699 522.079 539.729 522.021 534.961 522.021H526.262V519.786C526.262 517.783 526.359 515.956 526.651 511.815C526.729 510.688 526.923 508.355 527.526 500.734C528.5 488.798 529.589 478.592 530.524 472.935C530.699 471.925 531.049 469.689 531.321 467.978C531.594 466.268 531.905 464.479 532.003 463.993C532.1 463.507 532.509 461.446 532.878 459.425C533.268 457.383 533.754 454.992 533.949 454.079C534.143 453.165 534.455 451.726 534.63 450.871C534.805 450.016 535.116 448.752 535.331 448.052C535.525 447.353 536.012 445.739 536.401 444.456C537.063 442.22 537.51 440.665 537.841 439.402C538.133 438.274 539.184 435.105 540.157 432.364C541.072 429.779 541.831 427.854 543.31 424.336C544.73 420.914 545.392 418.99 545.548 417.629C545.606 417.085 545.684 416.579 545.703 416.482C545.703 416.365 545.548 416.268 545.334 416.229C545.12 416.19 544.516 416.074 543.971 415.977C541.033 415.413 539.515 415.18 537.938 415.005C536.985 414.907 535.486 414.732 534.63 414.635C527.176 413.702 518.983 413.294 510.011 413.352C504.017 413.41 502.46 413.469 496.194 413.935C494.111 414.091 491.698 414.266 490.842 414.324C489.168 414.46 488.779 414.48 485.782 414.81C483.836 415.005 477.569 416.113 477.277 416.288C477.199 416.346 477.121 416.599 477.121 416.851C477.121 417.668 478.912 422.664 480.43 426.085C482.181 430.051 484.244 435.941 485.879 441.734C487.3 446.73 487.514 447.683 490.16 460.105C490.452 461.446 492.009 470.505 492.574 474.102C493.43 479.526 494.111 485.688 494.734 493.639C494.909 495.777 495.084 497.78 495.123 498.11C495.162 498.421 495.337 500.618 495.512 502.97C495.668 505.322 495.843 507.811 495.902 508.51C496.232 512.807 496.583 518.405 496.622 520.077L496.68 522.021L487.786 522.002C482.882 522.002 478.873 522.021 478.873 522.079C478.873 522.118 481.812 528.028 485.392 535.201C488.973 542.375 491.912 548.323 491.912 548.401C491.912 548.479 491.834 548.557 491.737 548.557C491.64 548.557 488.467 547.137 484.692 545.427C479.379 543.016 466.612 537.281 466.534 537.281C466.476 537.281 466.651 594.94 466.709 594.998C466.748 595.018 467.994 594.493 469.473 593.793C470.952 593.093 474.183 591.577 476.635 590.43C485.548 586.289 492.788 582.926 493.06 582.829C493.43 582.674 493.566 582.304 490.063 591.324C485.762 602.424 483.544 608.237 483.544 608.451C483.544 608.548 486.346 608.626 490.413 608.626L497.264 608.645L495.843 609.967C492.009 613.564 487.125 616.052 481.597 617.277C479.418 617.743 474.007 617.879 471.575 617.49C467.916 616.946 464.413 615.721 461.007 613.816C457.738 612.008 456.045 610.686 452.775 607.459C448.532 603.241 446.508 600.131 443.978 593.949C442.83 591.149 442.11 589.614 442.11 589.905C442.091 590.041 441.954 591.13 441.779 592.335C441.118 597.234 439.833 601.647 437.887 605.71C436.272 609.073 434.579 611.483 431.873 614.186C427.65 618.423 423.271 620.795 417.297 622.078C414.67 622.642 409.201 622.7 406.612 622.175C401.222 621.087 396.434 618.579 392.639 614.847C390.946 613.175 387.657 609.092 387.852 608.878C387.91 608.84 389.35 609.676 391.063 610.725C394.76 613 400.132 615.76 403.596 617.16C404.958 617.704 406.165 618.151 406.262 618.151C406.535 618.151 406.535 614.944 406.282 611.833C405.873 607.168 404.258 599.683 402.701 595.329C402.311 594.26 402.039 593.346 402.078 593.307C402.136 593.268 403.07 593.424 404.18 593.638C408.695 594.512 413.288 594.921 417.18 594.746C419.982 594.629 424.42 594.26 424.556 594.124C424.653 594.026 422.785 590.955 421.228 588.68C418.64 584.851 414.592 580.555 410.446 577.23C409.434 576.414 408.617 575.695 408.617 575.617C408.636 575.539 409.551 574.878 410.68 574.159C416.888 570.096 423.544 563.72 428.74 556.799C429.869 555.302 430.706 554.019 430.628 553.941C430.083 553.378 423.116 551.706 418.445 551.006C412.101 550.073 406.009 549.956 400.774 550.695C400.015 550.812 399.373 550.85 399.314 550.792C399.256 550.753 399.548 549.626 399.937 548.323C401.63 542.666 402.448 537.126 402.467 531.352C402.467 527.814 402.097 521.729 401.864 521.729C401.708 521.729 397.933 524.179 396.084 525.481C393.612 527.231 391.004 529.408 388.085 532.169C386.801 533.374 385.711 534.288 385.633 534.21C385.263 533.802 380.378 521.185 379.211 517.608C377.031 510.96 375.338 503.417 374.443 496.458C373.976 492.745 373.878 486.155 374.248 482.753C375.085 475.268 376.875 469.067 380.009 462.729C382.928 456.878 385.419 453.359 389.837 448.908C396.376 442.318 402.993 438.196 411.244 435.552C419.204 433.006 425.938 432.52 434.851 433.842C438.121 434.328 445.341 436.272 449.291 437.749C450.206 438.08 451.218 438.43 451.53 438.507C452.074 438.663 454.39 439.518 455.227 439.888C455.441 439.985 456.842 440.607 458.341 441.268C462.953 443.27 469.531 446.692 469.531 447.061C469.531 447.275 462.837 449.374 458.536 450.482C452.833 451.96 442.83 453.515 436.836 453.826C428.331 454.293 419.729 453.787 411.634 452.407C407.527 451.688 403.07 450.813 401.786 450.463C401.183 450.288 400.56 450.191 400.385 450.23C399.82 450.346 396.259 453.651 394.313 455.848C393.242 457.034 391.744 458.841 390.985 459.872C389.409 462.03 387.482 465.121 387.638 465.257C387.774 465.393 392.873 466.676 394.216 466.909C394.799 467.006 396.298 467.278 397.524 467.512C398.75 467.726 400.21 467.998 400.735 468.095C403.012 468.503 410.777 469.456 414.455 469.767C419.944 470.214 431.776 470.214 436.894 469.747C443.764 469.125 448.279 468.503 454.546 467.298C457.679 466.695 457.932 466.617 461.941 465.451C463.284 465.062 464.938 464.596 465.639 464.401C469.96 463.196 480.858 459.308 480.975 458.939C481.014 458.822 481.15 458.744 481.286 458.744C481.675 458.744 481.169 455.887 479.71 449.802C478.114 443.115 474.007 430.654 472.742 428.69C472.334 428.049 467.799 425.308 463.771 423.286C457.679 420.234 452.366 418.193 445.224 416.19C442.869 415.529 438.276 414.519 437.225 414.441C437.07 414.421 435.844 414.246 434.501 414.033C427.553 412.963 418.854 412.983 410.466 414.11C398.4 415.743 384.991 420.837 375.435 427.407C365.763 434.075 357.258 443.095 351.848 452.426C347.78 459.444 345.328 465.548 343.304 473.557C342.448 476.979 342.331 477.64 341.747 482.267C340.891 489.187 341.28 498.557 342.759 506.761C344.453 516.092 346.009 521.555 350.68 534.463C351.692 537.243 352.451 539.536 352.373 539.575C352.315 539.595 351.478 539.264 350.505 538.817C346.379 536.912 342.857 535.687 337.738 534.365C335.422 533.763 334.858 533.685 334.858 533.899C334.858 534.054 335.131 535.299 335.442 536.659C336.96 543.016 339.159 548.595 342.312 553.961C342.954 555.069 343.402 556.041 343.304 556.119C343.207 556.196 341.864 556.469 340.327 556.702C334.916 557.557 327.891 559.618 322.695 561.873C318.763 563.584 317.537 564.167 317.537 564.283C317.537 564.497 321.352 567.783 323.473 569.357C329.818 574.139 336.337 577.872 341.825 579.874C343.071 580.321 344.18 580.768 344.277 580.846C344.355 580.924 343.83 581.721 343.09 582.615C340.035 586.27 337.797 589.594 335.967 593.21C334.722 595.679 332.62 600.733 332.406 601.783L332.289 602.327L334.021 602.172C340.911 601.589 347.527 600.189 352.646 598.206C353.599 597.837 354.417 597.584 354.475 597.642C354.534 597.681 354.592 598.75 354.65 600.014C354.826 605.865 355.565 611.386 356.927 616.985C357.609 619.823 358.912 624.139 359.165 624.43C359.418 624.703 363.136 621.456 366.775 617.782C370.414 614.127 372.73 611.347 374.851 608.081C375.494 607.109 376.097 606.293 376.175 606.293C376.564 606.293 375.708 611.017 374.812 613.777C371.874 622.992 365.957 628.241 357.609 628.999C353.346 629.388 349.629 628.649 345.465 626.608C340.366 624.1 336.746 620.659 333.087 614.847L331.978 613.097L331.861 615.294C331.472 621.709 329.409 626.86 325.77 630.457C324.096 632.109 323.045 632.848 321.079 633.762C316.72 635.822 311.504 635.686 306.756 633.451C304.907 632.556 301.131 629.893 301.248 629.543C301.287 629.446 301.618 629.271 301.988 629.193C302.649 629.018 310.2 626.958 310.687 626.783C310.882 626.724 310.862 626.608 310.59 626.258C309.558 624.955 298.913 612.475 297.434 610.822C297.22 610.57 297.083 610.317 297.161 610.259C297.22 610.2 300.236 610.803 303.856 611.62C311.699 613.369 316.195 614.302 316.292 614.205C316.331 614.166 315.28 610.822 313.956 606.76C312.614 602.716 310.57 596.418 309.383 592.782C304.09 576.628 300.411 565.08 300.411 564.594C300.392 563.642 299.808 564.147 292.821 571.185C288.832 575.209 285.465 578.494 285.368 578.494C285.154 578.494 285.192 578.086 286.204 569.843C286.633 566.422 287.275 561.076 287.664 557.985C288.034 554.874 288.404 551.978 288.462 551.511C288.52 551.064 288.501 550.695 288.404 550.695C288.326 550.695 287.567 550.909 286.749 551.161C285.64 551.511 285.212 551.57 285.076 551.414C284.842 551.084 283.811 548.595 283.091 546.554C281.573 542.316 280.113 536.232 279.549 531.838C279.218 529.097 279.218 519.027 279.549 516.286C280.327 510.124 282.118 503.514 284.375 498.499C285.329 496.38 287.975 491.5 289.26 489.518C294.3 481.703 302.844 473.596 310.726 469.145C315.085 466.676 319.756 464.615 323.473 463.507C324.641 463.157 326.061 462.729 326.587 462.554C329.623 461.621 334.021 460.883 338.05 460.63L338.809 460.591L339.432 458.939C342.662 450.366 348.481 441.618 356.188 433.686C357.667 432.151 358.912 430.848 358.951 430.77C358.99 430.634 355.273 429.934 353.152 429.662C347.508 428.943 340.405 428.71 334.527 429.06C329.195 429.351 321.06 430.654 317.051 431.82C316.525 431.976 315.066 432.364 313.84 432.675C306.639 434.503 295.916 439.402 287.275 444.806C277.466 450.949 266.529 462.166 259.698 473.13C258.803 474.568 257.752 476.318 257.363 477.018C256.993 477.718 256.312 478.942 255.883 479.739C255.105 481.158 253.47 484.813 252.478 487.321C249.987 493.619 248.157 500.385 246.97 507.733C245.958 513.992 245.647 522.74 246.192 529.311C246.873 537.223 248.235 543.988 250.609 551.142C251.232 553.067 251.738 554.661 251.699 554.7C251.66 554.738 250.862 554.991 249.889 555.263C247.223 556.041 243 558.004 243 558.471C243 558.549 243.856 559.093 244.907 559.637C252.186 563.525 256.759 568.132 260.885 575.772C262.5 578.766 263.24 580.419 265.459 586.173C268.222 593.307 270.518 598.925 271.861 601.822C272.231 602.619 272.951 604.232 273.457 605.418C274.819 608.606 279.335 617.646 281.203 620.97C288.287 633.587 293.892 641.071 300.197 646.339C301.287 647.233 302.163 648.03 302.163 648.089C302.163 648.147 301.579 648.691 300.878 649.275C298.601 651.16 297.706 652.988 297.55 656.156C297.336 660.2 298.815 663.174 301.871 664.865C302.63 665.293 302.669 665.351 303.058 667.14C305.569 678.143 307.145 684.441 309.675 693.481C310.356 695.93 311.388 699.663 311.971 701.743L313.003 705.534L311.855 706.778C309.675 709.169 308.566 712.338 308.955 715.176C309.694 720.716 313.392 723.982 322.208 726.898C334.955 731.116 359.574 735.49 384.582 737.979C401.241 739.651 418.542 740.856 435.863 741.595C438.49 741.692 442.383 741.886 444.523 741.983C448.552 742.178 464.335 742.761 477.608 743.189C490.122 743.597 538.542 743.5 548.739 743.053C549.868 743.014 552.573 742.916 554.773 742.858C558.704 742.742 565.943 742.469 569.952 742.275C571.081 742.236 573.319 742.139 574.915 742.081C578.01 741.964 590.718 741.342 596.907 741.011C608.467 740.389 613.663 740.02 629.213 738.679C636.18 738.076 645.074 737.182 649.375 736.637C654.668 735.976 659.164 735.393 660.643 735.179C661.343 735.063 662.92 734.849 664.146 734.693C666.15 734.421 670.179 733.76 676.601 732.652C686.274 730.961 698.32 727.928 704.042 725.712C707.623 724.332 711.437 721.494 712.741 719.239C714.006 717.061 714.24 713.737 713.306 710.977C712.702 709.188 712.313 708.527 711.009 706.953L710.075 705.825L711.067 702.093C711.612 700.032 712.469 696.844 712.994 695.036C713.5 693.209 715.388 685.802 717.178 678.57L720.448 665.41L721.577 664.71C723.562 663.485 724.807 661.619 725.372 659.014C725.858 656.681 725.586 654.368 724.535 652.229C724.009 651.141 722.219 649.119 721.168 648.419L720.681 648.108L721.946 646.981C725.703 643.676 729.77 639.36 732.475 635.803C734.071 633.723 738.099 627.56 740.143 624.08C742.07 620.815 748.511 607.868 750.594 603.085C751.995 599.878 755.42 591.421 758.437 583.743C761.317 576.433 764.1 571.457 767.331 567.86C770.269 564.575 772.897 562.612 779.046 559.151L780 558.607L779.533 558.238C778.735 557.616 774.882 555.788 773.033 555.186C771.962 554.816 771.301 554.505 771.32 554.35C771.34 554.214 771.885 552.561 772.527 550.695C775.641 541.597 777.081 531.702 776.906 520.855C776.73 510.104 774.882 500.132 770.989 489.168C768.07 480.906 762.757 471.711 756.238 463.604C750.341 456.275 742.634 449.355 734.986 444.534C721.226 435.825 707.915 431.101 691.976 429.293C686.137 428.632 677.224 428.729 671.347 429.487C667.844 429.954 664.866 430.381 664.399 430.498C664.01 430.595 664.243 430.906 666.54 433.356C670.821 437.944 672.475 439.907 674.791 443.095C676.154 445 676.971 446.283 679.462 450.424C680.863 452.796 683.238 457.889 684.055 460.319C684.133 460.552 684.717 460.669 686.741 460.863C697.678 461.874 709.219 466.345 718.054 472.994C722.005 475.949 725.45 479.078 727.882 481.878C735.18 490.334 739.092 497.741 741.778 508.335C744.93 520.66 744.055 534.968 739.384 547.507C738.197 550.695 737.769 551.667 737.496 551.667C737.36 551.667 736.659 551.473 735.92 551.239C735.2 551.006 734.577 550.85 734.538 550.909C734.499 550.948 734.655 552.639 734.908 554.68C735.141 556.702 735.492 559.637 735.667 561.192C735.842 562.748 736.367 567.199 736.854 571.087C737.321 574.995 737.691 578.261 737.652 578.377C737.613 578.494 734.246 575.267 730.159 571.223C725.488 566.597 722.705 563.953 722.647 564.128C722.589 564.283 722.083 566.014 721.479 567.996C720.175 572.448 714.921 588.855 710.192 603.28C708.226 609.267 706.65 614.186 706.65 614.205C706.708 614.283 717.723 612.047 721.888 611.134C723.951 610.667 725.683 610.356 725.761 610.414C725.819 610.492 724.613 612.008 723.075 613.816C716.011 622.059 712.391 626.355 712.294 626.569C712.235 626.724 713.773 627.249 717.081 628.163C719.864 628.921 721.927 629.601 721.888 629.718C721.752 630.126 718.288 632.576 716.789 633.314C714.142 634.617 712.138 635.103 708.985 635.2C706.65 635.297 706.027 635.239 704.606 634.889C702.466 634.364 699.799 633.023 698.165 631.662C694.155 628.318 691.353 621.864 691.022 615.158L690.905 612.825L689.563 615.158C687.772 618.268 686.682 619.687 684.542 621.767C681.506 624.664 678.236 626.647 674.246 627.949C671.619 628.804 669.673 629.096 666.676 629.077C663.796 629.077 661.402 628.532 658.716 627.269C655.583 625.811 653.676 624.217 651.749 621.417C649.336 617.937 647.351 612.514 646.825 607.965C646.728 607.129 646.592 606.274 646.533 606.079C646.319 605.399 646.806 605.71 647.214 606.487C647.876 607.77 651.048 612.106 653.092 614.516C655.33 617.121 658.093 619.823 661.382 622.584C664.107 624.878 663.737 624.975 664.71 621.806C665.644 618.793 666.987 612.98 667.357 610.375C667.435 609.889 667.532 609.228 667.571 608.917C667.883 607.012 668.058 604.991 668.174 601.569C668.252 599.003 668.369 597.739 668.505 597.739C668.622 597.739 669.186 597.914 669.751 598.128C670.743 598.517 672.32 599.003 675.725 599.994C680.221 601.297 690.419 602.716 690.419 602.055C690.419 601.744 689.485 599.197 688.57 596.962C686.371 591.577 683.744 587.184 679.91 582.382C679.287 581.585 678.82 580.866 678.898 580.807C678.976 580.749 680.104 580.282 681.428 579.777C688.784 576.939 697.795 571.243 704.626 565.119L705.502 564.342L702.972 563.136C696.179 559.89 689.796 557.888 682.829 556.799C678.761 556.158 679.014 556.235 679.404 555.691C680.279 554.466 682.595 550.228 683.627 547.934C685.651 543.541 687.363 538.117 687.811 534.774L687.947 533.743L687.286 533.879C682.771 534.813 678.08 536.309 673.721 538.253C671.989 539.031 670.51 539.614 670.432 539.556C670.296 539.42 670.919 537.573 672.612 533.102C676.387 523.129 679.443 512.087 680.571 504.428C681.759 496.38 681.836 486.718 680.766 479.545C679.618 471.808 675.764 460.708 672.008 454.331C671.425 453.34 670.957 452.504 670.957 452.446C670.957 452.135 667.746 447.411 665.586 444.553C662.959 441.073 660.643 438.41 658.385 436.252C651.768 429.915 645.132 425.23 637.97 421.809C629.271 417.668 620.533 415.005 612.087 413.955C606.579 413.255 599.962 413.002 595.155 413.294ZM595.544 414.227C595.466 414.499 595.505 414.616 595.7 414.616C595.856 414.616 596.031 414.791 596.089 415.005C596.206 415.432 595.856 415.529 595.486 415.16C595.233 414.907 595.175 414.188 595.389 413.974C595.622 413.741 595.661 413.838 595.544 414.227ZM417.958 414.421C417.958 414.519 417.861 414.616 417.744 414.616C417.647 414.616 417.608 414.519 417.667 414.421C417.725 414.305 417.822 414.227 417.881 414.227C417.92 414.227 417.958 414.305 417.958 414.421ZM600.702 414.81C600.702 414.907 600.624 415.005 600.507 415.005C600.41 415.005 600.312 414.907 600.312 414.81C600.312 414.694 600.41 414.616 600.507 414.616C600.624 414.616 600.702 414.694 600.702 414.81ZM534.533 416.249C534.533 416.307 534.455 416.404 534.338 416.463C534.241 416.521 534.143 416.482 534.143 416.385C534.143 416.268 534.241 416.171 534.338 416.171C534.455 416.171 534.533 416.21 534.533 416.249ZM540.371 417.609C540.371 417.823 540.001 417.901 539.885 417.726C539.826 417.629 539.904 417.532 540.06 417.532C540.235 417.532 540.371 417.571 540.371 417.609ZM533.17 420.253C533.17 420.351 533.073 420.448 532.956 420.448C532.859 420.448 532.82 420.351 532.878 420.253C532.937 420.137 533.034 420.059 533.092 420.059C533.131 420.059 533.17 420.137 533.17 420.253ZM427.689 422.528C427.689 422.761 427.65 422.761 427.397 422.508C427.242 422.353 427.105 422.178 427.105 422.12C427.105 422.061 427.242 422.061 427.397 422.12C427.553 422.197 427.689 422.372 427.689 422.528ZM596.225 422.392C596.225 422.489 596.128 422.586 596.011 422.586C595.914 422.586 595.875 422.489 595.934 422.392C595.992 422.275 596.089 422.197 596.148 422.197C596.187 422.197 596.225 422.275 596.225 422.392ZM414.455 423.208C414.455 423.325 414.339 423.305 414.164 423.169C414.008 423.033 413.872 422.897 413.872 422.858C413.872 422.819 414.008 422.839 414.164 422.897C414.319 422.975 414.455 423.111 414.455 423.208ZM534.63 423.558C534.688 423.655 534.669 423.752 534.552 423.752C534.455 423.752 534.299 423.655 534.241 423.558C534.182 423.441 534.202 423.364 534.319 423.364C534.416 423.364 534.572 423.441 534.63 423.558ZM560.222 426.28C560.222 426.377 560.124 426.474 560.008 426.474C559.91 426.474 559.871 426.377 559.93 426.28C559.988 426.163 560.086 426.085 560.144 426.085C560.183 426.085 560.222 426.163 560.222 426.28ZM572.872 429.196C572.872 429.293 572.794 429.39 572.677 429.39C572.58 429.39 572.482 429.293 572.482 429.196C572.482 429.079 572.58 429.001 572.677 429.001C572.794 429.001 572.872 429.079 572.872 429.196ZM461.358 429.39C461.358 429.487 461.26 429.584 461.143 429.584C461.046 429.584 461.007 429.487 461.066 429.39C461.124 429.273 461.221 429.196 461.28 429.196C461.319 429.196 461.358 429.273 461.358 429.39ZM532.392 436.583C532.392 436.68 532.353 436.777 532.314 436.777C532.256 436.777 532.158 436.68 532.1 436.583C532.042 436.466 532.08 436.388 532.178 436.388C532.295 436.388 532.392 436.466 532.392 436.583ZM657.626 438.138C657.685 438.235 657.646 438.332 657.548 438.332C657.432 438.332 657.334 438.235 657.334 438.138C657.334 438.021 657.373 437.944 657.412 437.944C657.471 437.944 657.568 438.021 657.626 438.138ZM342.526 443.115C342.584 443.27 342.565 443.348 342.448 443.29C342.331 443.231 342.253 443.095 342.253 442.979C342.253 442.706 342.39 442.765 342.526 443.115ZM550.296 444.942C550.296 445.039 550.257 445.136 550.219 445.136C550.16 445.136 550.063 445.039 550.004 444.942C549.946 444.825 549.985 444.748 550.082 444.748C550.199 444.748 550.296 444.825 550.296 444.942ZM504.367 447.664C504.367 447.761 504.328 447.858 504.29 447.858C504.231 447.858 504.134 447.761 504.075 447.664C504.017 447.547 504.056 447.469 504.153 447.469C504.27 447.469 504.367 447.547 504.367 447.664ZM654.123 447.683C654.337 448.013 654.104 448.091 653.831 447.761C653.676 447.586 653.676 447.469 653.792 447.469C653.909 447.469 654.065 447.566 654.123 447.683ZM312.516 452.174C312.361 452.329 312.341 452.251 312.419 451.921C312.497 451.668 312.575 451.571 312.633 451.726C312.672 451.863 312.614 452.076 312.516 452.174ZM314.229 451.94C314.229 452.038 314.132 452.135 314.015 452.135C313.918 452.135 313.879 452.038 313.937 451.94C313.995 451.824 314.093 451.746 314.151 451.746C314.19 451.746 314.229 451.824 314.229 451.94ZM504.367 452.329C504.367 452.426 504.328 452.524 504.29 452.524C504.231 452.524 504.134 452.426 504.075 452.329C504.017 452.212 504.056 452.135 504.153 452.135C504.27 452.135 504.367 452.212 504.367 452.329ZM427.884 458.433C427.884 458.492 427.806 458.589 427.689 458.647C427.592 458.705 427.495 458.667 427.495 458.569C427.495 458.453 427.592 458.355 427.689 458.355C427.806 458.355 427.884 458.394 427.884 458.433ZM549.265 459.172C549.207 459.327 549.148 459.269 549.148 459.055C549.129 458.841 549.187 458.725 549.245 458.803C549.304 458.861 549.323 459.036 549.265 459.172ZM331.939 459.133C331.939 459.23 331.842 459.327 331.725 459.327C331.627 459.327 331.589 459.23 331.647 459.133C331.705 459.016 331.803 458.939 331.861 458.939C331.9 458.939 331.939 459.016 331.939 459.133ZM550.394 459.522C550.452 459.619 550.413 459.716 550.316 459.716C550.199 459.716 550.102 459.619 550.102 459.522C550.102 459.405 550.141 459.327 550.18 459.327C550.238 459.327 550.335 459.405 550.394 459.522ZM428.857 460.202C428.857 460.358 428.818 460.494 428.779 460.494C428.74 460.494 428.662 460.358 428.584 460.202C428.526 460.047 428.565 459.911 428.662 459.911C428.779 459.911 428.857 460.047 428.857 460.202ZM551.269 460.455C551.269 460.552 551.133 460.63 550.978 460.63C550.822 460.63 550.744 460.552 550.802 460.455C550.861 460.377 550.978 460.299 551.094 460.299C551.192 460.299 551.269 460.377 551.269 460.455ZM617.244 462.846C617.244 462.943 617.166 463.021 617.049 463.021C616.952 463.021 616.855 462.885 616.855 462.71C616.855 462.554 616.952 462.477 617.049 462.535C617.166 462.593 617.244 462.729 617.244 462.846ZM354.767 462.924C354.709 463.099 354.611 463.196 354.573 463.138C354.514 463.079 354.534 462.963 354.611 462.846C354.787 462.535 354.903 462.593 354.767 462.924ZM523.342 464.965C523.401 465.082 523.323 465.101 523.167 465.043C522.817 464.907 522.758 464.771 523.031 464.771C523.148 464.771 523.284 464.848 523.342 464.965ZM567.617 465.159C567.617 465.257 567.481 465.354 567.306 465.354C567.15 465.354 567.072 465.257 567.131 465.159C567.189 465.043 567.325 464.965 567.442 464.965C567.539 464.965 567.617 465.043 567.617 465.159ZM588.83 468.27C588.83 468.367 588.791 468.464 588.752 468.464C588.694 468.464 588.597 468.367 588.538 468.27C588.48 468.153 588.519 468.075 588.616 468.075C588.733 468.075 588.83 468.153 588.83 468.27ZM502.227 482.072C502.227 482.169 502.129 482.267 502.013 482.267C501.915 482.267 501.876 482.169 501.935 482.072C501.993 481.955 502.09 481.878 502.149 481.878C502.188 481.878 502.227 481.955 502.227 482.072ZM363.564 482.655C363.622 482.753 363.583 482.85 363.486 482.85C363.369 482.85 363.272 482.753 363.272 482.655C363.272 482.539 363.311 482.461 363.35 482.461C363.408 482.461 363.505 482.539 363.564 482.655ZM518.672 485.183C518.925 485.299 518.963 485.357 518.769 485.357C518.613 485.357 518.341 485.28 518.185 485.183C517.835 484.949 518.146 484.949 518.672 485.183ZM369.499 485.571C369.499 485.669 369.402 485.766 369.285 485.766C369.188 485.766 369.149 485.669 369.208 485.571C369.266 485.455 369.363 485.377 369.422 485.377C369.461 485.377 369.499 485.455 369.499 485.571ZM368.137 488.098C368.137 488.196 368.059 488.293 367.962 488.293C367.845 488.293 367.709 488.196 367.651 488.098C367.592 487.982 367.67 487.904 367.826 487.904C368.001 487.904 368.137 487.982 368.137 488.098ZM663.076 488.098C663.134 488.215 663.056 488.235 662.9 488.176C662.55 488.04 662.492 487.904 662.764 487.904C662.881 487.904 663.017 487.982 663.076 488.098ZM366.483 524.159C370.531 529.175 374.345 534.949 376.661 539.614C377.985 542.239 378.16 542.725 378.14 543.599C378.101 544.824 375.747 557.732 375.513 557.965C375.416 558.063 375.318 558.121 375.28 558.063C375.241 558.024 374.443 555.944 373.509 553.436C371.971 549.295 369.188 542.744 368.429 541.403C368.137 540.917 368.118 541.286 368.215 546.224C368.293 550.87 368.721 557.266 369.013 558.607C369.091 558.899 369.032 559.054 368.857 559.054C368.565 559.054 363.7 551.803 361.345 547.896L359.963 545.582V543.522C359.963 539.984 360.392 535.94 361.248 531.547C361.754 528.961 363.564 521.671 363.797 521.282C363.933 521.069 364.186 521.341 366.483 524.159ZM659.631 523.226C660.779 527.173 661.83 532.13 662.375 536.115C662.511 537.029 662.686 538.292 662.784 538.934C662.881 539.575 663.037 541.344 663.095 542.841L663.231 545.582L662.589 546.729C661.947 547.857 656.906 555.497 655.252 557.829C654.766 558.51 654.298 559.054 654.182 559.054C654.007 559.054 654.084 556.663 654.337 554.388C654.649 551.434 654.804 548.926 654.902 545.116L655.018 540.683L654.493 541.655C653.617 543.288 648.188 556.313 648.188 556.799C648.188 557.013 647.565 558.315 647.506 558.238C647.409 558.14 646.864 555.497 646.358 552.639C645.755 549.237 645.035 544.144 645.054 543.249C645.093 541.072 649.141 533.841 654.007 527.27C655.894 524.723 658.755 521.146 658.911 521.146C658.989 521.146 659.3 522.079 659.631 523.226ZM397.719 532.11C397.719 536.97 396.59 543.191 394.683 548.906C393.476 552.464 393.067 553.125 391.141 554.7C389.486 556.041 383.084 560.959 382.578 561.27C382.441 561.348 381.994 561.154 381.468 560.784C380.729 560.24 380.592 560.065 380.67 559.657C380.729 559.365 381.215 556.08 381.76 552.347C382.869 544.785 382.636 545.466 384.893 542.511C386.567 540.295 389.681 536.951 392.075 534.774C394.371 532.694 397.31 530.283 397.563 530.283C397.641 530.283 397.719 531.1 397.719 532.11ZM627.811 532.169C631.976 535.493 636.705 540.333 639.294 543.949C640.208 545.213 640.403 545.621 640.5 546.574C640.889 549.937 642.116 559.346 642.252 559.968C642.33 560.318 642.193 560.512 641.551 560.94L640.773 561.465L640.15 561.095C638.612 560.182 631.82 554.972 630.672 553.825C629.427 552.581 629.368 552.464 628.57 550.112C627.15 545.854 625.865 540.042 625.437 535.823C625.028 531.916 624.97 530.283 625.204 530.283C625.34 530.283 626.507 531.138 627.811 532.169ZM519.8 546.36L519.761 557.304L530.699 557.343L541.617 557.402L541.558 565.566C541.539 570.057 541.48 573.751 541.461 573.77C541.441 573.809 536.576 573.848 530.66 573.867L519.898 573.926L519.839 583.646C519.8 588.991 519.761 593.696 519.761 594.104L519.742 594.823L511.335 594.785L502.908 594.726L502.81 584.326L502.713 573.926H492.009H481.306L481.247 565.605L481.208 557.304H492.009H502.81V546.457C502.81 540.489 502.869 535.532 502.947 535.473C503.005 535.396 506.839 535.357 511.451 535.376L519.839 535.435L519.8 546.36ZM680.785 542.433C679.384 546.165 677.652 549.49 675.317 553.028C673.215 556.177 673.448 556.021 667.065 559.112C660.546 562.281 658.346 563.331 658.21 563.331C657.918 563.331 658.269 562.631 659.709 560.434C661.363 557.888 663.329 554.602 665.995 549.917C666.851 548.42 667.766 546.982 668.038 546.71C668.564 546.204 671.697 544.416 674.188 543.191C676.562 542.025 681.155 540.236 681.33 540.392C681.428 540.47 681.175 541.383 680.785 542.433ZM344.258 541.286C348.15 542.763 353.891 545.816 354.962 546.982C355.215 547.254 356.499 549.276 357.823 551.473C359.146 553.669 361.267 557.13 362.532 559.171C364.537 562.417 365.023 563.331 364.77 563.331C364.731 563.331 362.377 562.223 359.555 560.881C349.298 556.002 350.213 556.507 348.948 555.03C347.527 553.339 346.399 551.589 344.861 548.654C343.771 546.593 341.475 541.092 341.475 540.586C341.475 540.275 341.747 540.353 344.258 541.286ZM413.385 555.069C415.915 555.341 419.068 555.846 421.442 556.352C421.987 556.469 422.435 556.663 422.435 556.799C422.435 557.168 419.282 560.629 416.577 563.234C412.393 567.238 409.493 569.532 405.892 571.651L404.063 572.74L400.385 572.487C396.337 572.234 388.533 571.534 388.435 571.418C388.397 571.379 390.187 570.426 392.445 569.299C396.707 567.16 404.472 563 404.608 562.767C404.725 562.573 391.647 564.011 388.961 564.478C387.735 564.692 386.664 564.808 386.587 564.731C386.47 564.594 393.476 558.84 395.344 557.538C397.057 556.352 398.03 555.963 400.365 555.535C404.841 554.738 408.909 554.602 413.385 555.069ZM619.462 555.108C625.729 555.905 625.904 556.002 632.579 561.542C634.467 563.117 636.238 564.556 636.491 564.731C636.764 564.925 636.919 565.119 636.861 565.178C636.803 565.255 635.654 565.08 634.331 564.808C629.972 563.914 627.072 563.486 620.941 562.845C618.606 562.592 617.964 562.592 618.236 562.825C618.976 563.447 632.482 570.446 633.767 570.893C634.175 571.029 634.37 571.185 634.253 571.282C634.097 571.437 631.295 571.748 626.001 572.195C625.301 572.234 623.997 572.37 623.082 572.468C620.085 572.818 618.703 572.72 617.672 572.157C613.955 570.076 609.868 566.869 605.762 562.748C604.535 561.523 603.076 559.987 602.55 559.365C602.005 558.724 601.344 557.946 601.052 557.616C600.137 556.605 600.001 556.682 604.302 555.827C605.45 555.594 608 555.244 611.016 554.894C612.437 554.738 617.555 554.855 619.462 555.108ZM354.728 563.972C358.115 565.644 360.995 567.141 361.112 567.277C361.287 567.51 359.983 567.569 353.288 567.685C348.89 567.763 344.842 567.88 344.297 567.958L343.324 568.094L345.075 568.755C348.267 569.94 353.599 571.651 356.655 572.487C358.309 572.934 359.749 573.342 359.847 573.401C359.944 573.459 359.827 573.576 359.574 573.673C358.757 573.964 348.987 576.531 348.189 576.647C347.566 576.744 346.924 576.608 345.075 575.967C342.662 575.131 337.505 572.74 334.761 571.165C331.705 569.416 326.684 565.877 326.684 565.469C326.684 565.022 334.722 562.631 339.373 561.698C342.896 560.979 344.2 560.823 346.535 560.862L348.578 560.901L354.728 563.972ZM681.759 561.367C687.247 562.339 696.685 565.119 696.335 565.683C696.277 565.78 695.343 566.48 694.253 567.258C687.869 571.768 677.652 576.744 674.752 576.744C674.422 576.744 672.826 576.394 671.23 575.967C669.634 575.539 667.124 574.859 665.664 574.45C664.185 574.062 662.978 573.673 662.978 573.595C662.978 573.517 663.484 573.323 664.107 573.148C666.968 572.351 670.782 571.165 674.169 569.999C676.212 569.318 678.197 568.657 678.606 568.541C678.995 568.424 679.326 568.269 679.326 568.191C679.326 567.919 675.122 567.724 668.486 567.724C664.827 567.705 661.791 567.646 661.733 567.588C661.538 567.394 671.755 561.989 674.266 560.92C674.83 560.687 679.443 560.979 681.759 561.367ZM377.537 563.914C380.962 565.197 383.122 568.327 383.122 572.001C383.122 576.55 380.164 580.069 375.786 580.691C372.01 581.235 368.507 579.408 366.833 576.006C366.094 574.528 366.094 574.509 366.094 572.098C366.094 569.746 366.113 569.59 366.716 568.327C367.826 565.994 370.239 564.031 372.613 563.525C373.898 563.253 376.292 563.447 377.537 563.914ZM651.34 563.914C652.839 564.478 654.59 565.8 655.349 566.927C659.358 572.973 655.31 580.807 648.168 580.827C643.361 580.827 639.624 576.997 639.624 572.059C639.624 568.638 641.395 565.78 644.49 564.186C646.339 563.253 649.277 563.117 651.34 563.914ZM392.892 576.647C398.575 577.114 402.02 577.522 402.701 577.814C404.491 578.552 409.551 582.382 412.12 584.929C413.619 586.406 416.207 589.497 416.207 589.808C416.207 590.158 411.069 589.847 406.963 589.264C405.795 589.108 403.732 588.719 402.409 588.389C399.626 587.728 400.054 588 394.157 583.101C389.525 579.233 387.307 577.289 387.326 577.094C387.346 577.017 387.365 576.803 387.385 576.647C387.404 576.278 388.28 576.278 392.892 576.647ZM635.479 576.686C635.577 576.919 635.109 577.483 633.708 578.824C630.497 581.876 623.686 587.475 622.771 587.825C621.486 588.331 616.66 589.244 613.741 589.555C611.075 589.847 606.735 590.041 606.735 589.886C606.735 589.439 608.642 587.261 611.503 584.423C613.935 581.993 616.504 579.932 618.995 578.436C620.358 577.6 620.591 577.522 622.401 577.347C624.464 577.133 628.006 576.842 631.061 576.628C632.073 576.569 632.949 576.472 632.988 576.433C633.027 576.394 633.591 576.356 634.214 576.356C635.109 576.356 635.382 576.433 635.479 576.686ZM362.902 578.727C363.136 579.194 363.447 579.719 363.603 579.894C363.875 580.205 363.603 580.652 360.645 584.929C355.643 592.16 356.324 591.441 353.522 592.666C350.427 594.026 346.749 595.212 343.285 595.97C339.315 596.845 339.509 596.962 340.774 594.474C343.363 589.419 349.026 582.324 351.342 581.196C352.198 580.788 361.676 577.93 362.24 577.911C362.377 577.911 362.668 578.28 362.902 578.727ZM665.002 579.272C667.318 579.913 669.926 580.71 670.802 581.041C672.281 581.604 672.573 581.799 674.266 583.529C677.146 586.425 680.338 590.838 682.148 594.454C682.732 595.601 683.16 596.573 683.101 596.631C682.907 596.826 675.764 595.096 673.682 594.337C672.067 593.754 668.758 592.374 667.766 591.869C667.357 591.655 666.754 591.208 666.442 590.877C665.742 590.1 659.281 580.535 659.281 580.244C659.281 579.855 660.331 578.105 660.565 578.105C660.701 578.105 662.706 578.63 665.002 579.272ZM638.574 582.149C636.277 586.678 633.825 591.966 632.599 595.057C632.385 595.582 632.054 596.437 631.84 596.981L631.431 597.973L632.424 597.156C633.65 596.126 637.425 592.121 640.792 588.272C642.213 586.639 643.439 585.337 643.517 585.395C643.575 585.434 643.575 586.076 643.497 586.795C643.419 587.514 643.166 589.866 642.933 592.005C642.719 594.143 642.427 596.126 642.31 596.418C642.096 597.001 638.126 600.655 636.044 602.211C631.626 605.496 622.829 610.764 621.759 610.764C621.564 610.764 621.525 610.57 621.603 610.025C621.662 609.637 621.798 608.645 621.895 607.848C622.109 606.312 622.129 606.215 623.082 602.405C623.822 599.489 626.079 592.549 626.702 591.324C627.15 590.43 627.344 590.255 633.3 585.551C638.827 581.177 639.177 580.963 638.574 582.149ZM385.905 582.712C387.054 583.587 391.666 587.242 394.488 589.516C396.006 590.741 396.356 591.383 397.816 595.64C399.237 599.761 400.19 603.319 400.716 606.526C401.397 610.686 401.397 610.686 400.93 610.609C400.151 610.473 394.994 607.557 391.724 605.379C386.314 601.783 380.709 597.215 380.515 596.204C380.164 594.551 379.328 585.92 379.483 585.764C379.542 585.687 380.32 586.425 381.215 587.359C383.667 590.022 391.16 597.545 391.257 597.467C391.413 597.292 388.591 590.78 386.509 586.484C385.283 583.976 384.29 581.915 384.29 581.876C384.29 581.624 384.874 581.915 385.905 582.712ZM367.884 584.948C367.806 585.628 367.534 588.097 367.281 590.449C366.678 595.698 366.327 599.781 366.425 600.072C366.522 600.403 370.103 593.91 372.244 589.516C373.217 587.495 374.092 585.92 374.17 586.017C374.326 586.173 375.241 593.21 375.455 595.893C375.571 597.428 375.571 597.467 374.793 599.022C373.236 602.191 370.94 605.69 368.215 609.073C366.249 611.542 362.162 615.819 361.812 615.819C361.637 615.819 361.404 615.158 361.151 614.011C360.139 609.481 359.574 604.213 359.574 598.886V595.096L361.481 592.277C364.79 587.397 367.495 583.743 367.806 583.743C367.923 583.743 367.962 584.19 367.884 584.948ZM655.602 584.365C655.855 584.715 656.906 586.134 657.938 587.534C658.969 588.914 660.584 591.188 661.538 592.588L663.27 595.115L663.329 598.128C663.367 599.781 663.309 602.502 663.192 604.155C662.92 607.751 662.9 607.887 662.258 611.736C661.986 613.389 661.713 615.041 661.674 615.371C661.616 615.721 661.46 616.013 661.343 616.013C660.915 616.013 656.751 611.522 654.376 608.529C652.06 605.574 649.219 601.103 647.779 598.089C647.351 597.176 647.331 597.117 647.584 594.882C647.72 593.618 647.993 591.441 648.207 590.061C648.402 588.661 648.577 587.106 648.577 586.6C648.577 586.076 648.655 585.687 648.752 585.726C648.849 585.745 650.056 588.019 651.438 590.741C654.182 596.204 656.614 600.558 656.731 600.228C656.867 599.839 655.524 588.447 655.116 586.503C655.057 586.25 654.96 585.512 654.882 584.89C654.727 583.568 654.941 583.412 655.602 584.365ZM534.435 632.42C538.405 632.498 542.784 632.576 544.166 632.634C545.567 632.692 548.195 632.77 550.004 632.828C558.626 633.101 573.008 633.742 575.986 633.995C576.569 634.034 577.932 634.131 579.002 634.189C580.072 634.248 581.474 634.345 582.116 634.384C582.758 634.442 584.782 634.578 586.592 634.675C601.013 635.531 603.504 635.744 625.028 637.883C636.452 639.01 638.963 639.282 642.738 639.827C643.75 639.963 645.152 640.138 645.852 640.216C647.526 640.41 647.74 640.429 650.231 640.779C651.418 640.935 654.123 641.304 656.264 641.576C658.405 641.849 661.246 642.257 662.589 642.451C663.932 642.665 666.52 643.054 668.33 643.326C674.85 644.317 680.241 645.192 683.121 645.756C684.736 646.067 687.48 646.592 689.251 646.922C700.169 649.002 714.415 652.191 717.023 653.182C718.21 653.61 719.319 654.776 719.455 655.709C719.572 656.506 719.3 657.925 718.872 658.781C718.054 660.355 716.4 660.725 713.578 659.928C709.822 658.897 697.328 656.137 689.543 654.621C683.218 653.396 669.907 651.257 663.465 650.422C661.752 650.208 658.872 649.819 657.042 649.547C650.834 648.652 645.638 648.03 639.333 647.408C635.499 647.02 630.925 646.553 630.147 646.436C629.31 646.32 624.834 645.814 623.277 645.659C622.576 645.6 621.233 645.464 620.26 645.367C618.723 645.192 608.35 644.376 604.205 644.104C602.453 643.987 599.787 643.773 592.041 643.132C585.619 642.607 578.866 642.14 575.402 641.965C574.176 641.907 572.424 641.81 571.509 641.771C570.595 641.712 567.228 641.596 564.017 641.479C560.806 641.382 557.303 641.246 556.232 641.188C555.162 641.149 552.885 641.051 551.172 640.993C549.46 640.935 546.93 640.857 545.528 640.799C520.598 639.905 492.535 640.041 467.001 641.188C463.518 641.343 458.711 641.576 456.298 641.674C451.004 641.907 439.366 642.568 435.474 642.84C421.851 643.812 399.645 645.659 395.481 646.145C394.624 646.242 392.133 646.514 389.934 646.728C371.543 648.555 344.706 652.366 331.842 654.97C324.816 656.39 319.737 657.498 313.84 658.897C306.892 660.53 305.861 660.627 304.887 659.83C303.214 658.411 302.941 655.631 304.323 654.193C305.16 653.338 306.191 652.968 310.979 651.802C325.984 648.128 348.442 644.026 368.526 641.304C382.052 639.457 382.792 639.38 413.774 636.328C417.939 635.919 425.996 635.297 430.317 635.064C432.36 634.947 436.038 634.734 438.49 634.578C444.757 634.189 456.998 633.548 463.012 633.314C465.795 633.217 468.811 633.081 469.726 633.023C480.294 632.401 513.534 632.09 534.435 632.42ZM517.017 653.921V660.53L523.985 660.569L530.932 660.627L530.991 666.148L531.03 671.669L524.023 671.572L517.017 671.455V678.24V685.025H511.373H505.73V678.221V671.417L498.782 671.475L491.815 671.514V666.071V660.627L498.782 660.569L505.73 660.53L505.749 655.904C505.769 651.705 505.808 649.275 505.885 647.855L505.924 647.331L508.123 647.272C509.311 647.233 511.821 647.233 513.67 647.272L517.017 647.331V653.921ZM454.059 654.309C455.286 657.459 456.336 660.141 456.434 660.278C456.551 660.433 458.205 660.122 462.72 659.072C466.087 658.275 468.909 657.692 468.986 657.77C469.064 657.848 467.293 660.083 465.055 662.746L460.988 667.567L464.51 671.397C466.456 673.497 468.403 675.577 468.831 676.024C469.259 676.49 469.551 676.899 469.492 676.957C469.434 677.035 467.644 676.821 465.522 676.49C459.898 675.635 457.057 675.266 456.959 675.363C456.862 675.46 453.145 686.366 452.931 687.163C452.853 687.474 452.736 687.571 452.619 687.454C452.503 687.338 451.452 684.636 450.265 681.448C449.097 678.24 448.104 675.616 448.085 675.577C448.046 675.557 445.399 676.102 442.188 676.782C435.61 678.162 436.058 678.084 436.058 677.832C436.058 677.676 439.288 673.536 442.577 669.473L443.609 668.228L440.942 665.332C435.085 658.897 434.656 658.372 435.629 658.664C435.824 658.722 438.451 659.169 441.507 659.655C444.562 660.141 447.209 660.589 447.384 660.647C447.657 660.725 447.91 660.083 448.98 656.798C449.661 654.621 450.537 651.86 450.887 650.674C451.238 649.469 451.607 648.497 451.705 648.536C451.802 648.575 452.853 651.16 454.059 654.309ZM571.509 648.905C571.509 649.1 575.188 660.569 575.285 660.647C575.285 660.666 577.718 660.297 580.656 659.83C587.059 658.8 588.052 658.683 588.052 658.878C588.052 658.975 587.468 659.655 586.728 660.414C584.879 662.377 580.831 666.712 580.111 667.529L579.528 668.228L583.303 673.011C585.385 675.654 587.079 677.91 587.079 678.026C587.079 678.143 586.923 678.201 586.748 678.143C585.444 677.773 582.914 677.21 577.095 676.004L574.974 675.577L574.818 675.966C574.74 676.199 574.292 677.287 573.864 678.396C573.417 679.504 572.482 681.953 571.762 683.839C570.361 687.61 570.244 687.882 570.089 687.629C569.991 687.454 567.656 680.262 566.702 677.151C566.43 676.296 566.157 675.538 566.08 675.48C565.982 675.363 564.172 675.577 556.816 676.568C555.532 676.743 554.286 676.918 554.052 676.996C553.799 677.054 553.605 677.035 553.605 676.957C553.605 676.763 555.006 675.168 558.84 671.047C560.553 669.181 561.973 667.606 561.973 667.548C561.973 667.49 560.183 665.293 557.984 662.688C555.804 660.064 554.052 657.867 554.091 657.809C554.13 657.731 555.473 657.984 557.05 658.334C560.455 659.092 564.698 660.064 565.729 660.316C566.119 660.414 566.488 660.433 566.527 660.355C566.644 660.18 568.473 655.456 569.875 651.743C570.517 650.033 571.14 648.672 571.276 648.672C571.393 648.672 571.509 648.769 571.509 648.905ZM398.769 653.512C398.828 653.61 399.159 656.409 399.509 659.733C399.879 663.368 400.21 665.779 400.346 665.779C400.443 665.779 403.129 665.468 406.282 665.099C409.434 664.749 412.101 664.515 412.178 664.593C412.354 664.768 413.405 674.663 413.268 674.799C413.229 674.838 410.524 675.11 407.255 675.402C404.005 675.674 401.319 675.927 401.299 675.946C401.28 675.966 401.572 678.57 401.922 681.72C402.292 684.869 402.564 687.707 402.526 688.038L402.487 688.621L397.913 689.049C395.403 689.282 393.145 689.476 392.931 689.476C392.406 689.496 392.464 689.748 391.763 683.022C391.452 680.165 391.141 677.715 391.082 677.598C390.965 677.424 389.409 677.54 385.088 678.026C381.857 678.376 379.191 678.629 379.152 678.59C379.113 678.551 378.88 676.626 378.666 674.333C378.432 672.039 378.218 669.745 378.16 669.239L378.063 668.345L378.783 668.228C379.191 668.17 380.748 667.995 382.247 667.82C383.745 667.665 386.1 667.412 387.462 667.256C388.844 667.101 390.012 666.945 390.051 666.887C390.109 666.829 389.876 664.049 389.525 660.725C389.156 657.012 388.98 654.601 389.078 654.504C389.175 654.407 391.18 654.115 393.534 653.843C398.614 653.299 398.633 653.279 398.769 653.512ZM628.531 653.823C632.716 654.271 633.767 654.426 633.883 654.543C634 654.659 633.961 655.223 633.105 662.377C632.852 664.613 632.618 666.557 632.618 666.693C632.618 666.945 632.521 666.926 639.235 667.742C642.077 668.092 644.47 668.442 644.568 668.52C644.743 668.676 643.789 678.59 643.595 678.784C643.556 678.823 642.018 678.668 640.169 678.434C638.321 678.201 636.491 677.968 636.121 677.929C635.752 677.89 634.623 677.735 633.65 677.618C632.657 677.482 631.801 677.404 631.762 677.462C631.704 677.521 631.373 680.262 631.023 683.567L630.38 689.593L629.894 689.573C628.59 689.496 620.299 688.524 620.202 688.426C620.163 688.388 620.299 686.755 620.533 684.791C620.766 682.828 621 680.845 621.039 680.359C621.097 679.873 621.214 678.745 621.331 677.851C621.428 676.938 621.486 676.179 621.428 676.121C621.331 676.024 613.994 675.207 611.347 674.994C610.374 674.916 609.576 674.76 609.537 674.644C609.459 674.449 609.615 672.758 610.257 666.848C610.374 665.662 610.53 664.652 610.607 664.593C610.705 664.477 615.064 664.943 620.591 665.643L622.674 665.915L622.79 664.924C622.965 663.291 623.647 657.459 623.88 655.476C623.997 654.465 624.153 653.551 624.192 653.474C624.25 653.376 624.6 653.357 625.009 653.415C625.398 653.474 626.975 653.668 628.531 653.823ZM339.918 661.347C340.988 663.31 345.387 671.028 345.426 671.028C345.465 671.028 347.956 670.114 350.992 668.987C356.11 667.101 357.044 666.79 357.044 667.043C357.044 667.14 353.541 672.738 351.731 675.538L350.641 677.229L355.293 681.253C357.862 683.45 359.924 685.316 359.886 685.374C359.847 685.452 358.251 685.452 356.324 685.394C354.417 685.316 351.751 685.258 350.388 685.238C347.956 685.219 347.897 685.219 347.819 685.647C347.78 685.899 347.274 688.504 346.73 691.44C346.165 694.375 345.64 696.902 345.562 697.058C345.426 697.311 345.153 696.844 341.183 689.204C340.463 687.804 339.86 686.657 339.84 686.638C339.762 686.56 333.282 688.757 330.596 689.768C329.273 690.273 328.144 690.623 328.085 690.565C328.008 690.507 328.085 690.254 328.241 690.021C331.355 685.161 334.235 680.242 334.08 680.087C333.963 679.97 331.939 678.221 329.565 676.179C327.19 674.158 325.244 672.408 325.225 672.311C325.225 672.136 329.467 672.155 333.982 672.369C335.695 672.466 337.116 672.505 337.155 672.486C337.271 672.389 339.14 661.211 339.14 660.569C339.14 660.55 339.217 660.53 339.295 660.53C339.393 660.53 339.665 660.9 339.918 661.347ZM683.607 660.608C683.607 660.705 685.359 671.261 685.476 671.805L685.573 672.291L691.625 672.233C696.024 672.175 697.639 672.214 697.542 672.369C697.464 672.486 695.44 674.255 693.027 676.296C690.633 678.337 688.667 680.048 688.667 680.087C688.667 680.106 690.069 682.439 691.781 685.238C693.494 688.038 694.837 690.39 694.798 690.468C694.739 690.565 693.883 690.312 692.91 689.943C691.917 689.573 689.349 688.66 687.208 687.921C683.705 686.716 683.296 686.599 683.082 686.891C682.965 687.066 681.642 689.457 680.163 692.217C678.684 694.978 677.419 697.174 677.36 697.116C677.282 697.038 676.952 695.483 676.621 693.675C676.27 691.848 675.823 689.535 675.628 688.524C675.434 687.513 675.219 686.346 675.142 685.919L675.025 685.161L669.07 685.316C665.022 685.413 663.153 685.394 663.192 685.258C663.231 685.141 663.932 684.5 664.749 683.819C666.54 682.322 671.502 678.104 672.008 677.618C672.378 677.287 672.339 677.229 671.016 675.168C668.778 671.728 666.092 667.373 666.092 667.198C666.092 667.023 671.872 668.851 675.414 670.153C677.438 670.892 677.438 670.892 677.749 670.503C677.925 670.289 679.248 667.956 680.688 665.332C682.907 661.288 683.607 660.161 683.607 660.608ZM541.539 692.295C546.715 692.431 554.792 692.723 557.789 692.898C558.762 692.956 561.331 693.092 563.53 693.189C565.729 693.306 568.143 693.442 568.882 693.481C569.641 693.539 572.268 693.656 574.721 693.772C577.192 693.87 579.819 694.006 580.559 694.064C581.318 694.103 583.809 694.239 586.105 694.356C588.402 694.472 592.139 694.686 594.377 694.842C602.356 695.405 609.012 695.911 611.113 696.105C612.301 696.202 615.317 696.475 617.828 696.688C626.975 697.466 637.425 698.496 639.819 698.827C640.52 698.943 643.887 699.332 647.312 699.702C656.498 700.732 661.382 701.373 666.481 702.229C668.038 702.482 670.529 702.89 672.028 703.104C682.128 704.62 693.26 706.875 701.123 709.013C705.093 710.083 705.19 710.121 706.085 710.918C707.039 711.735 707.545 712.843 707.545 714.145C707.545 715.39 707.195 716.128 706.28 716.828C705.132 717.703 704.451 717.664 698.962 716.362C691.509 714.593 688.122 713.893 681.136 712.726C677.613 712.124 673.877 711.482 672.806 711.268C668.836 710.51 651.126 708.177 641.279 707.108C636.452 706.583 631.548 706.058 629.991 705.903C628.882 705.806 624.892 705.398 619.385 704.853C615.103 704.426 607.513 703.784 603.134 703.492C601.538 703.376 597.938 703.123 595.155 702.909C582.855 701.996 564.931 701.121 553.313 700.868C550.647 700.81 546.91 700.732 545.042 700.674C530.056 700.265 497.965 700.207 483.544 700.557C467.43 700.965 460.696 701.16 454.157 701.451C436.213 702.268 414.689 703.881 395.091 705.922C391.569 706.292 386.042 706.855 382.831 707.186C370.803 708.411 357.044 710.16 348.384 711.579C336.902 713.446 333.379 714.126 322.909 716.556C318.219 717.625 317.557 717.664 316.486 716.828C315.085 715.759 314.793 713.232 315.883 711.657C316.72 710.471 317.654 710.024 321.819 708.936C331.88 706.272 346.496 703.473 360.061 701.646C366.444 700.771 367.865 700.596 374.949 699.799C392.873 697.758 393.885 697.66 411.828 696.202C429.149 694.803 430.823 694.706 448.318 693.792C474.416 692.431 478.756 692.276 498.626 692.101C505.905 692.023 511.879 691.965 511.899 691.945C511.977 691.887 537.257 692.178 541.539 692.295ZM541.15 706.603C545.801 706.7 550.88 706.836 552.437 706.894C553.994 706.933 556.835 707.03 558.762 707.089C572.911 707.536 588.129 708.411 606.443 709.83C611.444 710.219 623.082 711.288 626.099 711.657C626.955 711.754 629.096 711.988 630.867 712.143C637.639 712.804 645.035 713.659 651.399 714.495C655.038 714.981 658.716 715.467 659.572 715.565C662.881 715.973 670.88 717.159 675.239 717.897C683.179 719.239 694.798 721.61 695.167 721.96C695.673 722.446 685.573 724.837 675.044 726.723C664.224 728.667 646.942 731 636.803 731.875C634.234 732.108 630.828 732.419 629.213 732.574C627.617 732.73 624.581 732.983 622.498 733.138C620.416 733.294 618.275 733.469 617.73 733.508C616.621 733.624 606.988 734.305 602.453 734.596C600.799 734.693 597.646 734.888 595.447 734.985C591.535 735.179 585.872 735.49 582.602 735.665C579.683 735.84 572.93 736.132 567.617 736.346C564.776 736.443 561.331 736.579 559.93 736.637C547.844 737.104 534.221 737.337 515.558 737.396C485.12 737.512 469.648 737.123 433.82 735.374C416.616 734.518 405.717 733.741 388.085 732.069C371.562 730.514 353.093 727.831 340.171 725.148C336.746 724.449 329.156 722.543 328.144 722.155C327.599 721.941 327.599 721.902 327.949 721.746C328.903 721.338 338.789 719.394 347.8 717.858C355.682 716.517 377.012 713.834 391.004 712.435C411.244 710.394 412.042 710.316 422.727 709.519C446.255 707.769 455.928 707.303 480.624 706.681C497.789 706.253 524.315 706.214 541.15 706.603Z" fill="#C8A84E"/>
</svg>
