<?xml version="1.0" standalone="no"?>
<!DOCTYPE svg PUBLIC "-//W3C//DTD SVG 20010904//EN"
 "http://www.w3.org/TR/2001/REC-SVG-20010904/DTD/svg10.dtd">
<svg version="1.0" xmlns="http://www.w3.org/2000/svg"
 width="1280.000000pt" height="853.000000pt" viewBox="0 0 1280.000000 853.000000"
 preserveAspectRatio="xMidYMid meet">
<metadata>
Created by potrace 1.16, written by Peter Selinger 2001-2019
</metadata>
<g transform="translate(0.000000,853.000000) scale(0.100000,-0.100000)"
fill="#4A6FA5" fill-rule="evenodd" stroke="none">
<path d="M6345 7208 c-2 -7 -6 -40 -7 -73 l-3 -60 -67 -3 -68 -3 0 -59 0 -60
70 0 c79 0 75 5 70 -92 l-2 -48 61 0 c69 0 73 6 68 90 l-2 45 70 5 70 5 3 58
3 57 -71 0 -70 0 0 53 c0 91 -4 97 -66 97 -35 0 -56 -5 -59 -12z"/>
<path d="M6018 6821 c-43 -14 -94 -49 -112 -76 -14 -21 -20 -23 -42 -15 -14 6
-51 10 -81 10 -130 0 -217 -93 -214 -227 1 -48 10 -72 63 -172 34 -64 70 -132
80 -151 10 -19 26 -59 35 -87 l17 -53 637 0 638 0 10 38 c6 20 31 75 56 122
121 228 130 251 130 320 -1 53 -6 73 -27 106 -53 83 -113 110 -221 101 l-70
-6 -44 39 c-98 86 -234 74 -396 -35 -37 -25 -70 -45 -73 -45 -3 0 -31 18 -63
39 -111 75 -251 115 -323 92z m204 -154 c126 -64 117 -42 118 -283 1 -193 0
-208 -17 -214 -20 -7 -150 -7 -156 1 -12 12 -95 167 -143 264 -69 140 -73 188
-19 242 34 34 38 35 90 31 36 -3 79 -17 127 -41z m571 22 c31 -24 51 -88 42
-132 -4 -18 -34 -83 -66 -144 -33 -62 -57 -113 -54 -113 3 0 1 -6 -5 -12 -7
-7 -24 -35 -38 -63 -24 -44 -32 -51 -67 -57 -22 -3 -64 -4 -92 -1 l-53 6 0
208 0 208 45 31 c124 85 234 112 288 69z m-967 -65 c18 -5 23 -16 28 -62 7
-58 32 -116 130 -295 27 -48 46 -91 43 -94 -9 -8 -140 -11 -162 -3 -24 9 -174
284 -182 334 -14 85 57 143 143 120z m1271 -29 c30 -34 31 -106 3 -155 -10
-19 -47 -87 -81 -150 -35 -63 -67 -118 -73 -122 -6 -5 -36 -6 -66 -3 -30 2
-68 4 -83 4 l-29 1 45 83 c101 185 128 246 134 303 7 64 22 76 88 69 27 -2 47
-12 62 -30z"/>
<path d="M5767 5963 c-4 -3 -7 -33 -7 -65 l0 -58 640 0 641 0 -3 63 -3 62
-631 3 c-347 1 -634 -1 -637 -5z"/>
<path d="M5445 5535 c-226 -43 -376 -150 -462 -327 -35 -72 -50 -207 -34 -296
28 -150 129 -275 285 -351 44 -21 188 -74 320 -116 268 -87 356 -127 419 -189
50 -50 67 -98 67 -182 0 -152 -113 -256 -310 -285 -138 -20 -323 17 -450 89
-50 29 -165 118 -194 151 -11 11 -24 21 -31 21 -12 0 -105 -102 -143 -157
l-23 -33 58 -56 c117 -112 256 -187 440 -235 122 -32 341 -37 461 -10 262 58
431 212 476 433 9 42 16 90 16 105 0 30 -24 146 -35 175 -6 16 29 17 527 20
l533 4 85 28 c257 85 395 217 450 432 37 142 20 299 -45 429 -74 148 -207 248
-410 307 -78 22 -90 23 -525 23 l-445 0 0 -440 0 -440 138 -3 137 -3 0 321 0
320 23 0 c12 0 122 1 245 4 190 3 236 1 308 -15 135 -29 224 -94 273 -199 23
-48 26 -68 26 -155 0 -87 -3 -107 -26 -156 -32 -68 -92 -128 -165 -163 -107
-53 -155 -56 -777 -56 l-572 0 -61 29 c-69 32 -283 110 -449 164 -147 47 -233
88 -280 136 -48 48 -63 88 -64 166 -1 135 87 226 264 270 170 42 401 -19 565
-149 25 -20 49 -36 53 -36 12 0 36 29 103 123 64 89 69 73 -47 152 -88 59
-179 101 -287 131 -114 33 -318 41 -437 19z"/>
<path d="M6475 4187 c-3 -7 -4 -147 -3 -312 l3 -300 135 0 135 0 3 313 2 312
-135 0 c-100 0 -137 -3 -140 -13z"/>
<path d="M3207 3156 c-52 -19 -85 -52 -97 -95 -25 -89 -1 -140 84 -180 33 -16
79 -33 101 -37 98 -17 136 -74 83 -124 -34 -32 -120 -24 -186 17 l-50 31 -26
-27 c-14 -15 -26 -34 -26 -42 0 -22 97 -76 163 -90 171 -37 308 95 239 230
-24 48 -54 67 -149 95 -106 30 -133 48 -133 85 0 38 20 53 78 59 36 3 62 -2
100 -18 29 -13 54 -21 55 -19 2 2 13 17 25 33 26 34 23 40 -30 67 -54 27 -177
35 -231 15z"/>
<path d="M4740 3143 c-69 -35 -93 -76 -87 -146 6 -74 46 -109 168 -147 101
-32 129 -52 129 -88 0 -39 -34 -62 -93 -62 -50 0 -85 12 -144 50 -21 14 -25
12 -55 -18 l-33 -33 25 -21 c54 -45 131 -72 205 -72 159 0 238 101 186 236
-14 36 -71 71 -153 93 -88 23 -128 48 -128 78 0 64 86 87 178 47 57 -25 60
-24 92 32 17 29 -69 69 -160 75 -68 4 -80 2 -130 -24z"/>
<path d="M5264 3160 c-16 -5 -48 -25 -70 -44 -39 -33 -39 -34 -39 -106 0 -70
1 -73 35 -101 20 -17 65 -38 105 -50 98 -28 134 -46 144 -71 32 -87 -99 -119
-204 -51 l-48 31 -29 -34 c-25 -28 -28 -37 -18 -49 41 -50 171 -91 252 -80 26
4 65 19 87 33 54 35 75 79 69 150 -4 48 -10 60 -40 87 -19 18 -57 39 -84 47
-27 9 -68 21 -91 28 -56 17 -86 45 -78 73 17 58 85 72 176 36 l52 -20 23 28
c13 15 22 32 20 38 -1 5 -24 21 -51 35 -53 27 -155 37 -211 20z"/>
<path d="M7578 3160 c-82 -25 -118 -71 -118 -153 0 -90 43 -125 212 -172 60
-16 78 -34 78 -79 0 -35 -35 -56 -91 -56 -47 0 -131 29 -143 49 -12 19 -32 12
-56 -21 l-23 -31 31 -28 c29 -26 142 -69 183 -69 10 0 41 5 70 11 75 16 129
68 136 131 6 56 -9 107 -43 138 -13 13 -72 40 -131 59 -58 20 -111 43 -116 52
-6 9 -7 27 -4 41 13 49 99 63 176 27 52 -23 65 -20 85 20 15 29 15 30 -17 49
-62 38 -162 52 -229 32z"/>
<path d="M8869 3155 c-48 -15 -129 -86 -155 -136 -69 -134 -19 -303 111 -375
107 -60 246 -51 340 21 l35 26 0 100 0 99 -50 0 -50 0 0 -75 c0 -67 -2 -76
-24 -90 -33 -22 -113 -29 -162 -16 -112 30 -161 185 -91 288 51 76 168 101
256 55 47 -25 50 -24 82 31 33 57 -177 109 -292 72z"/>
<path d="M3560 3148 c0 -12 92 -284 156 -460 l28 -78 42 0 41 0 31 98 c17 53
42 136 57 185 14 48 30 87 36 87 5 0 9 -5 9 -11 0 -7 25 -90 56 -185 l55 -174
43 0 c41 0 42 1 58 48 9 26 47 137 85 247 38 110 73 213 77 228 l7 28 -53 -3
-53 -3 -58 -177 c-32 -98 -62 -178 -66 -178 -4 0 -17 35 -30 78 -12 42 -36
123 -54 180 l-32 102 -47 0 -46 0 -40 -122 c-22 -68 -47 -149 -56 -180 -9 -32
-20 -58 -24 -58 -4 0 -25 57 -46 128 -21 70 -47 151 -58 180 l-19 52 -50 0
c-33 0 -49 -4 -49 -12z"/>
<path d="M4427 3093 c-3 -38 -5 -160 -4 -273 l2 -205 48 -3 47 -3 0 275 0 276
-44 0 -44 0 -5 -67z"/>
<path d="M5860 2886 l0 -277 51 3 50 3 5 79 c2 44 6 81 8 83 2 2 38 6 81 8
119 7 143 14 185 54 89 84 70 237 -35 294 -35 18 -61 22 -192 25 l-153 4 0
-276z m301 155 c22 -23 29 -39 29 -69 0 -72 -48 -101 -166 -102 -61 0 -61 1
-56 123 l4 77 80 0 c75 0 81 -2 109 -29z"/>
<path d="M6390 2885 l0 -275 50 0 49 0 3 93 3 92 60 0 60 0 63 -92 63 -93 60
0 c69 0 70 -11 -16 114 -30 44 -55 84 -55 90 0 6 16 21 35 33 46 30 69 76 68
138 0 80 -34 130 -106 160 -27 11 -74 15 -187 15 l-150 0 0 -275z m311 166
c33 -27 34 -101 1 -133 -20 -20 -32 -23 -115 -23 l-92 0 -3 74 c-1 41 0 81 2
88 4 9 30 13 95 13 73 0 93 -3 112 -19z"/>
<path d="M6960 2885 l0 -275 200 0 200 0 0 45 0 44 -147 3 -148 3 0 70 c0 49
4 70 13 71 6 1 64 2 127 3 l115 1 0 40 0 39 -127 3 -128 3 0 65 0 65 143 3
142 3 0 44 0 45 -195 0 -195 0 0 -275z"/>
<path d="M7922 3118 l3 -43 85 -5 85 -5 3 -227 2 -228 50 0 50 0 0 230 0 229
83 3 82 3 3 43 3 42 -226 0 -226 0 3 -42z"/>
<path d="M8470 2885 l0 -275 50 0 50 0 0 275 0 275 -50 0 -50 0 0 -275z"/>
<path d="M9317 3153 c-4 -3 -7 -127 -7 -275 l0 -268 205 0 205 0 0 45 0 45
-150 0 -150 0 0 75 0 75 130 0 130 0 0 40 0 39 -127 3 -128 3 -3 68 -3 67 138
1 c76 1 141 1 144 1 3 -1 6 19 8 44 l2 44 -194 0 c-106 0 -197 -3 -200 -7z"/>
</g>
</svg>
